<svg xmlns="http://www.w3.org/2000/svg" width="312" height="353.6" viewBox="177.794 1.977 557.729 631.936" enable-background="new 177.794 1.977 557.729 631.936"><g><circle fill="#fff" stroke="#070505" stroke-width="2" stroke-miterlimit="10" cx="454.863" cy="321.88" r="243.112"/><g><g enable-background="new"><path d="M334.174 450.503v-55.408c0-1.663-.442-3.214-1.44-4.766-.996-1.551-2.326-2.438-4.101-2.659v-2.328c.555-.111 4.767-2.215 12.524-6.428 1.771.665 3.322 1.773 4.765 3.104 1.441 1.329 2.105 2.66 2.105 3.878 8.199-4.654 12.965-6.982 14.407-6.982.553 0 1.55.554 2.991 1.662 1.44 1.108 2.991 2.66 4.431 4.766 1.441 2.105 2.217 4.211 2.217 6.428v37.567c0 .442-3.435 1.994-10.195 4.322-6.76 2.437-11.523 3.988-14.073 4.542v3.88c0 4.32 1.553 6.759 4.766 7.313v2.326l-11.634 5.984c-1.662-.665-3.214-1.662-4.766-3.104-1.221-1.439-1.997-2.767-1.997-4.097zm18.397-61.836c-1.44 0-2.991.554-4.434 1.662v41.888c1.994 0 4.211-.555 6.647-1.771 2.439-1.22 3.657-2.439 3.657-3.771v-30.14c.003-5.32-1.991-7.868-5.87-7.868zM419.281 392.767v29.811c0 2.546.443 4.432 1.329 5.429.888.997 2.327 1.773 4.211 2.217v2.328l-12.522 6.425c-1.662-.663-3.213-1.66-4.765-3.103-1.44-1.439-2.217-2.769-2.217-3.988l-14.405 7.091c-.222-.108-.554-.331-.998-.552-.443-.223-1.218-.776-2.326-1.551s-2.105-1.663-2.88-2.549c-2.328-2.328-3.437-4.987-3.437-7.867v-17.288c0-1.108 1.994-2.549 5.983-4.322s7.979-3.214 11.968-4.322l6.095-1.773c0-3.989-1.108-6.76-3.436-8.423-2.327-1.66-8.644-2.214-15.292-2.214l-.333-2.439c11.856-3.877 20.832-6.648 22.274-6.648 2.549 0 4.985 1.549 7.202 4.543 2.329 2.769 3.549 5.981 3.549 9.195zm-22.385 34.131c1.22 1.108 2.55 1.773 3.989 1.773 1.44 0 2.991-.552 4.544-1.549v-23.828c-1.884.666-3.324 1.108-4.321 1.552-.997.444-1.994 1.108-2.991 1.994-1.994 1.662-2.991 4.653-2.991 8.756v6.868c-.002 1.885.551 3.328 1.77 4.434zM425.042 385.122l12.634-6.316c.554.111 1.22.332 1.883.555.776.22 1.776.886 2.993 2.105 1.218 1.108 1.883 2.437 1.883 3.768.334-.111 2.217-1.22 5.431-3.325s5.319-3.103 6.316-3.103c2.439 0 4.766 1.44 6.871 4.432 2.105 2.993 3.214 5.653 3.214 8.093v5.206l-11.858 6.096-1.994-1.442c0-5.871-.666-9.308-1.883-10.084-1.331-.887-3.437-1.329-6.205-1.329v33.576c0 4.322 1.549 6.762 4.765 7.313v2.328l-11.636 5.982c-1.663-.663-3.214-1.66-4.768-3.103-1.439-1.439-2.214-2.769-2.214-4.1v-35.017c0-3.103-.555-5.431-1.774-6.981-1.218-1.552-2.437-2.328-3.877-2.328l.219-2.326zM468.705 385.122l12.633-6.316c.554.111 1.219.332 1.883.555.776.22 1.773.886 2.993 2.105 1.218 1.108 1.883 2.437 1.883 3.768.332-.111 2.215-1.22 5.431-3.325 3.214-2.105 5.319-3.103 6.316-3.103 2.438 0 4.766 1.44 6.871 4.432 2.105 2.993 3.211 5.653 3.211 8.093v5.206l-11.855 6.096-1.997-1.442c0-5.871-.663-9.308-1.88-10.084-1.331-.887-3.437-1.329-6.208-1.329v33.576c0 4.322 1.552 6.762 4.766 7.313v2.328l-11.636 5.982c-1.66-.663-3.212-1.66-4.766-3.103-1.439-1.439-2.215-2.769-2.215-4.1v-35.017c0-3.103-.554-5.431-1.773-6.981-1.22-1.552-2.438-2.328-3.879-2.328l.222-2.326zM514.47 423.575v-35.019c0-.443 4.322-2.215 13.076-5.206 8.756-2.993 13.741-4.434 15.072-4.434 1.329 0 3.325 1.44 5.871 4.32 2.66 2.882 3.991 5.433 3.991 7.759v38.121c0 .552-4.211 2.326-12.634 5.319-8.422 2.991-13.519 4.432-15.403 4.432-1.883 0-3.988-1.552-6.428-4.543-2.325-2.992-3.545-6.538-3.545-10.749zm19.725 5.651c1.441 0 2.993-.555 4.436-1.663v-31.139c0-5.209-1.996-7.757-5.874-7.757-1.551 0-2.993.554-4.434 1.551v31.249c0 5.099 1.884 7.759 5.872 7.759zM577.855 367.835v12.521h5.874l-1.108 5.208h-4.766v37.787c0 4.32 1.55 6.76 4.766 7.313v2.326l-11.636 5.984c-1.663-.665-3.214-1.662-4.765-3.103-1.442-1.439-2.217-2.771-2.217-4.1v-46.1h-4.766l1.108-4.434c2.328 0 5.099-1.44 8.311-4.322 3.214-2.881 5.21-5.872 5.765-9.086h3.434v.006z"/></g><path fill="#3DBFEF" stroke="#000" stroke-width="5.077" stroke-linejoin="round" stroke-miterlimit="10" d="M586.389 350.214c-1.552-1.773-3.878-4.322-6.871-7.313-16.51-16.4-31.803-25.155-39.339-29.587-11.522-6.981-27.592-17.731-46.209-34.796.774-4.433 1.439-9.53 1.662-15.07.332-9.53-.554-17.952-1.773-24.712-.777-2.881-2.439-7.313-5.874-11.747-4.431-5.763-9.64-8.754-12.633-10.194-.22-1.33-.554-2.66-.774-4.1-1.331-6.538-2.771-13.077-4.211-19.393-3.214-5.54-13.519-22.384-35.128-31.25-3.546-1.44-27.705-11.082-53.525-.443-13.296 5.54-21.719 14.295-25.154 17.952-7.202 7.646-10.971 14.739-16.179 24.712-4.1 7.757-8.422 17.177-12.189 28.369-1.108.665-3.657 2.217-5.43 5.319-2.106 3.547-2.106 6.871-1.994 8.201-.11 5.319.333 11.746 1.55 18.838.997 5.541 2.217 10.417 3.657 14.627 1.442 3.324 2.993 5.541 4.211 6.981.776.997 1.439 1.551 2.105 2.77 1.441 2.216 1.773 4.543 1.994 6.095.443 8.422.554 17.73.223 27.592-.333 9.753-1.108 18.84-2.217 27.15 84.662-.001 169.435-.001 254.098-.001z"/><path stroke="#000" stroke-width="4.351" stroke-linecap="round" stroke-miterlimit="10" d="M333.953 301.567c13.299 13.52 26.043 21.387 33.023 24.046 5.43 1.996 11.304 3.326 11.304 3.326 3.437.775 6.428 1.107 8.864 1.439 2.549 0 7.202.334 11.856 2.993 1.552.886 2.771 1.884 3.657 2.769" fill="none"/><ellipse cx="381.494" cy="202.942" rx="6.095" ry="12.744"/><ellipse cx="456.293" cy="202.942" rx="6.094" ry="12.744"/><path fill="#BD3C96" stroke="#000" stroke-width="4.351" stroke-linecap="round" stroke-miterlimit="10" d="M424.489 285.278l-1.552-.554c-1.328-.554-2.548-1.44-3.545-2.327-2.66-3.546-5.1-7.313-7.202-11.082-2.991-5.319-5.651-11.082-7.758-16.954-1.109-7.425-1.662-14.96-1.994-22.273-.11-2.771-.11-3.768 0-6.094.11-1.995.11-4.876.222-10.527 0-1.553.11-4.101.553-7.314l.444-2.658c.331-.223.775-.444 1.218-.665.996-.443 1.996-.443 2.659-.554 3.325-.221 6.87-.333 10.307-.443h17.73c1.773 1.551 3.437 3.324 4.765 5.208 1.22 1.884 2.217 3.878 2.88 5.984.334 2.771.445 5.43.555 7.978v2.77c0 .887-.109 1.773 0 3.546.111 1.109.111 2.106.223 2.881.111 1.552.22 2.327.111 3.768-.111 1.22-.334 2.438-.555 3.657-1.994 3.989-3.877 8.089-5.431 12.19-1.108 2.992-2.105 5.43-2.991 8.755-.445 1.995-.776 3.213-.886 4.321-.223.997-.334 2.105-.776 3.546l-.111.554c-.443 1.884-1.108 4.987-2.439 7.646-1.773 3.321-3.878 6.202-6.427 8.641z"/></g><path d="M365.204 470.546c-.349.123-.712.195-1.092.215-.38.021-.724.031-1.03.031-1.867 0-3.303-.667-4.308-2s-1.508-3.374-1.508-6.122c0-2.626.554-4.615 1.661-5.97 1.107-1.354 2.707-2.03 4.8-2.03.574 0 1.065.042 1.477.123v-5.97h3.938v6.001c.369-.062.697-.103.984-.124.287-.02.564-.03.832-.03 2.029 0 3.558.601 4.583 1.8 1.026 1.2 1.538 3.164 1.538 5.893 0 1.292-.138 2.456-.415 3.492s-.682 1.923-1.215 2.661-1.185 1.303-1.954 1.692-1.656.584-2.661.584c-.185 0-.456-.016-.815-.046-.358-.031-.651-.088-.877-.169v5.938h-3.938v-5.969zm-1.077-2.922c.225 0 .436-.015.63-.046l.631-.108v-9.507c-.39-.082-.79-.123-1.199-.123-.944 0-1.667.365-2.169 1.093-.503.728-.755 1.974-.755 3.738 0 1.6.231 2.825.692 3.677.462.85 1.185 1.276 2.17 1.276zm5.939-9.785c-.206 0-.386.016-.539.047l-.569.107v9.537c.164.042.354.066.569.078l.692.015c.984 0 1.707-.404 2.169-1.216.462-.81.692-2.157.692-4.045 0-1.601-.227-2.754-.677-3.462-.451-.707-1.23-1.061-2.337-1.061zM379.696 454.978h2.923l.462 1.847h.123c.533-.779 1.164-1.354 1.892-1.724.729-.369 1.616-.554 2.662-.554 1.928 0 3.373.611 4.338 1.831.964 1.221 1.447 3.185 1.447 5.892 0 1.312-.155 2.498-.463 3.554s-.764 1.954-1.369 2.692c-.604.738-1.344 1.303-2.215 1.692-.872.39-1.872.584-3 .584-.636 0-1.158-.046-1.569-.138-.41-.093-.82-.242-1.23-.446v6.308h-4v-21.538zm6.86 2.953c-.778 0-1.389.196-1.83.586-.44.39-.784.974-1.03 1.753v6.399c.287.226.6.405.938.539.34.133.785.2 1.339.2 1.148 0 2.01-.405 2.586-1.216.572-.81.861-2.148.861-4.015 0-1.354-.227-2.4-.678-3.139s-1.18-1.107-2.186-1.107zM395.571 462.67c0-2.605.636-4.609 1.908-6.016 1.271-1.404 3.056-2.107 5.353-2.107 1.231 0 2.297.194 3.201.584.902.391 1.65.939 2.245 1.646s1.041 1.564 1.339 2.569c.297 1.005.446 2.113.446 3.323 0 2.604-.631 4.61-1.893 6.015-1.261 1.405-3.042 2.107-5.339 2.107-1.23 0-2.297-.194-3.199-.584s-1.657-.939-2.261-1.646c-.605-.707-1.058-1.564-1.354-2.569s-.446-2.112-.446-3.322zm4.123 0c0 .676.062 1.303.185 1.877.123.574.309 1.076.555 1.507.245.431.568.765.969 1 .399.236.877.354 1.43.354 1.047 0 1.826-.38 2.34-1.139.512-.759.769-1.959.769-3.6 0-1.416-.235-2.559-.708-3.432-.472-.871-1.271-1.308-2.4-1.308-.983 0-1.754.37-2.307 1.108-.556.741-.833 1.952-.833 3.633zM421.847 464.3h-5.016v6.062h-4v-15.384h4v5.784h5.016v-5.784h3.999v15.384h-3.999v-6.062zM440.43 458.517h-4.276v11.845h-4.123v-11.845h-4.399v-3.539h12.799v3.539zM454.275 469.039c-.615.493-1.451.908-2.507 1.246-1.058.339-2.181.508-3.37.508-2.481 0-4.297-.724-5.445-2.169-1.149-1.446-1.724-3.431-1.724-5.953 0-2.708.646-4.739 1.938-6.092 1.292-1.354 3.108-2.031 5.446-2.031.779 0 1.538.103 2.277.308.737.205 1.395.544 1.969 1.016s1.036 1.107 1.384 1.907c.35.8.524 1.795.524 2.984 0 .431-.026.893-.078 1.385-.051.492-.128 1.005-.23 1.538h-9.229c.062 1.293.394 2.267.999 2.923.605.657 1.585.985 2.939.985.84 0 1.595-.128 2.261-.385s1.174-.518 1.522-.785l1.324 2.615zm-5.722-11.292c-1.047 0-1.821.314-2.324.939s-.805 1.461-.907 2.507h5.723c.082-1.106-.088-1.958-.508-2.554-.42-.594-1.082-.892-1.984-.892zM466.613 464.3h-5.016v6.062h-3.999v-15.384h3.999v5.784h5.016v-5.784h4v15.384h-4v-6.062zM489.412 473.87h-2.924l-.46-3.508h-10.339l-.461 3.508h-2.923v-7.047h1.815c.163-.225.373-.609.631-1.152.256-.543.512-1.288.769-2.231.256-.942.477-2.112.661-3.508.185-1.395.277-3.046.277-4.953h10.707v11.845h2.246v7.046zm-6.246-6.863v-8.646h-3.23c-.041.739-.112 1.523-.215 2.354-.104.832-.23 1.637-.385 2.416s-.334 1.507-.539 2.185c-.205.677-.431 1.241-.677 1.691h5.046zM491.503 459.747h7.724v3.539h-7.724v-3.539zM505.288 457.871c.594-.903 1.298-1.554 2.107-1.954.811-.399 1.79-.601 2.938-.601 1.865 0 3.348.57 4.445 1.709 1.098 1.138 1.646 2.906 1.646 5.307 0 2.769-.626 4.872-1.877 6.308s-3.015 2.153-5.291 2.153c-2.381 0-4.195-.789-5.446-2.369-1.252-1.579-1.878-4.041-1.878-7.384 0-1.764.103-3.271.309-4.523.205-1.251.497-2.307.877-3.168.379-.861.83-1.55 1.354-2.062.522-.512 1.107-.917 1.754-1.215s1.338-.508 2.077-.632c.737-.122 1.517-.225 2.338-.307 1.066-.103 1.979-.23 2.737-.385.76-.154 1.323-.404 1.693-.754l.153 3.538c-.411.369-.995.624-1.754.765s-1.784.266-3.076.374c-.78.041-1.467.133-2.062.275-.596.143-1.107.397-1.538.765s-.774.883-1.03 1.545c-.258.663-.446 1.534-.57 2.615h.094zm.768 4.984c0 1.312.256 2.399.77 3.262.513.861 1.303 1.292 2.369 1.292 1.108 0 1.902-.39 2.385-1.17.481-.779.723-1.907.723-3.384 0-1.333-.226-2.359-.676-3.077-.452-.718-1.201-1.077-2.247-1.077-1.128 0-1.964.369-2.507 1.108-.545.737-.817 1.754-.817 3.046zM524.425 463.624l.554 2.4h.184l.4-2.432 2.339-8.614h4.123l-4.678 13.876c-.39 1.149-.764 2.2-1.123 3.153-.358.954-.753 1.78-1.184 2.478-.431.696-.908 1.235-1.432 1.615-.522.379-1.144.569-1.861.569-1.066 0-1.918-.175-2.553-.523l.737-3.2c.309.124.615.185.924.185.471 0 .927-.199 1.369-.6.44-.399.774-1.123 1-2.169l-6.431-15.384h4.8l2.832 8.646zM540.393 470.546c-.349.123-.712.195-1.092.215-.38.021-.724.031-1.03.031-1.867 0-3.303-.667-4.308-2s-1.509-3.374-1.509-6.122c0-2.626.555-4.615 1.662-5.97 1.107-1.354 2.707-2.03 4.8-2.03.574 0 1.065.042 1.477.123v-5.97h3.938v6.001c.369-.062.697-.103.984-.124.287-.02.564-.03.832-.03 2.029 0 3.558.601 4.583 1.8 1.026 1.2 1.538 3.164 1.538 5.893 0 1.292-.138 2.456-.415 3.492s-.683 1.923-1.215 2.661c-.533.738-1.185 1.303-1.954 1.692s-1.656.584-2.661.584c-.185 0-.456-.016-.815-.046-.358-.031-.651-.088-.877-.169v5.938h-3.938v-5.969zm-1.076-2.922c.225 0 .435-.015.63-.046l.631-.108v-9.507c-.39-.082-.79-.123-1.199-.123-.944 0-1.667.365-2.169 1.093-.503.728-.755 1.974-.755 3.738 0 1.6.231 2.825.692 3.677.462.85 1.185 1.276 2.17 1.276zm5.938-9.785c-.206 0-.386.016-.539.047l-.569.107v9.537c.164.042.354.066.569.078l.692.015c.984 0 1.707-.404 2.169-1.216.462-.81.692-2.157.692-4.045 0-1.601-.227-2.754-.677-3.462-.451-.707-1.23-1.061-2.337-1.061zM567.191 469.039c-.615.493-1.451.908-2.507 1.246-1.058.339-2.181.508-3.37.508-2.481 0-4.296-.724-5.444-2.169-1.15-1.446-1.725-3.431-1.725-5.953 0-2.708.647-4.739 1.938-6.092 1.293-1.354 3.108-2.031 5.446-2.031.779 0 1.538.103 2.277.308.737.205 1.395.544 1.969 1.016s1.036 1.107 1.384 1.907c.35.8.524 1.795.524 2.984 0 .431-.026.893-.078 1.385-.051.492-.128 1.005-.229 1.538h-9.23c.062 1.293.395 2.267.999 2.923.605.657 1.585.985 2.939.985.84 0 1.595-.128 2.261-.385s1.175-.518 1.522-.785l1.324 2.615zm-5.722-11.292c-1.046 0-1.821.314-2.324.939s-.804 1.461-.906 2.507h5.722c.082-1.106-.088-1.958-.508-2.554-.42-.594-1.082-.892-1.984-.892zM581.59 458.517h-4.276v11.845h-4.123v-11.845h-4.399v-3.539h12.799v3.539z"/></g><g stroke="#000" stroke-miterlimit="10"><g fill="#fff" stroke-width="2" stroke-linejoin="round"><path d="M211.598 93.61s86.017-90.538 243.997-90.633c150.233-.089 243.998 92.693 243.998 92.693l-33.593 37.589s-81.982-79.319-208.904-79.319c-82.811-.001-144.896 32.203-179.054 55.577-19.457 13.314-29.851 23.764-29.851 23.764l-17.96-19.472-6.523-7.071-12.11-13.128zM223.706 106.737l-31.798 32.419 32.61 6.749 6.847 30.716 47.49-40.171-30.666-3.169zM278.855 136.45l-12.738-19.17-17.928 16.001zM690.007 106.737l31.797 32.419-32.609 6.749-6.846 30.716-47.492-40.171 30.664-3.169zM634.857 136.45l12.738-19.17 17.926 16.001z"/></g><g stroke-width=".448"><path d="M290.903 80.603c-.549.226-.993.4-1.43.596-4.089 1.822-8.246-.213-8.75-4.666-.574-5.038.985-9.613 4.258-13.551 1.526-1.841 2.994-3.741 4.579-5.535 2.064-2.337 8.299-3.388 10.707-1.89 3.154 1.96 4.07 5.731 2.674 9.85-1.541 4.552-3.992 8.468-7.66 11.54-1.4 1.174-1.367 2.425-1.07 3.942.328 1.67.599 3.357.76 5.047.042.466-.396.975-.617 1.462-.553-.359-1.402-.593-1.604-1.091-.706-1.76-1.188-3.605-1.847-5.704zm2.702-5.945c3.452-3.322 6.256-6.917 7.342-11.627.547-2.365-.224-4.662-1.889-5.545-1.4-.74-5.23.099-6.361 1.433-.222.264-.412.68-.385 1.003.4 4.841.841 9.68 1.293 14.736zm-4.617-12.228c-3.457 4.469-5.436 9.019-4.969 14.464.131 1.515.812 2.118 2.213 2.119 2.143-.003 4.096-1.176 3.991-2.523-.352-4.541-.79-9.076-1.235-14.06zM399.341 40.35c-4.223-.955-4.164-4.195-4.799-7.247-2.021 2.318-3.836 4.475-5.742 6.551-.954 1.04-2.051 1.961-3.129 2.876-1.496 1.269-3.104.936-4.676.152-1.574-.788-2.096-2.228-2.049-3.857.131-4.724 2.342-8.678 4.936-12.401 1.1-1.581 2.58-2.96 4.097-4.175 1.718-1.38 3.771-.336 4.815.845.761.866 1.267 1.952 1.98 2.864.334.424.852.833 1.357.963 1.262.326 1.746.993 1.914 2.326.371 2.929 1.043 5.82 1.502 8.738.113.7-.116 1.452-.206 2.365zm-8.886-15.465c-3.138 1.494-8.445 10.124-8.197 13.458.041.547.361 1.308.781 1.525.346.177 1.192-.155 1.539-.524 2.196-2.331 4.34-4.708 6.447-7.123 2.166-2.483 1.939-5.029-.57-7.336zM365.544 34.763c-1.523 3.645-2.914 7.044-4.377 10.414-.416.956-.898 1.968-1.621 2.679-.657.644-1.657 1.203-2.553 1.281-1.291.112-2.359-.57-2.689-2.024-.219-.964-.577-1.904-.735-2.876-.417-2.558-.721-5.136-1.146-7.693-.182-1.096.285-1.871 1.238-1.792.605.048 1.5.862 1.647 1.479.646 2.696 1.062 5.447 1.575 8.177.062.344.205.668.312 1.002l.543.168c1.036-2.237 2.064-4.479 3.106-6.712 1.435-3.073 2.838-6.159 4.354-9.191.231-.468 1.07-1 1.518-.915.684.129 1.49.635 1.848 1.225.42.688.482 1.631.583 2.476.548 4.538 1.062 9.081 1.586 13.623.153 1.35.369 2.695.421 4.046.014.438-.389 1.255-.625 1.264-.486.017-1.242-.261-1.439-.645-.502-.975-.87-2.055-1.086-3.133-.84-4.166-1.605-8.354-2.46-12.853zM325.458 62.121l-.062 2.524c-2.034.518-3.184-.43-3.756-2.26-.631-2.002-1.205-4.021-1.852-6.191-.682 2.419-1.185 4.843-2.064 7.12-.721 1.852-1.645 3.748-2.932 5.23-1.533 1.763-3.902.975-4.625-1.33-.459-1.467-.867-2.966-1.104-4.483-.476-2.997-.815-6.016-1.208-9.028-.124-.961-.191-2.093 1.081-2.088.519.003 1.362.953 1.491 1.587.559 2.769.887 5.581 1.349 8.371.25 1.497.601 2.97.91 4.457l.515.118c.592-1.165 1.411-2.268 1.736-3.5 1.471-5.589 2.768-11.221 4.229-16.812.19-.728.99-1.298 1.506-1.94.5.678 1.361 1.32 1.436 2.041.305 3.07.297 6.17.557 9.248.143 1.708.471 3.42.938 5.068.216.766.964 1.378 1.47 2.063l.385-.195zM421.474 21.014c-.984 1.436-2.02 2.843-2.947 4.318-2.166 3.439-4.367 6.858-6.375 10.388-.848 1.485-1.699 2.172-3.758 1.101.217-.722.314-1.725.783-2.5 1.982-3.264 4.018-6.5 6.152-9.667 1.715-2.545 3.529-5.032 5.439-7.438 1.277-1.607 3.061-1.404 3.686.541.605 1.881.787 3.956.824 5.951.047 2.822-.102 5.658-.369 8.47-.209 2.195-.691 4.372-1.162 6.531-.068.314-.854.777-1.123.68-.5-.184-1.133-.681-1.227-1.145-.188-.95-.111-1.967-.045-2.948.273-3.872.605-7.741.865-11.614.051-.786-.123-1.586-.193-2.381l-.55-.287zM336.74 43.925c-.172 4.698-.343 9.398-.511 14.036-2.458.581-2.959-.404-2.839-2.634.266-4.989.529-9.978.895-14.96.043-.607.611-1.538 1.115-1.677 1.219-.337 2.582-.141 3.217 1.162.911 1.878 1.615 3.856 2.444 5.778 1.199 2.77 2.409 5.537 3.666 8.279.242.531.69.985 1.112 1.407.808.805 1.121 1.625.203 2.665-1.686-.059-2.736-1.169-3.433-2.557-1.896-3.779-3.681-7.614-5.51-11.429l-.359-.07z"/></g><g stroke-width=".448"><path d="M627.484 76.137c2.197-1.153 4.104-2.086 5.943-3.143 1.762-1.016 3.461-2.142 5.162-3.252 1.156-.754 2.205-.863 2.947.483.764 1.386.061 1.977-1.236 2.63-3.957 1.99-7.812 4.182-11.703 6.312-.238.133-.609.5-.562.617.477 1.192-.082 2.038-1.107 2.245-.52.102-1.215-.68-1.99-1.163-2.342.925-4.891 1.976-7.471 2.949-1.906.721-2.789.265-3.527-1.709 2.9-1.148 5.793-2.317 8.705-3.44 1.609-.621 2.293-1.352 1.961-3.417-.637-3.947-.744-7.988-.916-11.998-.033-.758.166-2.224 1.016-2.321 1.012-.115 1.701 1.556 1.799 2.417.457 4.102.655 8.23.979 12.79zM602.378 76.074c-1.973-1.805-1.996-2.269-.213-4.036.779-.775 1.611-1.501 2.578-2.391-2.57-1.021-4.814-1.931-7.074-2.788-.309-.116-.787-.098-1.059.07-2.104 1.287-4.256 2.516-6.223 3.987-1.189.891-2.367 1.077-3.154.021-.73-.976-.213-2.037 1.01-2.703 4.049-2.222 8.068-4.505 12.076-6.805 5.018-2.882 10.035-5.774 15.016-8.731.959-.571 1.783-.906 2.643-.04.787.802.832 1.715.197 2.683-2.648 4.029-5.178 8.141-7.949 12.082-1.84 2.614-3.988 5.014-6.066 7.452-.457.534-1.202.82-1.782 1.199zm10.202-17.699l-.371-.358c-3.701 2.148-7.406 4.296-11.109 6.441l-.008.626c1.703.544 3.402 1.119 5.123 1.603.248.071.74-.211.924-.471 1.835-2.596 3.632-5.222 5.441-7.841zM563.228 57.983c-1.053-.28-1.795-1.456-1.105-2.722.912-1.671 1.857-3.342 2.961-4.889 3.223-4.522 6.527-8.984 9.805-13.47.932-1.272 2.127-1.11 2.871.387.17.343.312.864.59.964 3.609 1.302 5.232 4.564 7.328 7.355 1.297 1.732 2.652 3.438 3.793 5.274 2.957 4.768 2.498 6.398-2.773 8.653-3.764 1.612-7.777.73-11.691.614-.928-.028-1.852-.162-2.775-.142-1.645.038-7.377-1.59-9.004-2.024zm2.344-3.15c2.518.612 4.799 1.452 7.139 1.665 3.627.338 7.293.33 10.945.285 1.049-.013 2.107-.602 3.125-1.025 1.238-.513 1.488-1.365.68-2.498-1.623-2.261-3.277-4.501-4.809-6.82-1.609-2.437-3.244-4.793-6.418-5.979-3.494 4.71-7.078 9.539-10.662 14.372zM549.759 51.231c.355-.794.479-1.357.803-1.753 3.471-4.243 6.984-8.448 10.459-12.687.775-.945 1.344-2.086 2.205-2.932.506-.495 1.475-1.251 2.137-.853.654.396.562 1.778.234 2.243-2.619 3.72-5.367 7.35-8.119 10.977-1.455 1.917-2.945 3.811-4.531 5.613-.357.405-1.221.596-1.797.511-.483-.072-.885-.685-1.391-1.119zM542.988 50.761c-.861 1.243-1.471 1.472-2.764.521-2.838-2.087-3.938-4.674-3.723-8.152.24-3.793.088-3.711 3.807-3.84 3.936-.138 6.703-2.404 8.566-5.632.559-.968.326-2.604.008-3.817-.342-1.304-1.469-1.216-2.562-.627-3.363 1.808-6.26 4.157-8.648 7.151-2.002 2.511-4.031 5.006-6.158 7.41-.32.363-1.586.494-1.801.23-.5-.612-.852-1.54-.83-2.328.012-.551.707-1.117 1.156-1.622 3.471-3.944 7-7.834 10.412-11.829 1.199-1.405 2.098-3.068 4.373-1.944.219.107.602-.092.895-.179 3.523-1.036 6.414 1.069 6.395 4.766-.027 4.204-2.104 7.329-5.621 9.397-1.674.986-3.602 1.652-5.496 2.131-1.312.333-1.766 1.032-1.41 2.069.525 1.546 1.312 3.012 2.068 4.469.35.676.901 1.245 1.333 1.826zM508.296 43.351c-.738.305-1.719-.318-3.139-.581 1.631-2.482 2.811-3.97 4.486-6.503 2.471-3.142 3.457-4.626 5.043-7.063.732-1.121 1.252-2.38 1.824-3.599.508-1.077 3.287-4.648 5.646-5.604.418.099 6.008 1.01 10.199 1.133.768.023 1.619.546 2.229 1.076.314.269.389 1.183.166 1.581-.189.334-.98.523-1.471.462-3.789-.476-6.955-2.507-10.602-1.011-1.77.727-3.15 4.016-3.984 5.524-.648 1.164-1.498 2.215-2.469 3.622 3.59-.032 6.826-.1 10.066-.058.635.008 1.791.02 1.9.691.104.616-.914 1.044-1.451 1.151-2.439.482-4.902.853-7.369 1.187-1.592.213-3.221.175-4.793.466-.695.132-1.461.672-1.898 1.252-1.492 1.978-1.888 5.241-4.383 6.274zM482.097 26.228c-2.799-.638-5.33-1.194-7.848-1.804-.521-.126-1.191-.321-1.439-.709-.404-.637-.52-1.461-.758-2.205.709-.142 1.469-.507 2.127-.378 2.477.49 4.924 1.139 7.383 1.735 1.627.394 2.717-.003 3.605-1.632 1.053-1.927 2.5-3.649 3.873-5.379.316-.397 1.252-.789 1.531-.609.453.287.934 1.152.807 1.601-.326 1.135-.922 2.211-1.525 3.241-.619 1.052-1.375 2.022-2.094 3.062 3.953 1.578 6.752.546 9.166-3.228.432-.676.812-1.421 1.383-1.95.33-.303 1.105-.451 1.486-.271.373.176.812.98.689 1.304-.518 1.347-1.115 2.697-1.91 3.898-.781 1.18-1.291 1.923.574 2.56.691.236 1.098 1.309 1.85 2.274-1.9.292-3.232.457-4.549.708-3.035.575-4.285 1.794-5.236 5.105 1.236-.011 2.447.07 3.635-.059 1.266-.136 1.703.534 1.801 1.569.104 1.06-.393 1.659-1.523 1.532-1.793-.201-3.637 1.189-5.412-.172-.139-.106-.631.033-.791.208-.982 1.1-2.121 2.133-2.809 3.404-.658 1.215-1.432 1.646-2.562 1.121-1.127-.52-1.283-2.082-.447-3.237.537-.737 1.148-1.418 1.748-2.149-2.33-1.059-3.699-.67-4.857 1.236-.6.987-1.115 2.089-1.945 2.833-.438.395-1.715.448-2.15.093-.5-.412-.781-1.515-.623-2.191.215-.91.938-1.698 1.547-2.703-1.355-.376-2.578-.702-3.789-1.06-.471-.142-1.131-.239-1.328-.576-.367-.629-.658-1.448-.562-2.128.039-.282 1.193-.644 1.783-.562 1.697.234 3.355.731 5.047.999.412.063 1.104-.234 1.32-.583.986-1.556 1.845-3.193 2.802-4.898zm.572 5.841c1.311.202 2.377.429 3.463.507.492.036 1.248-.058 1.469-.379 1.125-1.628 2.121-3.35 3.354-5.356-1.684-.085-2.965-.223-4.24-.182-.527.019-1.273.282-1.518.679-.916 1.494-1.672 3.091-2.528 4.731z"/></g></g><g><path fill="#fff" d="M302.103 630.293c-4.667 0-9.111-1.393-13.209-4.143-1.299-.857-2.035-1.842-2.182-2.918-.14-1.031.262-2.096 1.191-3.158 7.926-9.047 17.197-15.932 27.562-20.463 4.357-1.9 8.854-2.865 13.367-2.865 1.44 0 2.899.102 4.336.299 1.088.152 2.285.229 3.662.229.422 0 .849-.008 1.276-.02-15.683-6.26-29.833-14.137-43.067-23.971-.039 2.125-.791 3.9-2.272 5.391-5.319 5.416-11.168 8.055-17.877 8.055-1.42 0-2.896-.123-4.388-.367-8.424-1.352-15.642-5.537-20.989-9.035-2.94-1.93-5.477-4.479-7.93-6.939-.939-.941-1.877-1.885-2.836-2.791-.769-.75-1.354-1.752-1.62-2.76-.199-.686-.076-1.389.032-2.008.039-.219.078-.438.098-.654l.101-1.109 1.618.328c.45.096.898.189 1.358.248.375.049.753.111 1.13.176.704.119 1.368.23 1.995.23l.448-.021c1.655-.18 3.351-.443 4.991-.701 2.879-.453 5.856-.92 8.822-.951l.543-.002c3.975 0 8.386.467 13.88 1.471 3.565.652 7.104 1.646 10.525 2.607l.248.07c-3.813-2.67-7.637-5.35-11.451-8.029l.003.006-.058-.021c-.242-.104-.692-.303-.896-.811-1.356-2.684-3.628-4.609-6.033-6.648-1.638-1.389-3.332-2.824-4.741-4.557-1.452-1.766-3.117-3.41-4.728-5-.58-.572-1.156-1.143-1.717-1.711-1.095.459-2.175.975-3.225 1.477-3.073 1.471-6.251 2.988-10.008 3.203-1.042.059-2.089.086-3.117.086-6.894 0-13.619-1.281-19.99-3.812-5.444-2.148-8.848-5.754-10.115-10.711-.285-1.068-.684-2.109-1.106-3.213-.307-.799-.624-1.627-.895-2.473-.167-.512-.5-1.807.072-2.654.357-.514 1.014-.77 1.962-.77.262 0 .521.021.743.057 2.074.338 4.135.715 6.195 1.092 4.222.77 8.587 1.566 12.909 1.986 5.009.502 9.084 2.779 13.024 4.982.633.354 1.267.709 1.907 1.057 1.724.941 3.533 1.812 5.282 2.652l.211.102c-.534-.719-1.07-1.438-1.625-2.146-9.387-11.936-16.587-21.596-22.561-30.271-.822.746-2.018 1.367-3.151 1.539-1.935.305-3.859.457-5.717.457-6.288.002-11.976-1.723-16.905-5.119-4.318-3.018-8.333-6.562-12.214-9.994-1.641-1.449-3.337-2.949-5.026-4.381-.323-.273-.478-.625-.59-.883l-.105-.221-.296-.512.305-.506c.875-1.449 2.104-2.154 3.757-2.154.667 0 1.312.107 1.935.213.392.066.777.133 1.147.16 9.283.656 16.882 5.148 24.492 10.094 1.323.865 2.658 1.701 3.993 2.537 1.432.898 2.906 1.822 4.353 2.773-.473-.723-.931-1.426-1.377-2.117-4.759-7.43-9.761-14.74-14.076-21.01-.607-.875-1.757-1.557-2.868-2.217l-.133-.08c-4.905-2.936-7.895-7.57-9.718-10.803-3.107-5.457-5.218-10.053-6.641-14.459-1.706-5.264-1.821-10.477-.343-15.498.352-1.176.37-2.475.389-3.848.014-.984.028-2.002.17-3.01.12-.857.673-1.533 1.118-2.078.155-.189.308-.373.426-.555l.869-1.344.827 1.369c1.597 2.646 3.186 5.238 4.756 7.799 3.766 6.146 7.324 11.949 10.691 17.973 2.537 4.523 4.833 9.637 7.018 15.625.864 2.396 1.047 4.996 1.224 7.51.053.758.106 1.512.178 2.258.065.752-.26 1.406-.637 2.164-.114.229-.238.479-.364.756 6.229 8.879 12.711 18.105 19.214 27.359-2.074-5.783-4.075-11.762-4.581-18.104-.637-7.891-.866-15.576 3.275-22.83.23-.402.394-.895.568-1.418.158-.475.321-.965.551-1.441.292-.6.638-1.117 1.075-1.773.197-.297.414-.621.653-.996l.973-1.523.774 1.635c3.322 7.02 6.3 13.957 6.24 21.643l-.004.715c-.048 8.541-.098 17.375-2.37 25.906-.402 1.502-.954 2.979-1.488 4.406l-.44 1.188c7.274 9.818 16.843 22.129 28.392 33.57-5.207-12.301-4.338-25.59 2.605-41.328l.719-1.631 1.017 1.463c.698 1.006 1.397 1.973 2.083 2.918 1.613 2.23 3.137 4.338 4.433 6.623 4.375 7.719 6.816 16.076 7.256 24.846.337 6.688-.747 13.336-3.222 19.762-.341.92-.193 1.078.374 1.484 3.079 2.227 6.147 4.461 9.217 6.695 6.406 4.666 13.029 9.488 19.604 14.137 2.908 2.072 6.016 3.98 9.021 5.824l.698.43c-3.551-3.447-5.17-7.951-6.627-12.65-.324-1.051-.678-2.09-1.033-3.131-.711-2.088-1.445-4.248-1.924-6.461-1.489-6.711-2.166-13.789 2.934-20.051.436-.537.68-1.336.936-2.182.19-.623.387-1.268.68-1.881.984-2.1 2.027-3.791 3.281-5.311l.931-1.129.714 1.275c6.867 12.262 10.618 23.641 11.467 34.783.368 4.926.004 9.824-.382 15.008-.163 2.186-.331 4.438-.442 6.723 13.436 6.844 28.914 11.93 47.264 15.533-.305-.48-.605-.967-.906-1.453-1.193-1.926-2.43-3.916-3.879-5.623-5.881-6.943-8.686-15.256-10.653-22.473-1.03-3.779-1.97-7.764-2.875-12.182-.409-2.029-.269-3.377.443-4.246.508-.621 1.255-.938 2.22-.938.704 0 1.536.168 2.543.512 2.842.961 6.51 2.48 9.665 5.746 1.544 1.584 3.478 2.785 5.524 4.061 1.086.676 2.209 1.375 3.271 2.137 9.483 6.885 13.862 19.029 10.899 30.223-.549 2.082-1.551 3.975-2.611 5.977-.314.592-.635 1.197-.947 1.814 8.141 2.543 17.17 3.781 27.561 3.781 4.424 0 9.242-.219 14.727-.666l1.807-.146-.84 1.605c-1.605 3.074-3.484 4.51-6.281 4.795-3.867.381-7.764.572-11.592.572-11.102 0-22.256-1.631-33.156-4.846-6.096-1.818-12.357-3.441-18.413-5.01-2.812-.729-5.624-1.457-8.433-2.207-.746-.195-1.369-.398-1.951-.641-.272-.109-.42-.129-.483-.129-.033.002-.166.092-.329.598-2.535 7.752-7.82 13.41-15.715 16.828-1.505.648-3.006 1.303-4.507 1.959-6.31 2.752-12.833 5.598-19.454 7.871-2.836.966-5.663 1.456-8.413 1.456z"/><path d="M186.722 417.264c5.368 8.893 10.65 17.191 15.431 25.74 2.755 4.916 5.018 10.184 6.951 15.48 1.067 2.961 1.039 6.32 1.346 9.521.063.725-.577 1.527-1.145 2.941 6.958 9.916 14.234 20.273 21.509 30.627.215-.062.431-.123.641-.203-.049-.539.019-1.107-.167-1.605-2.325-6.439-4.664-12.852-5.214-19.76-.618-7.652-.856-15.244 3.146-22.254.507-.891.7-1.986 1.151-2.924.387-.791.925-1.498 1.67-2.664 3.375 7.129 6.202 13.764 6.144 21.207-.052 8.861-.04 17.729-2.34 26.371-.542 2.021-1.356 3.977-2.085 6.014 9.957 13.465 20.542 26.535 32.993 38.137-8.667-15.025-6.834-30.068.042-45.654 2.322 3.34 4.648 6.254 6.467 9.463 4.28 7.551 6.694 15.766 7.127 24.402.332 6.592-.767 13.146-3.157 19.354-.478 1.285-.268 1.943.724 2.654 9.603 6.947 19.149 13.996 28.827 20.838 4.195 2.99 8.672 5.561 13.031 8.312l.541-.477c-.43-.68-.723-1.551-1.322-2.014-4.346-3.436-6.074-8.326-7.625-13.332-.982-3.178-2.236-6.273-2.936-9.51-1.483-6.682-2.079-13.301 2.73-19.207.924-1.137 1.08-2.881 1.741-4.26.827-1.766 1.8-3.469 3.151-5.109 6.087 10.869 10.414 22.182 11.343 34.371.534 7.145-.511 14.404-.856 22.25 15.207 7.836 31.992 12.838 49.311 16.152.214-.143.421-.311.646-.48-1.879-2.83-3.502-5.885-5.688-8.457-5.475-6.463-8.277-14.121-10.45-22.088-1.088-3.994-2.026-8.055-2.86-12.119-.545-2.707-.023-3.982 1.685-3.982.595 0 1.333.154 2.221.457 3.456 1.168 6.574 2.707 9.269 5.496 2.502 2.564 5.957 4.178 8.931 6.312 9.075 6.588 13.399 18.262 10.517 29.154-.77 2.918-2.55 5.574-3.998 8.646 9.404 3.104 19.053 4.182 28.965 4.182 4.873 0 9.807-.26 14.807-.668-1.434 2.746-3.002 4.006-5.496 4.26-3.852.381-7.682.57-11.49.57-11.107 0-22.043-1.611-32.873-4.807-8.894-2.652-17.902-4.828-26.871-7.225-.619-.16-1.225-.348-1.826-.596-.332-.137-.619-.205-.867-.205-.617 0-1.002.422-1.281 1.291-2.537 7.756-7.805 13.031-15.16 16.215-7.908 3.408-15.759 7.01-23.889 9.805-2.697.924-5.403 1.404-8.078 1.404-4.354 0-8.625-1.271-12.652-3.975-1.99-1.312-2.355-2.799-.793-4.586 7.614-8.693 16.639-15.584 27.209-20.205 4.084-1.781 8.441-2.781 12.967-2.781 1.385 0 2.787.094 4.201.287 1.248.176 2.518.238 3.797.238 2.01 0 4.047-.15 6.068-.242-17.572-6.555-33.882-15.348-49.061-26.9.543 2.836-.004 5.053-1.78 6.838-4.897 4.988-10.513 7.76-17.168 7.76-1.365 0-2.772-.115-4.227-.354-7.654-1.229-14.323-4.779-20.603-8.885-3.951-2.596-7.154-6.34-10.627-9.621-.622-.607-1.122-1.461-1.34-2.287-.205-.707.088-1.533.159-2.318.653.131 1.291.285 1.953.369 1.088.141 2.186.414 3.253.414.184 0 .368-.008.55-.025 4.589-.496 9.151-1.602 13.722-1.648l.533-.002c4.566 0 9.193.631 13.701 1.455 4.861.889 9.606 2.404 14.387 3.678l.401-.52c-4.894-3.426-9.812-6.867-14.71-10.312-.208-.131-.521-.188-.598-.381-2.481-4.924-7.571-7.34-10.926-11.465-2.159-2.625-4.71-4.922-6.977-7.26-4.532 1.795-8.485 4.57-13.535 4.861-1.025.057-2.045.084-3.06.084-6.781 0-13.325-1.24-19.621-3.74-4.598-1.816-8.202-4.893-9.515-10.031-.52-1.949-1.394-3.799-2.017-5.74-.185-.564-.318-1.395-.051-1.791.167-.24.656-.328 1.133-.328.208 0 .414.018.59.045 6.39 1.041 12.72 2.459 19.16 3.084 5.573.559 9.914 3.398 14.549 5.924 2.542 1.389 5.179 2.58 7.776 3.863.158-.191.309-.406.485-.604-1.055-1.371-2.056-2.781-3.129-4.148-7.839-9.969-16.139-20.867-23.299-31.352l.065.029-.084-.061c-1.551-2.289-3.09-4.604-4.589-6.928-4.556-7.113-9.305-14.08-14.092-21.037-.762-1.096-2.111-1.871-3.314-2.586-4.208-2.521-7.051-6.348-9.357-10.438-2.582-4.535-4.961-9.324-6.561-14.273-1.547-4.773-1.825-9.852-.335-14.908.659-2.203.261-4.68.59-7 .113-.836.948-1.543 1.388-2.223m-3.705 60.352c1.003 0 2.052.297 3.005.371 9.097.643 16.631 5.131 24.023 9.936 2.93 1.912 5.928 3.699 8.843 5.639.868.578 1.628 1.377 2.253 2.217.637.23 1.557.748 1.843.902-.175.787-1.775 2.023-3.328 2.262-1.876.293-3.736.443-5.566.443-5.853 0-11.413-1.549-16.337-4.941-6.085-4.252-11.487-9.506-17.161-14.314-.225-.191-.307-.551-.476-.842.801-1.331 1.826-1.673 2.901-1.673m39.971 19.047l.02.029-.023-.014.003-.015m-36.207-83.17l-1.738 2.684c-.077.119-.221.295-.36.465-.496.607-1.176 1.439-1.335 2.576-.151 1.066-.166 2.117-.179 3.131-.018 1.305-.035 2.533-.346 3.572-1.54 5.227-1.421 10.639.349 16.098 1.444 4.471 3.581 9.125 6.725 14.646 1.875 3.324 4.962 8.105 10.068 11.162l.14.084c.972.576 2.074 1.229 2.56 1.93 3.968 5.766 8.523 12.422 12.931 19.234l-.481-.301c-1.31-.822-2.665-1.672-3.975-2.527-7.728-5.021-15.449-9.582-24.976-10.256-.297-.021-.661-.084-1.046-.148-.632-.105-1.35-.227-2.101-.227-2.005 0-3.558.887-4.613 2.637l-.61 1.012.592 1.023.055.123c.134.307.359.818.856 1.24 1.683 1.428 3.376 2.924 5.013 4.369 3.903 3.449 7.939 7.016 12.298 10.062 5.109 3.52 10.988 5.303 17.483 5.303 1.909 0 3.886-.156 5.875-.469.911-.139 1.908-.531 2.771-1.088 5.654 8.162 12.4 17.213 21.017 28.203-.547-.279-1.089-.564-1.623-.855-.638-.348-1.269-.699-1.898-1.051-4.029-2.254-8.196-4.584-13.41-5.105-4.286-.416-8.63-1.209-12.832-1.977-2.029-.371-4.126-.754-6.206-1.092-.299-.047-.609-.07-.912-.07-1.613 0-2.399.646-2.775 1.188-.806 1.193-.475 2.736-.207 3.555.276.859.598 1.699.909 2.512.413 1.076.802 2.096 1.076 3.121 1.346 5.268 4.952 9.102 10.713 11.375 6.485 2.576 13.335 3.881 20.355 3.881 1.045 0 2.111-.027 3.168-.086 3.96-.229 7.229-1.789 10.389-3.299.839-.402 1.698-.812 2.563-1.193l1.245 1.236c1.593 1.572 3.24 3.197 4.662 4.928 1.46 1.795 3.19 3.262 4.862 4.682 2.314 1.961 4.501 3.814 5.803 6.375.373.797 1.087 1.111 1.369 1.234 2.208 1.553 4.419 3.105 6.63 4.652-1.753-.447-3.527-.857-5.313-1.186-5.556-1.014-10.023-1.486-14.061-1.486l-.555.004c-3.037.031-6.051.504-8.966.961-1.628.256-3.312.521-4.948.697l-.335.016c-.543 0-1.167-.104-1.829-.217-.391-.066-.782-.131-1.172-.182-.405-.053-.828-.141-1.276-.234l-.536-.111-2.183-.438-.201 2.217c-.017.189-.053.383-.087.574-.121.689-.271 1.549-.002 2.48.297 1.131.981 2.301 1.864 3.162.968.914 1.919 1.869 2.838 2.793 2.489 2.498 5.063 5.082 8.088 7.068 5.433 3.553 12.771 7.807 21.383 9.188 1.539.252 3.07.379 4.544.379 6.895 0 13.15-2.811 18.596-8.357 1.213-1.217 1.996-2.645 2.344-4.264 11.36 8.287 23.4 15.16 36.5 20.828-1.166-.123-2.338-.188-3.498-.188-4.649 0-9.281.992-13.766 2.949-10.501 4.59-19.893 11.561-27.914 20.721-1.13 1.291-1.611 2.621-1.431 3.951.187 1.377 1.069 2.596 2.627 3.623 4.252 2.852 8.884 4.303 13.753 4.303 2.861 0 5.796-.508 8.727-1.512 6.66-2.289 13.203-5.145 19.53-7.904 1.5-.654 3-1.307 4.501-1.955 8.066-3.492 13.504-9.252 16.168-17.125.503.188 1.047.355 1.672.52 2.797.746 5.612 1.477 8.426 2.205 6.047 1.566 12.299 3.188 18.375 5 10.998 3.244 22.248 4.889 33.445 4.889 3.859 0 7.791-.195 11.686-.578 3.137-.32 5.316-1.961 7.074-5.326l1.68-3.213-3.615.295c-5.457.445-10.246.662-14.645.662-9.803 0-18.375-1.111-26.121-3.391l.391-.738c1.041-1.965 2.117-3.996 2.695-6.189 3.066-11.588-1.465-24.16-11.275-31.281-1.095-.787-2.232-1.496-3.334-2.182-1.994-1.24-3.876-2.412-5.34-3.912-3.299-3.412-7.107-4.996-10.059-5.992-1.108-.379-2.047-.562-2.861-.562-1.594 0-2.508.709-2.994 1.303-1.204 1.471-.947 3.602-.65 5.074.91 4.445 1.855 8.449 2.892 12.25 1.995 7.322 4.847 15.762 10.854 22.855 1.282 1.51 2.361 3.201 3.475 4.992-17.01-3.5-31.498-8.322-44.156-14.693.109-2.053.261-4.078.406-6.049.39-5.225.757-10.156.384-15.156-.86-11.295-4.653-22.809-11.593-35.199l-1.428-2.551-1.86 2.256c-1.31 1.588-2.396 3.346-3.419 5.535-.318.662-.535 1.375-.727 2.004-.228.748-.443 1.455-.756 1.84-5.367 6.592-4.677 13.941-3.132 20.904.489 2.258 1.233 4.445 1.953 6.561.347 1.02.704 2.072 1.022 3.104.938 3.023 1.943 5.973 3.473 8.637-1.705-1.078-3.398-2.188-5.023-3.346-6.574-4.648-13.197-9.471-19.602-14.135-3.069-2.234-6.139-4.471-9.214-6.693l-.106-.08.085-.26c2.517-6.535 3.623-13.322 3.279-20.148-.448-8.926-2.933-17.434-7.385-25.289-1.323-2.334-2.863-4.463-4.493-6.715-.679-.939-1.38-1.908-2.072-2.902l-2.034-2.926-1.438 3.26c-6.257 14.182-7.657 26.428-4.199 37.768-9.909-10.271-18.239-20.982-24.758-29.768l.252-.676c.542-1.449 1.103-2.949 1.517-4.496 2.305-8.658 2.355-17.557 2.404-26.162l.004-.715c.062-7.893-2.962-14.943-6.336-22.074l-1.547-3.27-1.946 3.049c-.234.369-.448.689-.642.98-.439.658-.819 1.229-1.139 1.883-.263.545-.444 1.09-.604 1.57-.158.475-.307.922-.489 1.24-4.281 7.498-4.052 15.352-3.402 23.404.325 4.074 1.248 7.982 2.411 11.777-5.042-7.178-10.042-14.299-14.894-21.211l.105-.215c.407-.816.828-1.662.739-2.686-.073-.756-.125-1.504-.178-2.252-.182-2.582-.37-5.252-1.28-7.775-2.207-6.047-4.524-11.207-7.088-15.777-3.376-6.039-6.938-11.852-10.71-18.004-1.569-2.561-3.157-5.15-4.752-7.793l-1.647-2.741z"/><path fill="#fff" d="M585.259 628.85c-2.787-.07-5.635-.07-8.389-.07-5.547 0-11.281 0-16.891-.576-13.35-1.373-22.885-8.865-28.338-22.271-.146-.352-.234-.709-.322-1.107l-1.953.459c-1.896.445-3.779.889-5.674 1.295-9.254 1.984-17.428 2.949-24.986 2.949-5.533.002-10.709-.496-15.82-1.521l-.504-.074c-.561-.07-1.193-.15-1.738-.537-.611-.439-1.08-.988-1.531-1.52l-.514-.586-.938-1.008 1.248-.58c.221-.104.443-.238.668-.371.604-.363 1.291-.771 2.068-.771l.164.006c2.771.221 5.678.59 9.15 1.154 2.959.482 6.051.729 9.188.729 4.664 0 9.447-.516 14.625-1.576 10.131-2.074 20.344-4.656 30.223-7.154l.633-.16c4.922-1.244 9.891-2.699 14.695-4.105 1.727-.506 3.455-1.012 5.186-1.51.578-.168 1.156-.402 1.629-.605-.135-.393-.277-.781-.418-1.166-.541-1.467-1.098-2.982-1.092-4.541.039-7.715.352-15.207 3.682-22.094 3.986-8.24 9.805-14.309 17.291-18.035 1.104-.551 2.211-1.158 3.285-1.744 1.074-.588 2.186-1.195 3.305-1.756.469-.232 1.15-.391 1.701-.391.568 0 .996.17 1.27.504.631.777.705 1.955.58 2.73-.301 1.936-.629 3.871-.957 5.811-.545 3.221-1.109 6.551-1.535 9.834-.111.85.066 1.793.256 2.789.137.727.279 1.479.32 2.248.232 4.75-2.607 8.23-5.115 11.305l-.137.17c-2.088 2.561-4.49 4.889-6.816 7.143-.65.631-1.301 1.262-1.945 1.896l34.662-17.055c-.166-.734-.342-1.434-.514-2.105-.473-1.867-.918-3.631-.943-5.416-.139-9.311.393-17.053 3.428-24.559 2.451-6.086 5.756-10.785 10.096-14.367.426-.35.818-.762 1.232-1.199.42-.439.852-.896 1.342-1.309.258-.219 1.18-.934 2.195-.934l.227.014c.834.08 1.246.924 1.604 2.162.309 1.088.641 2.166.975 3.244.84 2.732 1.711 5.557 2.152 8.438.512 3.312.412 6.787-.273 9.785-1.406 6.131-4.195 11.957-8.309 17.357.604-.441 1.203-.887 1.799-1.334 1.811-1.365 3.615-2.736 5.424-4.107 2.672-2.029 5.342-4.057 8.023-6.064 1.039-.777 1.232-1.197.99-2.141-.266-1.021-.127-1.955.391-2.625.441-.572 1.111-.887 1.883-.887.514 0 1.051.139 1.592.412.357.184.656.271.91.271.459 0 .885-.309 1.557-.914 1.879-1.689 3.787-3.307 5.809-5.02l1.238-1.053c-2.674-1.719-3.123-4.434-3.494-6.674-.092-.555-.182-1.102-.305-1.627-2.252-9.752-.316-19.23 1.859-28.104.553-2.254 1.98-4.221 3.361-6.123.514-.705 1.043-1.438 1.502-2.15.355-.559.963-.744 1.451-.895.137-.041.271-.078.391-.133l.975-.432.51 1.375c.129.348.26.695.377 1.047.154.467.289.93.426 1.395.271.922.527 1.793.891 2.607 1.951 4.379 4.068 10.252 3.111 16.863-.041.279.016.633.072 1.008.061.389.127.83.105 1.289-.125 2.605-.322 5.168-.48 7.109-.057.705-.133 1.41-.217 2.137 5.367-4.844 16.426-20.16 18.578-25.918-2.43-.527-3.176-2.922-3.52-4.016-2.182-7.006-2.721-14.557-1.645-23.082.045-.363.104-.727.164-1.09.123-.74.236-1.441.221-2.113-.162-6.305 3.139-11.033 6.332-15.609.412-.59.986-1.004 1.494-1.369.203-.145.406-.291.594-.449l1.021-.85.535 1.217.318.686c.246.516.502 1.051.688 1.637.375 1.199.77 2.395 1.166 3.592 1.021 3.1 2.082 6.303 2.783 9.555.598 2.766.85 5.58 1.111 8.557l1.439-3.883c2.277-6.137 4.43-11.93 6.396-17.908 2.65-8.053 5.389-16.381 11.189-23.395l.625-.764c.803-.988 1.631-2.01 2.557-2.938.666-.656 1.689-.705 1.986-.705.236 0 .461.023.664.072.926.221 1.447 1.375 1.561 2.053 2.18 13.104.162 25.244-5.998 36.088-2.447 4.307-5.145 8.469-8.018 12.373-1.293 1.742-2.908 3.229-4.471 4.668-.658.605-1.318 1.213-1.951 1.838-.523.506-.998.92-1.572.92h-.199l-.236-.086c-.369-.154-.604-.188-.736-.188-.34 0-.527.252-.957 1.283-.109.264-.217.523-.336.762-1.729 3.416-3.414 6.85-5.102 10.281-.85 1.729-1.697 3.455-2.551 5.18-.328.66-.676 1.311-1.078 2.051.814-.242 1.57-.467 2.324-.697 3.895-1.195 7.736-3.143 11.453-5.023 3.338-1.689 6.789-3.438 10.314-4.67 3.188-1.107 6.58-1.129 9.861-1.146 1.84-.014 3.74-.023 5.551-.232l.355-.02c.414 0 .814.074 1.168.143l.502.086.99.129-.127.99c-.023.18-.029.371-.035.561-.02.557-.039 1.188-.365 1.766-2.803 4.928-6.549 8.055-11.451 9.561-1.834.564-3.652 1.402-5.41 2.215-1.604.74-3.264 1.508-4.979 2.09-3.08 1.051-6.268 1.908-9.348 2.736-1.352.365-2.703.729-4.049 1.107-.477.135-.949.273-1.42.416-1.127.338-2.293.686-3.484.918-.848.166-1.691.203-2.512.238-.521.023-1.047.047-1.562.104l-.264.031c-2.65.303-4.744.541-6.604 2.688-5.105 5.896-10.475 11.723-15.67 17.355-1.523 1.65-3.045 3.303-4.562 4.957 1.281-.65 2.48-1.318 3.504-2.186 5.57-4.717 11.854-7.525 18.678-8.352 1.576-.189 3.006-.281 4.369-.281 5.924 0 10.533 1.818 14.094 5.561.658.689 1.678 1.18 2.855 1.744.631.303 1.344.645 2.07 1.053l1.139.641-.914.932c-.27.273-.527.594-.795.92-.695.85-1.486 1.812-2.586 2.309-3.459 1.547-7.188 2.957-11.082 4.189-4.564 1.443-9.145 2.695-14.611 4.131-5.52 1.443-10.65 2.146-15.688 2.146-4.477 0-8.887-.584-13.109-1.732l-.121-.012c-.398 0-1.061.262-1.504.596-1.84 1.385-3.682 2.846-5.463 4.258-3.096 2.453-6.295 4.99-9.623 7.254-4.9 3.334-10.025 6.492-14.982 9.549-1.336.822-2.672 1.646-4.006 2.475l.154-.023c2.926-.467 5.949-.949 8.951-1.283l.68-.074c4.986-.553 10.146-1.123 15.254-1.123 3.832 0 7.27.318 10.512.973l.828.172c1.514.314 2.943.613 4.381.613.836 0 1.602-.104 2.338-.312.145-.041.297-.061.457-.061.73 0 1.516.445 1.938.861.871.871-.135 2.482-.145 2.498-.498.754-1.037 1.49-1.576 2.227-.99 1.35-1.926 2.623-2.617 4.021-2.098 4.227-4.191 7.576-7.59 10.191-4.123 3.172-8.854 4.098-12.516 4.551-3.709.461-8.027.953-12.318.953-4.145 0-7.836-.457-11.281-1.395-4.695-1.281-9.168-2.771-12.303-6.855-1.361-1.773-2.523-3.771-3.363-5.775-.277-.658-.412-.793-.445-.818.004.02-.172.037-.611.252l-1.963.959c-3.414 1.676-6.941 3.406-10.535 4.867-6.574 2.686-12.369 4.854-17.713 6.629-4.01 1.332-8.141 2.488-12.135 3.607l-2.021.566c2.582.023 5.232.057 7.848.174l.467.021c2.1.088 4.27.18 6.213.979 4.924 2.023 10.129 4.232 14.879 7.002 3.83 2.234 5.955 5.854 5.98 10.191.006.701.258 1.461.525 2.266.158.48.316.959.436 1.439.281 1.146.549 2.387.816 3.789.215 1.123.07 1.971-.439 2.588-.51.615-1.309.916-2.445.916l-.173-.013z"/><path d="M722.871 425.481c.154 0 .303.014.434.045.357.086.729.773.807 1.244 2.072 12.475.398 24.371-5.883 35.43-2.404 4.232-5.068 8.355-7.953 12.273-1.766 2.381-4.184 4.281-6.318 6.387-.25.24-.658.633-.869.633l-.051-.01c-.441-.184-.811-.264-1.123-.264-1.375 0-1.66 1.547-2.188 2.596-2.596 5.135-5.104 10.312-7.654 15.469-.598 1.201-1.264 2.369-2.201 4.139 1.793-.539 3.219-.953 4.637-1.389 7.488-2.297 14.418-7.127 21.807-9.703 4.789-1.666 10.129-.748 15.195-1.332l.242-.012c.502 0 1.025.15 1.541.219-.086.658.023 1.426-.279 1.959-2.484 4.373-5.871 7.562-10.873 9.1-3.578 1.1-6.869 3.105-10.418 4.312-4.377 1.492-8.893 2.572-13.346 3.83-1.607.449-3.195.996-4.824 1.312-1.303.254-2.668.182-3.996.332-2.771.318-5.326.535-7.51 3.059-7.109 8.213-14.578 16.115-21.904 24.139-.262.289-.49.609-.441 1.414 2.357-1.314 5-2.295 7.021-4.008 5.311-4.496 11.461-7.312 18.15-8.121 1.416-.17 2.838-.275 4.248-.275 4.844 0 9.549 1.234 13.371 5.25 1.18 1.24 3.074 1.809 5.16 2.98-.945.965-1.805 2.439-3.076 3.014-3.564 1.594-7.248 2.969-10.975 4.15-4.807 1.52-9.686 2.836-14.562 4.115-5.133 1.344-10.275 2.113-15.436 2.113-4.27 0-8.551-.527-12.846-1.697-.119-.031-.248-.047-.385-.047-.688 0-1.549.379-2.104.795-5.043 3.801-9.84 7.943-15.049 11.484-6.939 4.725-14.186 9.002-21.303 13.467l-.982.592.102.391c4.326-.646 8.635-1.43 12.977-1.91 5.266-.582 10.541-1.191 15.82-1.191 3.438 0 6.877.26 10.312.953 1.814.365 3.596.805 5.408.805.859 0 1.729-.1 2.611-.352l.184-.021c.402 0 .941.285 1.232.572.166.166-.043.891-.273 1.234-1.404 2.129-3.133 4.09-4.256 6.355-1.861 3.748-3.906 7.23-7.303 9.846-3.58 2.752-7.689 3.812-12.029 4.35-4.07.506-8.137.945-12.195.945-3.678 0-7.352-.361-11.02-1.359-4.471-1.221-8.824-2.656-11.771-6.498-1.297-1.689-2.412-3.592-3.234-5.555-.395-.939-.721-1.412-1.32-1.412-.289 0-.643.109-1.098.332-4.111 2.004-8.201 4.076-12.436 5.801-5.814 2.373-11.691 4.623-17.652 6.605-5.83 1.936-11.795 3.467-17.699 5.186-.197.062-.359.252-.51.893 4.061.062 8.121.035 12.172.219 2.135.094 4.422.135 6.344.924 5.025 2.066 10.074 4.213 14.754 6.941 3.293 1.92 5.461 5.104 5.486 9.334.008 1.314.668 2.615.988 3.936.305 1.24.566 2.488.807 3.74.303 1.584-.254 2.314-1.902 2.314l-.146-.002c-8.404-.213-16.869.213-25.201-.643-13.49-1.389-22.453-9.215-27.516-21.652-.211-.506-.281-1.076-.498-1.932-2.881.662-5.725 1.363-8.586 1.977-8.23 1.766-16.484 2.928-24.777 2.928-5.189 0-10.395-.455-15.625-1.502-.629-.129-1.377-.105-1.859-.447-.725-.521-1.27-1.301-1.891-1.971.77-.357 1.572-1.051 2.314-1.051l.088.002c3.033.244 6.059.656 9.064 1.146 3.121.51 6.24.74 9.35.74 4.98 0 9.934-.596 14.826-1.598 10.365-2.121 20.639-4.729 30.898-7.324 6.684-1.691 13.285-3.719 19.912-5.625.908-.262 1.773-.662 2.322-.896l.26-.107-.104-.336c-.656-2.09-1.645-4.01-1.637-5.93.037-7.385.293-14.861 3.582-21.662 3.686-7.615 9.111-13.73 16.836-17.576 2.225-1.107 4.369-2.389 6.592-3.5.326-.162.855-.285 1.254-.285.23 0 .416.041.494.139.369.455.471 1.305.367 1.938-.812 5.227-1.816 10.43-2.498 15.674-.217 1.686.48 3.469.57 5.221.219 4.441-2.518 7.707-5.029 10.789-2.969 3.643-6.555 6.773-9.865 10.137-.379.385-.689.832-1.031 1.248l.119.215.25.438c12.881-6.338 25.762-12.674 38.35-18.867-.646-3.123-1.566-5.6-1.602-8.086-.123-8.207.207-16.393 3.354-24.17 2.188-5.428 5.25-10.213 9.807-13.973.922-.76 1.666-1.742 2.582-2.516.42-.355 1.037-.695 1.551-.695l.117.006c.299.029.598.91.752 1.445 1.088 3.842 2.496 7.637 3.1 11.557.473 3.062.43 6.398-.26 9.41-1.674 7.293-5.23 13.744-10.121 19.438-.234.273-.342.656-.51.99l.424.488c1.758-1.289 3.531-2.561 5.273-3.871 4.486-3.385 8.949-6.805 13.445-10.17 1.111-.834 1.768-1.605 1.357-3.189-.352-1.355.262-2.264 1.307-2.264.34 0 .727.098 1.141.307.52.264.961.377 1.361.377.832 0 1.477-.496 2.225-1.17 2.596-2.332 5.283-4.561 8.162-7.021-4.188-1.688-3.918-5.342-4.607-8.32-2.162-9.359-.363-18.586 1.855-27.639.705-2.877 3.055-5.363 4.734-7.973.232-.369.928-.439 1.404-.652.172.467.352.926.51 1.396.447 1.365.768 2.783 1.35 4.09 2.318 5.203 3.873 10.521 3.035 16.312-.115.773.207 1.6.168 2.391-.113 2.361-.287 4.725-.48 7.076-.109 1.414-.305 2.818-.48 4.396 4.756-2.443 20.145-23.621 21.145-29l-.291.01c-2.174 0-2.994-1.555-3.574-3.418-2.316-7.432-2.576-15-1.609-22.66.141-1.119.42-2.238.393-3.354-.152-5.92 2.986-10.477 6.152-15.012.463-.66 1.264-1.084 1.908-1.621.326.738.727 1.449.967 2.217 1.359 4.342 2.971 8.631 3.928 13.059.863 4.004.996 8.16 1.514 12.822 3.213-8.844 6.521-17.322 9.363-25.955 2.693-8.188 5.408-16.299 11.01-23.068 1.016-1.23 1.996-2.506 3.119-3.631.269-.274.802-.417 1.273-.417m0-2c-1.051 0-2.055.367-2.684.988-.973.975-1.818 2.016-2.637 3.021l-.621.762c-5.92 7.154-8.688 15.574-11.365 23.715-1.943 5.902-4.068 11.633-6.318 17.689-.174-1.469-.395-2.914-.703-4.354-.713-3.305-1.781-6.533-2.812-9.656-.395-1.191-.787-2.383-1.162-3.578-.205-.654-.488-1.246-.738-1.77l-.305-.656-1.07-2.434-2.041 1.703c-.172.141-.357.271-.541.406-.543.391-1.219.877-1.729 1.604-3.133 4.49-6.684 9.578-6.512 16.211.014.574-.094 1.23-.209 1.926-.061.375-.123.75-.17 1.127-1.092 8.67-.541 16.357 1.686 23.504.314 1.012 1.031 3.309 3.146 4.324-2.451 5.396-10.734 17.008-15.992 22.662.148-1.857.322-4.184.436-6.553.027-.557-.053-1.072-.115-1.486-.037-.244-.09-.578-.07-.701.992-6.875-1.182-12.924-3.188-17.426-.338-.754-.584-1.594-.846-2.48-.139-.475-.277-.949-.432-1.416-.127-.377-.262-.734-.395-1.094l-.141-.371-.736-2-1.949.863-.275.092c-.543.164-1.453.441-2.008 1.318-.439.682-.936 1.367-1.463 2.094-1.439 1.98-2.926 4.029-3.525 6.473-2.203 8.99-4.164 18.6-1.859 28.564.111.486.197 1.012.291 1.566.336 2.031.766 4.629 2.887 6.553l-.291.246c-2.027 1.719-3.939 3.34-5.83 5.037-.658.596-.84.66-.889.66-.016 0-.148-.004-.457-.162-.686-.346-1.373-.521-2.045-.521-1.072 0-2.047.467-2.674 1.275-.711.92-.912 2.16-.566 3.49.123.48.135.52-.621 1.086-2.688 2.012-5.404 4.074-8.031 6.068-.822.625-1.646 1.252-2.473 1.877 2.402-4.07 4.123-8.344 5.139-12.771.715-3.119.816-6.729.287-10.162-.453-2.951-1.334-5.811-2.186-8.578-.326-1.057-.662-2.15-.967-3.219-.258-.893-.787-2.727-2.48-2.891l-.312-.018c-1.318 0-2.428.818-2.844 1.17-.529.447-.98.922-1.418 1.381-.395.416-.766.809-1.145 1.119-4.473 3.689-7.871 8.52-10.391 14.766-3.096 7.66-3.637 15.514-3.496 24.947.025 1.9.486 3.721.975 5.646l.328 1.312-27.951 13.752-.379.188c1.51-1.508 2.996-3.074 4.357-4.746l.139-.168c2.619-3.213 5.59-6.854 5.338-11.984-.043-.842-.191-1.627-.336-2.387-.174-.916-.338-1.783-.248-2.477.424-3.264.986-6.584 1.529-9.797.324-1.904.658-3.879.963-5.826.162-1.016.043-2.479-.791-3.506-.33-.402-.947-.877-2.049-.877-.701 0-1.545.193-2.145.494-1.139.568-2.258 1.182-3.34 1.773-1.066.584-2.166 1.186-3.252 1.727-7.689 3.828-13.66 10.053-17.744 18.494-3.422 7.074-3.742 14.691-3.783 22.523-.006 1.738.584 3.344 1.154 4.895l.092.25c-.211.078-.428.152-.643.213-1.73.498-3.461 1.004-5.188 1.512-4.797 1.404-9.756 2.855-14.66 4.098l-.633.16c-9.867 2.494-20.068 5.076-30.178 7.145-5.109 1.047-9.828 1.557-14.424 1.557-3.082 0-6.119-.24-9.027-.715-3.5-.57-6.432-.941-9.229-1.166l-.246-.01c-1.055 0-1.902.508-2.584.916-.215.129-.418.25-.574.322l-2.496 1.158 1.873 2.016.484.555c.469.551 1 1.174 1.707 1.68.758.539 1.59.645 2.199.721l.426.062c5.186 1.039 10.424 1.543 16.023 1.543 7.631 0 15.873-.973 25.197-2.975 1.904-.406 3.83-.859 5.691-1.299l1.01-.236.115.307c5.602 13.758 15.412 21.459 29.156 22.873 5.66.58 11.422.58 16.994.582 2.746 0 5.588 0 8.361.068l.197.004c1.434 0 2.516-.432 3.217-1.279.701-.85.922-1.996.65-3.412-.27-1.42-.543-2.676-.828-3.842-.129-.529-.297-1.029-.457-1.516-.24-.727-.471-1.412-.475-1.957-.027-4.705-2.328-8.629-6.479-11.047-4.805-2.803-10.045-5.025-15.002-7.062-2.105-.865-4.467-.967-6.549-1.055l-.467-.02-1.115-.045c2.568-.738 5.152-1.512 7.695-2.355 5.365-1.783 11.182-3.959 17.777-6.65 3.621-1.477 7.168-3.213 10.596-4.896l1.689-.826c.869 2.057 2.064 4.104 3.461 5.92 3.32 4.33 8.158 5.938 12.832 7.213 3.533.963 7.311 1.43 11.547 1.43 4.348 0 8.701-.496 12.439-.961 3.787-.469 8.688-1.432 13.002-4.748 3.76-2.896 6.008-6.777 7.875-10.543.654-1.32 1.564-2.562 2.529-3.875.533-.729 1.088-1.482 1.604-2.268.416-.627 1.238-2.531.02-3.75-.545-.541-1.561-1.16-2.646-1.16-.252 0-.498.033-.729.1-.648.186-1.324.273-2.066.273-1.332 0-2.715-.287-4.176-.592l-.836-.174c-3.307-.668-6.809-.992-10.709-.992-5.162 0-10.348.574-15.363 1.131l-.678.074c-1.424.158-2.852.35-4.27.557 4.904-3.023 9.971-6.148 14.822-9.453 3.357-2.283 6.572-4.832 9.684-7.295 1.775-1.41 3.613-2.867 5.443-4.246.277-.209.676-.359.859-.389 4.279 1.156 8.744 1.74 13.271 1.74 5.123 0 10.338-.713 15.939-2.18 5.482-1.438 10.074-2.693 14.66-4.145 3.932-1.246 7.695-2.668 11.188-4.229 1.318-.594 2.225-1.699 2.953-2.588.262-.32.51-.623.736-.855l1.826-1.865-2.275-1.277c-.756-.424-1.484-.773-2.129-1.082-1.09-.521-2.031-.975-2.564-1.533-3.758-3.949-8.605-5.869-14.816-5.869-1.404 0-2.873.094-4.488.289-5.461.66-10.584 2.553-15.283 5.643 4.734-5.139 9.58-10.424 14.209-15.771 1.604-1.854 3.432-2.061 5.961-2.35l.266-.031c.469-.053.967-.076 1.494-.1.854-.037 1.736-.076 2.654-.256 1.24-.242 2.432-.598 3.58-.941.469-.141.934-.279 1.402-.41 1.346-.379 2.693-.742 4.039-1.105 3.098-.832 6.299-1.693 9.412-2.756 1.762-.6 3.445-1.377 5.074-2.129 1.807-.834 3.516-1.623 5.283-2.166 5.158-1.584 9.094-4.861 12.025-10.021.451-.793.479-1.621.498-2.229l.025-.463.256-1.98-1.98-.26-.445-.076c-.396-.074-.844-.158-1.354-.158l-.465.023c-1.762.203-3.551.215-5.447.227-3.363.021-6.84.041-10.184 1.205-3.592 1.252-7.072 3.016-10.439 4.721-3.678 1.863-7.48 3.789-11.295 4.959l-.039.012c.85-1.715 1.693-3.432 2.535-5.146 1.658-3.373 3.371-6.861 5.094-10.27.131-.262.25-.543.369-.83.076-.182.176-.424.266-.604l.121.047c.26.107.535.164.82.164 1.023 0 1.738-.691 2.26-1.195.631-.623 1.268-1.209 1.941-1.828 1.596-1.469 3.246-2.986 4.594-4.807 2.9-3.939 5.619-8.135 8.086-12.477 6.275-11.047 8.332-23.408 6.115-36.744-.139-.832-.801-2.502-2.316-2.861-.267-.067-.568-.1-.882-.1z"/><path stroke="#000" stroke-width="1.725" stroke-linejoin="round" stroke-miterlimit="10" d="M580.71 584.083c-2.381 2.57-8.125 2.584-13.043 5.125M595.835 582.583l19.916-10M614.751 567.333s11.979-6.35 14.5-9.582" fill="none"/><path fill="#fff" stroke="#000" stroke-width="2" stroke-miterlimit="10" d="M662.585 538c-2.957 3.301-10.152 3.752-13.418 3.416M645.25 545.125s3.707 3.807 6.375 4.25M669.187 522.125c0 4.203-6.158 8.406-10.811 12.312M683.625 514.75c2.611-3.395 7.336-10.609 9.125-14.5M687.25 497.75s12.25-19.104 12.25-26.375M390.75 605.334c-4.238-.996-14.666-1.334-16.582-5.332M335.5 596.415s13.234 4.018 17.084 5.834M316.083 579.831c2.414 2.742 10.183 4.842 13.168 6.334M295.251 573.417c-3.769-3.158-6.986-5.887-14.75-10.166M262.168 537.5s8.667 10.75 16.917 16.082M245.417 529.167s6.926 7.354 8.917 9.666M228.417 495.584s4.511 7.928 6.833 10.25M217.999 491.124s5.208 6.959 5.458 8.5"/></g></svg>