<?xml version="1.0" encoding="utf-8"?>
<!-- Generator: Adobe Illustrator 21.0.0, SVG Export Plug-In . SVG Version: 6.00 Build 0)  -->
<svg version="1.1" id="Layer_1" xmlns="http://www.w3.org/2000/svg" xmlns:xlink="http://www.w3.org/1999/xlink" x="0px" y="0px"
	 viewBox="0 0 634.6 210" style="enable-background:new 0 0 634.6 210;" xml:space="preserve">
<style type="text/css">
	.st0{fill:#EB2D34;}
	.st1{fill:#231F20;}
	.st2{fill:#FFFFFF;}
	.st3{font-family:'PTSans-Regular';}
	.st4{font-size:48px;}
	.st5{fill:none;stroke:#000000;stroke-width:2;stroke-miterlimit:10;}
</style>
<symbol  id="Arrow_3" viewBox="-11.6 -10.8 23.2 21.5">
	<g>
		<g>
			<g>
				<polygon class="st0" points="-11.6,-10.8 -2.7,0 -11.6,10.8 11.6,0 				"/>
			</g>
		</g>
		<g>
			<g>
				<polygon class="st1" points="-11.6,-10.8 -2.7,0 -11.6,10.8 11.6,0 				"/>
			</g>
		</g>
	</g>
</symbol>
<g>
	<rect x="1" y="1" class="st2" width="408" height="208"/>
	<path d="M408,2v206H2V2H408 M410,0H0v210h410V0L410,0z"/>
</g>
<text transform="matrix(1 0 0 1 114.4399 53.7778)"><tspan x="0" y="0" class="st3 st4">&lt;audio/&gt;</tspan><tspan x="1.1" y="57.6" class="st3 st4">&lt;video/&gt;</tspan><tspan x="-32.2" y="115.2" class="st3 st4">new Audio()</tspan></text>
<line class="st5" x1="408.5" y1="102.5" x2="600.5" y2="102.5"/>
<use xlink:href="#Arrow_3"  width="23.2" height="21.5" x="-11.6" y="-10.8" transform="matrix(2.7872 0 0 -2.7406 602.3102 102.5)" style="overflow:visible;"/>
</svg>
