<?xml version="1.0" encoding="utf-8"?>
<!-- Generator: Adobe Illustrator 21.0.0, SVG Export Plug-In . SVG Version: 6.00 Build 0)  -->
<svg version="1.1" id="Layer_1" xmlns="http://www.w3.org/2000/svg" xmlns:xlink="http://www.w3.org/1999/xlink" x="0px" y="0px"
	 viewBox="0 0 1050 623" style="enable-background:new 0 0 1050 623;" xml:space="preserve">
<style type="text/css">
	.st0{fill:#EB2D34;}
	.st1{fill:#231F20;}
	.st2{fill:#E9FFF9;stroke:#000000;stroke-width:2;stroke-miterlimit:10;}
	.st3{font-family:'PTSans-Regular';}
	.st4{font-size:26px;}
	.st5{fill:none;stroke:#000000;stroke-width:2;stroke-miterlimit:10;}
	.st6{font-size:20px;}
	.st7{font-size:36px;}
</style>
<symbol  id="Arrow_3" viewBox="-11.6 -10.8 23.2 21.5">
	<g>
		<g>
			<g>
				<polygon class="st0" points="-11.6,-10.8 -2.7,0 -11.6,10.8 11.6,0 				"/>
			</g>
		</g>
		<g>
			<g>
				<polygon class="st1" points="-11.6,-10.8 -2.7,0 -11.6,10.8 11.6,0 				"/>
			</g>
		</g>
	</g>
</symbol>
<rect x="1" y="1" class="st2" width="1048" height="457"/>
<g>
	<path d="M432,259v97H26v-97H432 M434,257H24v101h410V257L434,257z"/>
</g>
<text transform="matrix(1 0 0 1 49.2275 310.7778)" class="st3 st4">MediaElementAudioSourceNode</text>
<g>
	<line class="st5" x1="432.2" y1="286.6" x2="567.2" y2="240.6"/>
	
		<use xlink:href="#Arrow_3"  width="23.2" height="21.5" x="-11.6" y="-10.8" transform="matrix(1.2522 -0.4261 -0.419 -1.2313 568.0623 240.3599)" style="overflow:visible;"/>
</g>
<g>
	<line class="st5" x1="432.2" y1="328" x2="567.2" y2="374"/>
	
		<use xlink:href="#Arrow_3"  width="23.2" height="21.5" x="-11.6" y="-10.8" transform="matrix(1.2522 0.4261 -0.419 1.2313 568.0623 374.2652)" style="overflow:visible;"/>
</g>
<text transform="matrix(0.9164 -0.4002 0.4002 0.9164 610.6175 221.5908)" class="st3 st4">AudioContex.destination</text>
<g>
	<path d="M893,59.2c-1.1,0-2.1,0.6-2.7,1.6c0,0,0,0.1-0.1,0.1l-6.2,16.6l-9.3,5.2c-0.5,0.3-0.7,0.9-0.4,1.4l9.3,16.5
		c0.1,0.2,0.3,0.4,0.6,0.5c0.3,0.1,0.5,0,0.8-0.1l9.2-5.2l17.9,4.2c0.1,0,0.1,0,0.2,0c0.6,0,1.1-0.1,1.6-0.4
		c0.4-0.3,0.8-0.6,1.1-1.1c0.6-1,0.6-2.2,0-3.2l-19.5-34.6C895.2,59.8,894.1,59.2,893,59.2z M913.5,96.3c0.2,0.4,0.2,0.8,0,1.2
		c-0.1,0.2-0.4,0.5-0.9,0.5l-17.7-4.1l-2.2-4c-0.3-0.5-0.9-0.7-1.4-0.4c-0.5,0.3-0.7,0.9-0.4,1.4l2,3.5l-7.8,4.4L876.7,84l7.8-4.4
		l2,3.5c0.3,0.5,0.9,0.7,1.4,0.4c0.5-0.3,0.7-0.9,0.4-1.4l-2.2-4l6.1-16.5c0.3-0.4,0.7-0.5,0.9-0.5c0.4,0,0.8,0.2,1,0.6L913.5,96.3z
		"/>
	<path d="M903.8,57.2c-0.5,0.1-0.9,0.6-0.8,1.2c0.1,0.5,0.6,0.9,1.2,0.8c7.4-1.4,14.8,2.1,18.5,8.6c3.7,6.5,2.8,14.7-2.2,20.2
		c-0.4,0.4-0.3,1,0.1,1.4c0.3,0.3,0.8,0.3,1.2,0.1c0.1-0.1,0.2-0.1,0.3-0.2c5.6-6.2,6.5-15.3,2.4-22.6
		C920.3,59.5,912,55.7,903.8,57.2z"/>
	<path d="M916.6,71.2c-2.9-5.2-9-7.9-14.9-6.5c-0.5,0.1-0.9,0.7-0.7,1.2c0.1,0.5,0.7,0.9,1.2,0.7c5-1.2,10.2,1.1,12.7,5.5
		c2.5,4.4,1.8,10.1-1.8,13.7c-0.4,0.4-0.4,1,0,1.4c0.3,0.3,0.8,0.4,1.2,0.2c0.1,0,0.2-0.1,0.2-0.2C918.6,83,919.5,76.4,916.6,71.2z"
		/>
</g>
<g>
	<g>
		<path d="M965.3,44c-0.2-0.1-0.3-0.1-0.5-0.1l-15.4,5c-0.2,0.1-0.4,0.3-0.4,0.6l0,13.2c-0.1,0-0.3,0-0.4,0c-0.8,0-1.6,0.2-2.3,0.6
			c-0.9,0.5-1.7,1.4-2,2.3c-0.4,1-0.3,2,0.2,2.8c0.6,1,1.7,1.6,3,1.6c0,0,0,0,0,0c0.8,0,1.6-0.2,2.3-0.6c1.4-0.8,2.2-2.1,2.2-3.5
			c0,0,0,0,0,0V54.4l10.6-3.4l0,6.5c-0.1,0-0.3,0-0.4,0c-0.8,0-1.6,0.2-2.3,0.6c-2,1.1-2.8,3.4-1.8,5.1c0.6,1,1.7,1.6,3,1.6
			c0.8,0,1.6-0.2,2.3-0.6c1.4-0.8,2.2-2.1,2.2-3.5V44.5C965.5,44.3,965.4,44.1,965.3,44z M962.7,63.2c-0.5,0.3-1.1,0.5-1.7,0.5
			c-0.9,0-1.6-0.4-2-1c-0.6-1.1,0-2.7,1.4-3.5c0.5-0.3,1.1-0.5,1.7-0.5c0.3,0,0.6,0,0.8,0.1c0.2,0.1,0.4,0,0.5-0.1
			c0.2-0.1,0.2-0.3,0.2-0.5l0-8.1c0-0.2-0.1-0.4-0.2-0.5c-0.2-0.1-0.3-0.1-0.5-0.1l-11.7,3.8c-0.2,0.1-0.4,0.3-0.4,0.6v11.8
			c0,0,0,0,0,0c0,1-0.7,2-1.7,2.5c-0.5,0.3-1.1,0.5-1.7,0.5c0,0,0,0,0,0c-0.9,0-1.6-0.4-2-1c-0.3-0.5-0.3-1.2-0.1-1.8
			c0.3-0.7,0.8-1.3,1.5-1.7c0.5-0.3,1.1-0.5,1.7-0.5c0.3,0,0.6,0,0.8,0.1c0.2,0.1,0.4,0,0.5-0.1c0.2-0.1,0.2-0.3,0.2-0.5l0-13.5
			l14.2-4.6l0,15.4C964.4,61.6,963.7,62.6,962.7,63.2z"/>
	</g>
</g>
<g>
	<g>
		<path d="M990.9,48.9C990.9,48.9,990.9,48.9,990.9,48.9L990.9,48.9C990.9,48.9,990.9,48.8,990.9,48.9l-1.4-5.3c0,0,0,0,0,0
			c0,0,0,0,0,0c0,0,0,0,0,0c0,0,0,0,0,0c0,0,0,0,0,0c0,0,0,0,0,0c0,0,0,0,0,0c0,0,0,0,0,0c0,0,0,0,0,0c0,0,0,0,0,0c0,0,0,0,0,0
			c0,0,0,0,0,0c0,0,0,0,0,0c0,0,0,0,0,0c0,0,0,0,0,0c0,0,0,0,0,0c0,0,0,0,0,0c0,0,0,0,0,0c0,0,0,0,0,0c0,0,0,0,0,0c0,0,0,0,0,0
			c0,0,0,0,0,0c0,0,0,0,0,0c0,0,0,0,0,0c0,0,0,0,0,0c0,0,0,0,0,0c0,0,0,0,0,0c0,0,0,0,0,0c0,0,0,0,0,0c0,0,0,0,0,0c0,0,0,0,0,0
			c0,0,0,0,0,0c0,0,0,0,0,0c0,0,0,0,0,0c0,0,0,0,0,0c0,0,0,0,0,0c0,0,0,0,0,0c0,0,0,0,0,0c0,0,0,0,0,0c0,0,0,0,0,0l-5.2,2.9
			c0,0,0,0,0,0c0,0,0,0,0,0c0,0,0,0,0,0c0,0,0,0,0,0c0,0,0,0,0,0c0,0,0,0,0,0c0,0,0,0,0,0c0,0,0,0,0,0c0,0,0,0,0,0c0,0,0,0,0,0
			c0,0,0,0,0,0c0,0,0,0,0,0c0,0,0,0,0,0c0,0,0,0,0,0c0,0,0,0,0,0c0,0,0,0,0,0c0,0,0,0,0,0c0,0,0,0,0,0c0,0,0,0,0,0c0,0,0,0,0,0
			c0,0,0,0,0,0c0,0,0,0,0,0c0,0,0,0,0,0c0,0,0,0,0,0c0,0,0,0,0,0c0,0,0,0,0,0c0,0,0,0,0,0c0,0,0,0,0,0l1.1,4.2
			c-0.6,0-1.2,0.3-1.7,0.7c-0.6,0.5-0.9,1.1-0.9,1.7c0,0.5,0.2,0.9,0.6,1.2c0.3,0.3,0.7,0.4,1.2,0.4c0.6,0,1.3-0.2,1.8-0.7
			c0.6-0.5,0.9-1.1,0.9-1.7c0-0.1,0-0.3-0.1-0.4c0,0,0,0,0,0l0,0c0,0,0,0,0,0l-1.4-5.2l3.9-2.1l0.8,2.8c-0.6,0-1.2,0.3-1.7,0.7
			c-0.6,0.5-0.9,1.1-0.9,1.7c0,0.5,0.2,0.9,0.6,1.2c0.3,0.3,0.7,0.4,1.2,0.4c0.6,0,1.3-0.2,1.8-0.7c0.6-0.5,0.9-1.1,0.9-1.7
			C991,49.1,991,49,990.9,48.9z M984,53.1c-0.3,0.2-0.6,0.3-0.9,0.3c-0.1,0-0.2,0-0.3-0.1c0,0,0,0,0,0c0-0.1,0.1-0.3,0.3-0.5
			c0.3-0.2,0.6-0.3,0.9-0.3c0.1,0,0.2,0,0.3,0.1c0,0,0,0,0,0C984.4,52.7,984.3,52.9,984,53.1z M989.1,49.8c-0.3,0.2-0.6,0.3-0.9,0.3
			c-0.1,0-0.2,0-0.3-0.1c0,0,0,0,0,0c0-0.1,0.1-0.3,0.3-0.5c0.3-0.2,0.6-0.3,0.9-0.3c0.1,0,0.2,0,0.3,0.1c0,0,0,0,0,0
			C989.5,49.3,989.4,49.5,989.1,49.8z"/>
	</g>
</g>
<g>
	<g>
		<path d="M943,26.1c-0.4-0.2-0.8-0.1-1,0.3l-3.2,5.6l-0.5,0.8c-0.6-0.8-1.8-1.5-3-1.6c-0.2,0-0.3,0-0.5,0c-1,0-1.8,0.3-2.3,0.9
			c-0.4,0.4-0.6,1-0.5,1.6c0.2,1.4,1.7,2.7,3.6,2.9c0.2,0,0.3,0,0.5,0c1,0,1.8-0.3,2.3-0.9c0.1-0.1,0.2-0.2,0.2-0.3c0,0,0,0,0,0
			l4.7-8.2C943.5,26.8,943.4,26.3,943,26.1z M937.3,34.6L937.3,34.6C937.3,34.6,937.2,34.6,937.3,34.6c-0.3,0.4-0.9,0.5-1.5,0.5
			c-1.2-0.1-2.1-0.9-2.2-1.5c0-0.2,0-0.3,0.1-0.4c0.2-0.2,0.7-0.4,1.2-0.4c0.1,0,0.2,0,0.3,0c1.2,0.1,2.1,0.9,2.2,1.5
			C937.4,34.4,937.3,34.5,937.3,34.6z"/>
	</g>
</g>
<g>
	<path d="M872,332v97H585v-97H872 M874,330H583v101h291V330L874,330z"/>
</g>
<text transform="matrix(1 0 0 1 652.3936 385.7778)" class="st3 st4">AnalyserNode</text>
<g>
	<g>
		<path d="M636.9,246.8c0-5-1.5-12.8,2.7-16.5c4.7-4.2,11-5,17-4.9c5.4,0.1,10.8,0.8,16.2,1.3c4.8,0.4,9.5,1.3,14.1-0.4
			c3.5-1.3,6.2-3.7,8.5-6.6c3.4-4.2,6.7-7.9,11-11.2c5.2-4.1,9.8-4.3,16.1-4.6c4-0.2,7.9-0.8,11.4-2.9c7.1-4.2,10.1-11.9,15.8-17.4
			c7.6-7.3,20-5.5,29.5-8.1c4.1-1.1,8.2-2.5,11.6-5c3.8-2.8,6.5-6.7,9.9-9.8c8.4-7.7,21.8-4.8,32.2-5.2c7.3-0.3,16.6-3.2,20.6-9.9
			c3-5.1,4.2-11.2,7.2-16.3c1-1.7-1.6-3.2-2.6-1.5c-2.8,4.6-4.2,10.1-6.5,14.9c-4.7,9.7-17.2,9.9-26.5,9.7c-8-0.1-18-0.5-24.8,4.6
			c-3.8,2.9-6.5,7-10.1,10.1c-4.6,3.9-11.1,5.6-16.9,6.6c-8.9,1.6-18.8,1-25.8,7.7c-6.3,6.1-9.5,15.6-18.5,18.4
			c-4.6,1.4-9.5,0.6-14.2,1.3c-4.1,0.6-7.4,2.6-10.6,5.2c-3.6,2.9-6.9,5.9-9.7,9.5c-4.7,6.1-9.4,8.9-17.2,8.2
			c-10.3-0.9-23.4-4.3-33.2,0c-3.5,1.5-7.4,3.6-9.1,7.1c-2.2,4.5-1.1,10.7-1.1,15.5C633.9,248.7,636.9,248.7,636.9,246.8
			L636.9,246.8z"/>
	</g>
</g>
<text transform="matrix(1 0 0 1 632.7329 534.7778)" class="st3 st4">[ Frequency Data ]</text>
<text transform="matrix(0.9482 -0.3178 0.3178 0.9482 456.2591 269.5624)" class="st3 st6">connect</text>
<text transform="matrix(0.944 0.3298 -0.3298 0.944 463.2849 329.6531)" class="st3 st6">connect</text>
<g>
	<line class="st5" x1="730" y1="555" x2="729.8" y2="612.1"/>
	
		<use xlink:href="#Arrow_3"  width="23.2" height="21.5" x="-11.6" y="-10.8" transform="matrix(-7.348049e-03 0.8916 -1.3006 -1.071807e-02 729.8361 612.6925)" style="overflow:visible;"/>
</g>
<g>
	<line class="st5" x1="732.1" y1="429" x2="731.9" y2="495.3"/>
	
		<use xlink:href="#Arrow_3"  width="23.2" height="21.5" x="-11.6" y="-10.8" transform="matrix(-8.531979e-03 1.0353 -1.3006 -1.071812e-02 731.8977 495.9894)" style="overflow:visible;"/>
</g>
<text transform="matrix(1 0 0 1 23.9531 82.998)" class="st3 st7">AudioContext</text>
</svg>
