<svg xmlns="http://www.w3.org/2000/svg" width="411.933" height="90.004" viewBox="0 0 411.933 90.004"><path d="M315.679 48.982s-11.227-3.082-9.465-15.629c.494-6.713 6.877-7.1 6.988-8.859.111-1.762-12.934 1.045-12.492 12.244.439 11.198 9.797 15.161 10.785 15.712.992.549-1.32 3.483-2.199 4.844-.881 1.356-3.34 8.399-2.459 13.5-.006 1.074-9.611 2.094-7.813 5.832 2.019 4.551 4.623 13.869 10.271 13.354 5.648-.517 3.56-5.979-.807-5.799-4.367.185-4.33-6.349-2.201-7.188 2.127-.845 6.42-2.679 7.301-5.724s4.293-5.431 8.365-4.072 6.566 2.093 4.512 8.291c-2.055 6.201-2.565 5.943 2.127 8.402 4.695 2.459 15.373 5.428 14.051.731-1.319-4.695-3.997-3.559-5.356-3.301-1.356.256-6.786.734-5.062-5.137 1.724-5.869 1.615-14.822 1.246-17.023-.364-2.201 1.871-.109 5.578-1.43 3.703-1.322 9.979-3.816 10.088-4.072.109-.258-.918 13.062 2.531 13.062s3.377-6.164 3.816-14.822c.439-5.209 3.447.439 6.457-.367 3.008-.807 10.787-4.621 15.482.881 4.694 5.504 8.053 8.146 10.117 5.283 2.061-2.861-1.093-6.309-4.101-6.971-3.009-.66-3.229-4.621-9.32-6.237-6.09-1.615-10.711.219-10.784-8.731-.072-8.951-4.771-9.554-5.648-11.748-.881-2.194-2.348-7.183 6.383-8.431 8.73-1.246 8.365-2.201 8.365-2.787 0-.588-6.971.66-7.777-2.201-.295-1.98 8.73-3.229 7.924-9.76-.959-2.34-6.971.955-7.852 1.32-2.988.715-.896-2.531-4.639-1.98-3.744.551-7.98 4.951-11.281 3.521-3.303-1.43-5.504-2.421-4.734.44 0 0-.77.22-1.814.715-1.043.495 2.752 3.853 3.191 4.457s2.109 9.208-1.559 13.979c-3.668 4.769-9.76 15.629-17.977 19.885-6.311 2.643-8.66 4.732-10.238 5.816zm-159.42.749c.672-.432 1.428-.924 2.33-.924.25 0 .498.038.744.115-.162-.785-.834-1.375-1.486-1.946-.561-.491-1.09-.952-1.324-1.535l-.023-.063h.002s2.174-2.289 1.01-4.256c-1.166-1.969-1.664-.942-1.83 0s-1.984-1.625-2.273-.084c-.289 1.543-3.299.381-2.521 2.201 0 0 .182.447.676.857-2.84.438-4.426 1.686-5.984 4.203-.434.703-1.096 2.328-1.561 3.52-2.219 5.664-3.943 6.322-6.928 6.322-1.377 0-2.758-.377-4.104-.967-.629-.363-5.461-3.243-6.723-6.369-1.352-3.346-7.332-9.648-13.508-6.883-6.176 2.767-4.992 4.853 1.801 6.754 6.432 1.801-6.238 1.994-1.672 6.111 4.566 4.114-.387 3.986 5.789 8.812 5.711 4.461 3.471 6.684 6.35 8.639l-.008.014.176.099c.191.121.402.241.637.36l.018.002c.809.382 1.74.658 2.703.938 1.02.297 3.104.889 3.104.889 2.664.289 6.586-2.859 8.119-5.158 2.373-3.703.627-6.68-.66-10.643l.594-.188c1.227 3.826 3.172 7.14.59 11.171-1.508 2.262-5.033 5.157-7.867 5.437.092.057 1.246.797 2.256 1.348.959.521 1.658 1.423 1.926 2.48.219.871.51 1.721.896 2.52.207.431.215.929.016 1.359-.197.434-.576.76-1.037.883-.812.222-1.668.529-2.326 1.104-.203.181-.307.442-.277.711.029.271.188.509.426.638.354.192.791.155 1.109-.097.828-.66 2.359-.724 3.666-1.228.467-.18.992-.119 1.406.156.148.1.303.191.48.285.678.35 1.252.85 1.695 1.471.125.174.229.342.309.502.191.39.582.646 1.016.674l.559.033c.098.006.191-.031.26-.104.069-.072.102-.168.09-.266-.033-.316-.129-.635-.268-.947-.051-.109-.039-.236.025-.338.066-.102.178-.162.299-.162 2.072.004 3.475.512 4.199.863.383.186.838.145 1.184-.104l.137-.103c.182-.129.283-.34.277-.561-.004-.225-.119-.43-.305-.551-1.918-1.25-5.176-1.346-6.77-1.764-2.586-.688-3.875-3.846-3.715-5.902l.004.002-.002-.012.314-.018c2.084-.113 3.381-1.992 4.576-3.851 2.113-3.271 3.121-3.308 3.121-3.308 5.484-.562 8.566-5.119 9.412-13.93.25-2.6-.52-4.144-1.334-5.779-.375-.758-.768-1.543-1.076-2.459l-.104-.307.309-.093c.328-.087.693-.324 1.076-.573zm-3.187-2.533c-.426 0-.768-.346-.768-.769 0-.425.344-.769.768-.769.422 0 .768.344.768.769-.001.425-.346.769-.768.769zm-98.539 37.482c3.072-.006 4.139 4.297 2.809 4.297-1.32 0-5.866.012-6.637.012s-.654-1.592-.529-3.092c.123-1.494-2.182-16.141-2.655-17.588-.47-1.449-3.15.07-14.394.156-11.25.063-13.673-3.135-13.746-.742-.072 2.395-1.393 5.322-.833 6.92.559 1.594 1.526 8.951 2.356 10.258 2.204-.232 3.634 3.768 2.207 3.768s-4.963.062-5.675.062c-.712 0-.359-1.848-.301-2.904.061-1.051-2.125-6.877-3.214-8.479-1.083-1.601-1.428-9.869-1.428-9.869s-7.065 7.278-7.259 8.438c-.194 1.162-.029 9.635-.029 10.528 2.319.238 3.356 3.464 2.224 3.464-1.129 0-5.004.096-5.866.096-.872 0-.56-3.25-.322-3.892.232-.649-1.239-7.655-1.239-10.577 0-2.929 5.45-11.113 5.45-13.431 0-2.312-1.856-7.021-1.572-11.86.426-7.239 4.885-10.915 11.976-10.972 13.305-.119 12.825 5.108 25.783 3.09 15.448-2.409 26.139-5.113 23.612-12.263 0 0-1.371-2.832-1.049-4.317.318-1.483 1.049-2.25 1.049-2.25s-19.082-14.837-31.268-17.594c1.483-3.813 19.396 4.132 19.396 4.132s-4.022-5.829-16.634-9.538c13.46-4.557 31.688 21.622 31.688 21.622s10.964 4.04 18.921 19.091c.426 4.135-1.74 5.03-3.891 4.471-2.148-.562-3.828-2.41-6.451-1.912-2.326.438-11.832 12.881-11.688 15.127.146 2.242 2.82 12.186 3.252 13.604.544 1.783-.855 5.805-.822 6.725.029.925.797 1.027 1.303 2.628.505 1.588.352 4.396-1.788 4.875l-3.938-3.937c-.68-.678.936-1.807 1.03-2.25.087-.438.505-5.443-.558-7.475-1.078-2.023-6.07-8.709-6.07-8.709s-4.447 6.332-4.266 9.758c.261 2.316.774 9.824 1.066 10.529zm219.586-50.491c-.699-1.302-1.539-2.529-2.309-3.795-.084-.14-.096-.323-.135-.487l-.101-.445c-.209-.699-.694-1.279-.805-2.033-.048-.328-.302-.664-.544-.918-.323-.344-.723-.621-1.098-.914-.281-.219-.565-.438-.854-.646.683-.91 1.25-2.21-.269-2.93-2.496-1.182-1.537-1.564-4.465 0-2.383 1.271-3.408-.729-4.627.238-.842-.566-1.699-1.11-2.516-1.715-.719-.533-1.506-.576-2.328-.526-.152.009-.377.104-.43.223-.141.313-.244.657-.293.998-.131.91.332 1.692.604 2.511.104.312.322.586.464.889.178.375.348.757.485 1.148l.022.076c-.94.309-1.66.557-1.633 1.807.057 2.562-4.59 1.729-4.203 4.467.387 2.738-2.271-.387-3.679 2.496-1.407 2.881-2.89-1.971-7.354 1.312 0 0-2.627-2.364-4.989.657 0 0-3.679-3.415-6.306-.788s-3.416-2.891-6.566-.264c0 0-2.891-3.021-5.387-.394-2.495 2.627-8.536-3.81-10.639 1.444 0 0-2.783-.672-3.152 1.183 0 0-4.092-.946-4.071 3.415 0 0-6.042 5.779 0 8.8 0 0-1.444 1.312.655 1.707 1.568.293-1.98 4.244-.666 6.121-.098.057-.19.141-.19.202 0 .558-.409.729-.799.949-.547.31-1.168.556-1.594.987-.584.595-1.03 1.324-1.5 2.021-.262.393-.426.85-.676 1.254-.457.738-1.02 1.422-.935 2.375.013.137-.126.285-.185.432-.115.304-.246.603-.328.912l-.27 1.271c-.104.395-.242.781-.396 1.16-.082.209-.195.416-.342.582-.138.154-.201.232-.035.426.111.131.176.381.135.545-.096.385-.336.738-.395 1.125-.091.596-.088 1.207-.105 1.812-.018.635.141 1.271-.172 1.889-.307.607-.598 1.229-.834 1.865-.079.217.029.5.053.754.018.168.109.377.042.49-.317.529-.674.988-.642 1.701.021.479-.299.996-.532 1.463-.313.623-.479 1.271-.563 1.938-.949.994-1.294 2.527-.754 3.811.288.685.752 1.283 1.381 1.689.369.234.737.389 1.176.424l1.159.097c.478.039.875-.429.875-.875 0-.107-.019-.209-.053-.299l.011-.05c.155.269.436.472.749.437l.688-.082c.646-.078 1.109-.688.757-1.316l-1.647-2.943.238-.629c.445-1.152.979-2.24 2.093-2.922.14-.086.212-.295.298-.457.389-.744.682-1.561 1.178-2.225.509-.682.746-1.443.977-2.211.266-.889.439-1.807.604-2.721.266-1.488.487-2.982.731-4.476.104-.631.243-1.26.894-1.563 1.248-.586 2.353-1.373 3.329-2.342l.188-.048c.047.229.119.449.129.673.047 1.061.074 2.12.114 3.182l.062.291c.037.146.117.293.107.436-.045.73.09 1.373.738 1.828.361.254.379.82.123 1.174-.096.131-.129.373-.078.527.133.408.395.783.484 1.197.197.904.666 1.656 1.184 2.393.605.859 1.018 1.822 1.1 2.855.062.754.377 1.332.863 1.795.878.834 1.426 1.815 1.699 2.981.096.41.207.813.354 1.205-.281.33-.3.892.043 1.19l1.576 1.402c.355.316.887.352 1.237 0 .077-.076.137-.17.18-.27h.229c.109.256.344.471.594.539.504.139.895-.172 1.076-.611l.109-.297c.1-.158.146-.348.143-.535.123-.629.109-1.285-.035-1.91-.057-.816-.113-1.635-.188-2.451-.049-.547-.072-1.106-.215-1.633-.152-.572-.429-1.111-.654-1.662-.072-.174-.123-.377-.246-.506-.397-.422-.49-.939-.553-1.482-.053-.461-.119-.922-.221-1.373-.177-.791-.41-1.567-.574-2.358-.094-.452-.111-.926-.14-1.392-.022-.396 0-.776.328-1.088.112-.104.166-.311.18-.479.027-.34.183-.574.493-.688.454-.164.661-.484.704-.951.013-.129.103-.25.155-.375l.393.236c.079-.252.264-.523.206-.729-.086-.31.035-.403.244-.533.291-.178.668-.31.5-.797-.024-.071.073-.254.157-.291.347-.151.3-.453.322-.733l.045-.521c.054-.422.222-.76.451-1.055 1.271.867 2.988 1.244 4.791-.67l.495.067.8.103c.854 1.774 3.055 4.434 7.812.402.399-1.519 4.549 5.19 9.332 3.36.711-.272 1.112-.869 1.644-1.108.008 1.157-.054 2.313-.06 3.473-.002.246.041.553.187.729.229.275.172.449-.07.607-.33.219-.394.443-.113.746.24.26.197.473-.16.606l.213.205c.396.453.372.879.01 1.33-.145.179-.195.447-.238.687-.069.385-.067.785-.151 1.168-.146.674-.188 1.332-.069 2.024.073.423-.058.892-.152 1.326l-.383 1.25c-.17.826-.271 1.631.146 2.356.172 2.197 1.695 4.24 3.865 4.89.461.139.811-.093.975-.423l.852.066.082.006.015.025c.563.979 2.078.098 1.513-.883l-.757-1.316c-.047-.133-.112-.264-.206-.389l-.083-.111-1.022-1.779c-.062-.104-.135-.188-.215-.254l-.119-.379c.449-.385.406-.879.295-1.399-.039-.188-.041-.396-.012-.589.123-.762.42-1.526.36-2.271-.062-.812.772-1.353.476-2.159l.063-.052c.162-.758.422-1.517.207-2.299-.065-.244.028-.356.153-.531.168-.237.377-.532.367-.795-.035-.894.424-1.58.793-2.315.189-.383.408-.785.463-1.197.131-.967.16-1.947.259-2.92.019-.172.131-.402.271-.482.336-.193.862-.012 1.104.312.319.438.995.656 1.295.49l.853.397c.739.369 1.485.728 2.213 1.121.334.185.399.813.991.59l.177.117c.248.147.52.271.739.446.427.345.912.662 1.203 1.104.199.304.129.793.147 1.201.047.911.068 1.823.109 2.737.025.58.062 1.162.096 1.742l.037.478c.125.907.353 1.812.355 2.721.01 1.336-.127 2.675-.229 4.011l-.011.301c-.079.041-.153.094-.225.164-.312.312-.371.938 0 1.238 1.543 1.258 3.448 1.762 5.414 1.434.407-.066.653-.506.639-.896.035-.193.009-.396-.116-.559l-1.396-1.809c-.224-.679-.199-1.293-.104-1.976.139-.994.144-2.009.277-3.002.146-1.054.406-2.086.311-3.166-.063-.711-.022-1.433-.098-2.142-.053-.5.115-1.059-.307-1.494-.043-.047-.021-.227.033-.284.36-.388.143-.746-.008-1.13-.152-.389-.382-.799-.365-1.19.07-1.881-.346-3.668-.902-5.438-.1-.317-.254-.623-.328-.946-.178-.793-.32-1.593-.48-2.39-.203-1.02.047-1.875.849-2.58.215-.188.373-.493.452-.772.072-.262.104-.53.14-.803 1.031-.437 1.817-1.361 1.228-3.408.229-.573.408-1.164.549-1.771 1.578.328 3.49-.1 1.35-5.321.623-1.531 1.959-2.34 3.035-3.42l.115-.062c.703-.279 1.398-.586 2.117-.822.252-.082.584-.052.84.037 1.016.354 2.006.385 2.943-.183.271-.164.479-.446.684-.699.229-.287.387-.639.641-.897.645-.656.768-1.107.43-1.929.316-.108.607-.259.48-.669-.231-.758-.375-1.573-.744-2.261z"/></svg>