<svg xmlns="http://www.w3.org/2000/svg" width="1121.145" height="161" viewBox="0 0 1121.145 161"><path d="M1007.814 28.59c3.138 4.663 5.83 9.606 8.908 14.303.613.933 1.528 1.684 2.057 2.653 1.97 3.602 3.871 7.184 7.748 9.234 1.527.806 2.742 2.181 4.222 3.11 1.562.984 3.259 2.389 4.916 2.416 1.543.025 3.099 1.916 4.66.205 6.979 1.136 8.03.948 13.899-1.887 1.236-.598 2.738-.627 4.014-1.163 1.986-.834 4.339-.784 5.904-2.718.758-.936 1.951-1.641 3.086-2.127 4.638-1.991 8.998-4.314 12.828-7.73 1.959-1.748 4.45-3.141 7.479-2.428 1.271.299 2.093.866 2.248 2.137.111.928.021 1.881.021 3.075 2.266-1.381 4.064-2.594 5.969-3.61 2.293-1.222 4.682-.441 6.66-.41.438 1.639.377 3.316 1.166 3.978 2.166 1.815 1 3.522.146 5.11-.679 1.256-1.902 2.218-2.881 3.309 1.512.748 3.674 1.277 2.881 3.629-.829 2.452-2.37 5.124-4.812 5.639-2.908.611-4.537 2.735-6.888 4.006 2.041-.181 3.925-.75 5.793-1.365 2.161-.713 2.153-.73 4.231 2.127-1.76 1.313-3.584 2.574-5.297 3.975-1.78 1.461-3.696 2.685-5.01 4.803-1.055 1.701-4.281 1.178-5.021 3.885.279.34.562.721.885 1.066.453.485.975.914 1.402 1.424 1.242 1.486 1.08 3.207-.602 4.066-1.218.622-2.646.864-4.003 1.176-.866.203-1.772.213-3.413.392 2.342 2.297 4.166 4.089 6.02 5.901l-2.674 2.674c-4.57.271-9.021.228-11.875-3.795-1.16.609-2.045.961-2.801 1.492-3.615 2.558-7.197 5.162-10.879 7.809 0 1.439-.009 2.927.002 4.412.01 1.451-.19 2.757-.895 4.141-.5.987.041 2.309.793 3.588 2.73 4.655 4.998 9.583 7.58 14.332.826 1.52 1.822 3.575 3.197 4.04 2.843.962 2.265 4.738 5.111 5.396.111.024.213.949.021 1.281-.829 1.438-2.327 1.812-3.727.916-.777-.498-1.429-1.205-2.275-1.935-2.875 3.411-7.238 3.099-10.471 5.245-.442-.477-1.289-.975-1.271-1.438.065-1.623-1.142-1.801-1.899-1.367-2.463 1.404-5.07.768-7.77.953-.865-1.029-1.775-2.111-3.125-3.72 1.715-.554 2.838-1.062 4.014-1.271 2.811-.504 5.646-.866 8.469-1.289 1.612-2.604 3.715-1.768 5.729-.521.47-1.453.852-2.629 1.205-3.729-2.161-3.094-4.469-6.312-6.684-9.594-3.07-4.557-7.304-6.776-12.738-6.91-.557 3.082-2.973 4.332-5.059 4.824-1.838.432-3.453 1.244-3.854 2.527-.625 1.984-2.37 1.729-3.47 2.628-.431.354-1.364.115-1.771.478-2.754 2.457-5.428 5.002-8.144 7.531.55 1.254 1.779 2.401.504 4.09-.93-.34-2.498-1.276-2.812-.963-1.458 1.453-3.124.797-4.684.875-2.865.146-5.623-.097-8.341 1.68-2.078 1.356-4.584.141-6.646-1.213.259-1.604-.844-1.422-1.851-1.455-.734-.023-1.465-.17-2.207-.264l.179-2.724c1.493 0 2.81.349 3.772-.088 1.222-.554 2.15-.743 3.209.088 3.031-1.89 6.385-.776 9.586-.947 2.154-.114 4.045-.46 5.728-1.93 2.052-1.79 4.002-4.106 6.431-4.944 2.83-.975 2.229-3.418 2.948-5.015.832-1.843.541-4.451-.801-6.487-.165-.252-.388-.627-.617-.648-3.377-.358-4.885-3.445-7.381-5.09-3.582-2.356-7.207-4.822-10.188-7.854-2.09-2.122-4.074-4.336-6.42-6.185-3.496-2.756-5.828-6.539-7.996-10.211-3.172-5.375-5.299-11.224-5.479-17.734-.183-6.574 1.94-12.634 3.571-18.746 1.326-4.965.014-9.183-2.127-13.146-1.59-2.946-4.881-4.565-8.307-4.985-1.723-.212-2.689-.75-3.105-2.358 2.009-1.236 3.82-2.595 6.086-3.34 2.588-.852 4.57-3.211 6.004-5.772.544-.969 1.328-1.766 2.762-1.655 1.229.095 2.649.539 3.646-.841.283-.39.957-.801 1.377-.734 1.375.22 2.714.656 4.068 1.009-.08 2.23 1.562 1.502 2.739 1.632.45.049.961.176 1.306.445 2.063 1.609 4.09 3.269 6.66 5.34-2.293 1.172-3.945 2.017-5.591 2.86.008.108-.06.319.022.431zM98.043 144.782c-3.515-.425-7.033-.829-10.544-1.296-.39-.053-.741-.432-1.11-.66.326-.44.6-.936.988-1.307 1.381-1.319 3.528-.457 4.864-1.469 1.985-1.504 4.105-1.617 6.381-1.549 3.47.105 6.123-1.484 8.33-4.037.703-.812.418-1.34-.153-2.086-1.828-2.386-4.156-4.636-5.127-7.355-.72-2.017-1.603-3.002-3.248-4.148-2.06-1.434-3.947-2.636-6.552-2.406-.543.053-1.112-.521-1.702-.656-3.771-.859-7.546-1.744-11.464-1.295-1.604.184-2.849 1.496-2.198 3.006.562 1.301.528 2.287-.16 3.188-.86 1.131-.983 2.299-.992 3.617-.006.754-.209 1.584-.567 2.245-1.547 2.854-1.922 6.229-4.336 8.739-1.371 1.424-1.003 2.095.646 3.195.945.633 1.732 2.682 1.252 3.48-.084.139-.904.098-.984-.062-1.317-2.623-3.365-1.092-4.42-.266-1.509 1.18-2.764 2.137-4.783 1.91-.651-.072-1.532.453-2.049.969-1.121 1.119-2.268.699-2.468-.389-.359-1.947-1.896-2.178-2.728-1.504-2.017 1.635-4.146.59-6.187.791-.627.062-1.452-.596-1.979-1.125-.68-.688-.685-1.469.461-1.805 1.188-.35 2.443-1.07 3.57-.918 2.182.303 1.227-2.08 2.453-2.434.742-.217 1.479-.594 2.229-.621 2.162-.086 4.33-.029 6.496-.031 4.305-.004 4.564.082 5.991-4.209.737-2.221 1.735-4.293 2.616-6.424 1.562-3.77 1.278-5.129-2.168-6.824-5.181-2.549-9.722-6.08-13.81-9.998-5.334-5.113-10.74-10.176-15.414-16.01-2.631-3.281-4.489-6.82-6.16-10.5-1.764-3.883-3.188-7.945-2.668-12.409.211-1.807.143-3.669.018-5.493-.391-5.686 1.084-11.016 2.672-16.391.66-2.232.298-4.599-.308-7.069-1.687-6.886-6.893-9.798-12.94-10.701-.5-.075-.938-.565-1.403-.862.394-.369.745-.804 1.19-1.097 1.564-1.031 3.058-2.368 4.787-2.886 1.143-.342 2.049-.663 2.916-1.474 1.043-.977 2.299-1.724 3.361-2.68.395-.354.639-1.003.718-1.551.263-1.762 1.253-2.491 2.979-2.43 1.475.052 2.982.212 3.957-1.354.207-.335.799-.432 1.213-.639.674 1.794 3.871-.36 3.934 2.5.005.176 1.054.597 1.199.46 1.738-1.631 2.58-1.089 3.313.98.188.527 1.667-.397 2.479.782 2.597 3.765 2.6 4.089-1.48 6.187-.267.137-.757-.052-.929.123-.185.187-.271.723-.132.935.771 1.192 1.64 2.322 2.445 3.493 3.658 5.315 7.863 10.35 10.799 16.039 2.742 5.321 6.785 8.684 11.705 11.463 1.897 1.072 4.353.382 5.984 1.208 4.176 2.113 7.829-.011 11.518-.812 3.236-.703 6.209-2.646 9.265-4.111.979-.469 2.016-1.007 2.746-1.777 2.125-2.232 4.762-3.733 7.362-5.223 2.502-1.435 4.998-2.826 6.904-5.013 2.189-2.511 4.846-3.626 8.17-3.251 1.436.162 1.985.769 1.563 2.207-.168.577-.696 1.04-.944 1.605-.103.233.062.622.203.889.036.069.469-.003.674-.101 1.948-.928 4.051-1.651 5.772-2.899 1.131-.819 2.211-.802 3.224-.597.782.159 1.895 1.046 1.982 1.724.126.969-.599 2.028-.872 3.073-.438 1.673 2.187.582 2.14 2.585-.059 2.472-1.627 3.518-2.996 4.789-1.173 1.09-1.062 2.183.145 2.423 2.275.452 2.014 2.089 1.625 3.272-.904 2.76-2.452 5.135-5.527 6.069-1.17.354-2.285.928-3.375 1.494-.396.205-.647.683-.963 1.037.604.149 1.351.597 1.788.391 1.485-.7 2.977-1.327 4.602-.903.868.227 1.967.691 2.354 1.386.542.97.438 2.22-.733 3.026-.403.279-.653.88-1.077 1.021-3.537 1.162-5.518 4.47-8.466 6.196-2.263 1.324-1.368 1.813-.532 3.022l.858 1.638c1.814 2.653 1.392 4.015-1.593 4.638-.958.201-1.996-.02-2.989.057-.436.031-1.071.227-1.205.531-.146.328.06.982.336 1.297.88.998 1.791 1.994 2.822 2.826 1.318 1.068.754 2.467.65 3.68-.021.283-1.646.602-2.534.609-3.026.022-6.011.334-8.792-1.753-1.629-1.223-5.096.546-6.562 2.566-1.039 1.43-1.984 3.34-3.434 3.969-2.271.987-2.636 2.603-2.496 4.468.188 2.512.271 5.219 1.282 7.442 1.345 2.951 2.177 6.123 3.796 8.928 1.707 2.953 3.829 5.644 5.02 8.931.375 1.039 1.92 1.636 2.875 2.496.398.354.655.873.975 1.315-.528.192-1.051.502-1.592.543-.457.037-1.197-.5-1.371-.332-1.404 1.373-3.086 2.661-3.945 4.351-1.221 2.395-3.25 2.768-5.404 3.071-1.309.185-2.661.035-3.996.035l-.036.282zM259.8 144.755c-3.517-.416-7.035-.812-10.545-1.278-.352-.05-.873-.49-.914-.804-.047-.356.26-.985.576-1.129.979-.438 2.022-.774 3.07-1.024 3.52-.847 6.799-2.799 10.686-2.133.551.096 1.606-.689 2.541-.962 2.461-.707 3.646-2.864 2.752-4.704-2.026-4.189-4.922-7.992-8.24-10.99-5.129-4.638-12.131-5.979-19.252-5.185-.431.05-1.052.64-1.148 1.074-.735 3.264-1.251 6.571-1.967 9.846-.683 3.118-.718 6.371-1.107 9.558-.224 1.819-.118 2.397 1.024 3.481.886.843 1.472 3.327.771 3.604-.375.147-1.203-.612-1.715-1.086-.743-.686-1.28-.582-2.099-.024-1.404.95-2.933 2.274-4.457 2.347-1.583.075-2.992.672-3.961 1.358-1.27.899-1.869.381-2.157-.402-.731-1.972-1.565-2.05-3.52-1.319-1.895.707-4.186.562-6.274.416-.575-.041-1.06-1.426-1.58-2.194.535-.229 1.074-.449 1.597-.697 1.457-.687 3.551-.438 4.325-2.01.798-1.619 1.832-2.029 3.431-2.002 3.166.053 6.332.055 9.496-.035.396-.012 1.102-.709 1.104-1.092.026-4.548.453-9.144-.986-13.568-.274-.844-.894-2.012-1.586-2.209-3.417-.969-5.928-3.426-8.855-5.166-2.852-1.694-5.463-3.836-8.02-5.975-1.91-1.599-3.732-3.368-5.279-5.312-1.358-1.712-3.508-2.363-4.707-4.423-1.215-2.088-3.446-3.569-5.17-5.381-2.491-2.619-4.682-6.328-6.015-10-.368-1.013-.815-2.015-1.04-3.062-.494-2.311-1.732-4.936-1.072-6.896.83-2.469.523-4.786.772-7.157.117-1.134-.013-2.311.242-3.407.488-2.11.681-4.536 1.888-6.172 1.594-2.159-.252-4.974 1.879-6.758.156-4.925.582-9.916-4.318-13.216-2.318-1.561-4.817-2.261-7.604-2.198-.686.015-1.384-.44-2.074-.679.404-.665.712-1.425 1.24-1.97.533-.549 1.316-.842 1.935-1.321 2.146-1.671 4.438-3.21 6.318-5.146.773-.798 3.517-1.228 1.616-3.455 1.239-1.289 2.653-2.203 4.504-2.418.909-.106 1.852-.371 2.655-.798.788-.419 1.492-1.93 2.359-.91 1.195 1.407 1.541-.567 2.326-.265.288.11.826.207.83.324.09 2.691 1.492.662 2.34.696.715.03 1.67-.425 1.924.889.082.423.766 1.046 1.16 1.038 2.004-.041 3.344 1.47 3.623 2.764.351 1.626-1.376 2.733-2.977 3.271-1.145.384-1.102 1.04-.545 1.814 1.199 1.677 2.552 3.256 3.67 4.985 3.546 5.487 6.858 11.115 10.062 16.814 1.533 2.725 2.957 5.634 5.791 7.411 3.636 2.281 7.78 3.008 11.843 3.996 2.342.568 4.402-.634 6.578-1.039 4.752-.885 8.734-3.87 13.377-5.097 2.443-3.101 5.918-4.862 9.02-7.138 3.27-2.402 6.327-5.173 9.104-8.131 1.52-1.617 3.095-1.511 4.881-1.622 1.668-.106 1.227 1.023 1.396 1.944.209 1.122-2.3 1.642-.597 2.84.183.129 1.314-1.164 2.056-1.737 1.254-.971 2.657-1.775 3.788-2.869 1.051-1.015 2.093-1.647 3.43-.902 1.076.599 1.403 1.661 1.334 2.943-.05.92.169 2.63.467 2.675 2.822.425 1.428 1.975.918 3.168-.604 1.417-1.351 2.779-2.109 4.123-.479.847-.491 1.269.48 1.881 2.601 1.636 2.386 1.66 1.396 4.323-1.032 2.776-2.395 5.057-5.271 6.262-1.137.476-2.121 1.342-3.117 2.104-.281.213-.362.685-.535 1.039.301.076.65.292.896.205 1.306-.463 2.674-.852 3.85-1.554 1.401-.839 2.444-.601 3.434.53 1.079 1.235.891 2.429-.325 3.396-1.51 1.197-2.312 3.214-4.47 3.697-.556.123-1.277.75-1.415 1.279-.595 2.281-2.362 3.193-4.21 4.207-1.357.742-1.334 1.562-.267 2.721.563.613 1.216 1.148 1.75 1.783.455.537.799 1.166 1.19 1.756-1.162.287-.298 1.938-1.945 2.399-1.382.388-2.712.707-4.137.835-.557.049-1.083.418-1.624.643.277.554.448 1.2.847 1.64 1.121 1.229 2.306 2.408 3.524 3.541.991.92.84 1.764-.162 2.399-1.304.828-2.558 1.703-4.267 1.795-2.825.152-5.332-.358-7.725-1.971-.695-.472-2.009-1.845-3.082.164-.447.842-1.895 1.09-2.65 1.846-.754.756-1.114 1.896-1.822 2.713-1.736 2.015-1.749 1.979-1.691 5.49.009.585-.407 1.166-.52 1.771-.711 3.845-.976 7.396 1.799 10.924 1.883 2.396 3.69 5.011 5.294 7.718 1.646 2.776 2.627 6.61 6.425 7.821.103.031.159.781-.002.922-.325.285-.896.619-1.225.509-.772-.259-1.36-1.377-2.228-.009-1.024 1.617-2.825 2.492-3.655 4.488-.699 1.685-2.81 2.467-4.815 2.556-1.497.065-2.998.014-4.498.014l-.036.251zM379.606 145.457c-.857-.326-1.794-.799-2.314-1.494-.215-.287.854-1.33.82-2.002-.082-1.602.879-1.402 1.892-1.484 1.095-.088 2.579.004 3.172-.643 1.194-1.311 2.51-1.359 4.002-1.34 1.832.021 3.666.051 5.495-.012 1.453-.045 3.034.074 4.284-.486.47-.211-.257-2.428.292-3.23 1.952-2.865-.214-6.473 1.892-9.242.241-.317.245-1.237 0-1.436-2.438-1.977-3.384-5.346-6.614-6.637-3.716-1.482-7.451-3.049-10.869-5.094-3.604-2.155-7.622-3.385-11.144-5.765-3.412-2.303-6.906-4.495-9.931-7.274-1.881-1.729-3.527-3.791-4.951-5.924-3.264-4.889-6.193-9.93-5.493-16.222.219-1.972.072-3.994.024-5.992-.072-3.061-.01-6.071 1.615-8.832.3-.511.211-1.235.401-1.829 1.193-3.713 1.838-7.569 2.71-11.352 1.48-6.427-2.178-12.94-10.24-13.703-1.164-.11-2.902.843-3.341-.818-.178-.67 1.072-1.871 1.879-2.607 1.041-.951 2.197-1.866 3.464-2.466 2.896-1.371 4.836-3.648 6.521-6.237-.836-2.188 1.458-1.681 2.214-2.473 1.039-1.09 3.159.509 3.973-1.121 1.05-2.117 2.711-.137 3.859-.824 1.071-.638 1.707-.778 2.018.731.074.363 1.24.902 1.347.798 1.471-1.459 2.163-1.347 2.952.737.336.883 2.283.089 3.367 1.394 2.006 2.414 1.815 3.959-1.188 4.919-1.365.437-2.058 1.715-1.345 2.666.869 1.162 2.026 2.131 2.771 3.36 1.771 2.913 3.323 5.953 5.044 8.896 2.035 3.483 4.281 6.814 6.152 10.428 1.756 3.384 4.217 6.548 8.445 7.982 2.264.767 4.502 1.235 6.737 1.86 2.106.589 3.807 1.151 5.858.139 1.849-.91 4.046.106 6.003-1.243 1.593-1.098 3.811-1.243 5.581-2.14 1.656-.839 3.743-.61 5.07-2.275 2.031-2.547 4.849-4.292 7.686-5.554 4.064-1.808 6.603-5.471 10.367-7.533.284-2.343 2.271-2.291 3.848-2.54 2.056-.326 2.887.474 3.241 2.582.131.774.294 1.544.44 2.315.59-.551 1.129-1.17 1.78-1.634.621-.443 1.334-.792 2.05-1.067 2.441-.938 4.567.567 4.727 3.306.025.448.894 4.002.996 4.256.572 1.394 1.679 2.759-.299 4.073-.739.492-1.439 1.441-1.586 2.282-.089.52.942 1.198 1.394 1.858 1.807 2.646 1.703 4.218-.57 6.502-.643.643-1.564 1.008-2.373 1.478-1.608.937-3.232 1.848-4.836 2.795-.276.165-.479.461-.713.697.422.17.883.545 1.258.473 1.216-.233 2.38-.733 3.597-.932 1.146-.188 3.771 1.463 4.009 2.343.145.526-2.292 3.318-3.153 3.628-1.161.414-2.436.651-3.45 1.297-1.75 1.115-2.565 3.397-4.89 3.944-.287.064-.611 1.666-.304 2.209.554.977 1.65 1.629 2.376 2.531 1.249 1.558.38 3.771-1.581 3.987-1.316.146-2.663.005-3.994.048-.275.01-.755.25-.775.426-.049.437-.034 1.021.22 1.324.745.891 1.532 1.795 2.468 2.467 1.299.938 1.354 2.199 1.167 3.512-.063.455-.664 1.207-.997 1.195-3.341-.115-6.812.799-9.915-1.359-1.662-1.157-3.311-1.012-4.764.609-1.224 1.359-2.522 2.664-3.89 3.881-1.048.932-2.983 1.516-3.229 2.557-.432 1.844 2.446 1.514 3.042 3.049.111.283.636.457.662.717.399 3.76 3.285 6.738 3.207 10.703-.037 1.834.402 3.805 1.136 5.492.678 1.559 1.966 2.887 3.114 4.199 1.837 2.099 3.905 4.006 5.623 6.193.795 1.014 2.059 2.617.62 3.807-1.202.996-1.799-.883-2.709-1.412-.525-.309-1.286-.34-1.663-.752-.656-.715-1-.447-1.45.129-1.575 2.016-3.17 4.014-4.73 6.039-.269.346-.348 1.119-.597 1.158-2.682.41-5.498 1.339-8.037.859-2.214-.418-4.381-.729-6.612-.855-.272-.018-.603-.613-.729-.998-.071-.217.21-.795.34-.797 2.889-.049 5.061-2.256 8.107-2.357 2.308-.074 5.289-1.07 6.119-3.992.477-1.678.796-3.723.272-5.299-1.354-4.076-3.05-8.068-4.951-11.926-.851-1.721-2.487-2.773-4.84-2.689-1.682.063-3.009 1.084-4.577 1.055-.691-.016-1.84-.99-1.984-.826-.777.877-1.675.934-2.686.883-1.017-.051-1.31.438-1.979 1.344-2.463 3.324-2.728 7.275-3.771 10.965-.775 2.735-.922 5.69-1.02 8.559-.052 1.514.64 3.045.903 4.584.072.425-.185.906-.289 1.363-.354-.23-.793-.396-1.045-.707-1.026-1.273-1.875-1.471-3.188-.168-.95.945-2.371 1.885-3.62 1.938-1.69.073-3.181.588-4.448 1.385-.942.592-1.466.578-1.785-.221-.797-1.992-1.728-2.777-3.847-1.404-.854.551-2.196.344-2.334.361-1.666-.002-2.399.179-2.983-.048zM546.82 143.732c-.293-.539-.854-1.316-.672-1.647.356-.651 1.075-1.328 1.774-1.521.928-.258 1.988.012 2.979-.088.763-.076 1.833-.123 2.194-.607 1.08-1.441 2.484-1.393 3.977-1.373 2.001.021 4.002.023 6.002.001 2.038-.024 2.436-.647 1.792-2.703-.277-.888-.501-1.79-.8-2.669-.646-1.898-1.701-3.743-1.906-5.682-.299-2.83-3.092-2.901-4.465-4.521-.881-1.039-2.427-1.965-3.682-2.943-1.993-1.56-4.027-3.078-6.146-4.459-4.187-2.729-8.368-5.479-12.689-7.98-3.898-2.258-6.836-5.803-10.724-7.924-2.135-1.162-3.448-2.943-5.123-4.438-1.037-.922-1.649-2.303-2.521-3.425-3.799-4.895-6.462-10.109-5.796-16.624.319-3.133.021-6.325.071-9.49.02-1.255.448-2.439.782-3.646 1.511-5.453 4.127-10.718 3.244-16.697-.573-3.896-1.238-7.681-4.804-9.99-2.204-1.427-4.387-3.151-7.332-2.848-.271.028-.689-.498-.876-.852-.103-.198.062-.656.249-.855.443-.463.914-.985 1.48-1.227 3.62-1.541 7.268-2.941 10.1-5.93.517-.544 1.24-.737 1.134-1.65-.121-1.032.668-1.053 1.274-1.54 1.914-1.534 5.107-.093 6.367-2.888.045-.101.656-.059.928.073 1.388.673 2.92 1.199 4.074 2.167.943.789 1.214.352 1.854-.173.227-.184 1.178.017 1.271.25.872 2.197 3.418 2.622 4.613 4.493.765 1.196.806 2.091-.513 2.756-.815.412-1.851.375-2.677.77-1.193.57-1.316 1.623-.613 2.742 2.493 3.961 4.999 7.914 7.406 11.927 2.396 3.994 4.483 8.187 7.065 12.052 2.762 4.135 6.438 7.124 11.857 6.943.623-.02 1.338.018 1.864.3 3.878 2.076 7.705.16 11.063-.933 5.218-1.697 10.547-3.398 15.362-6.331 5.938-3.614 12.781-5.354 18.906-8.635 1.469-.786 3.627.619 3.891 2.396.488 3.288.847 3.25 4.372 2.49 1.213-.26 2.348-1.273 4.167-.531 1.996.812 1.605 3.139 3.396 3.663-.312 1.018-.316 2.378-.994 2.991-1.813 1.641-.582 2.544.548 3.519.316.274.938.164 1.323.394 1.588.953 1.412 2.615 1.103 3.974-.232 1.032-1.213 1.926-2.624 1.701-.485-.078-1.137-.203-1.462.035-.41.302-.767.955-.759 1.451.003.358.692.668.981 1.068 1.898 2.631 1.014 5.043-2.104 5.398-2.593.296-5.223.291-7.834.419 2.396.872 4.815 1.68 7.174 2.643 1.329.541 2.095 1.694 1.673 3.14-.404 1.388-1.511 1.817-3.012 1.897-1.727.092-3.493-.66-5.246.606-1.322.954-3.761.8-4.562 1.94-1.433 2.035 1.671 3.074 2.098 4.992.411 1.847.676 1.506-1.264 2.47-1.732.862-3.127 1.411-4.741-.033-.15-.133-1.036.206-1.172.51-.148.327.073.95.327 1.306 1.015 1.429 2.276 2.703 3.118 4.221 1.188 2.14.677 2.861-1.663 2.929-2.448.074-4.905.306-6.698-1.979-.457-.584-1.284-.877-1.937-1.312-1.665-1.11-3.47-1.062-4.75.359-2.559 2.843-4.406 6.268-3.318 10.015.865 2.979-.56 5.331-.696 7.979-.234 4.562-2.303 9.42 2.264 13.216.801.664 1.131 1.87 1.818 2.711.656.801.703 1.506-.107 2.062-1.761 1.209-1.395 2.536-.436 4.018.416.643 1.032 1.431.944 2.066-.228 1.615.834 1.842 1.877 2.166.892.276 1.855.365 2.688.756.567.264.961.9 1.433 1.373-.565.523-1.062 1.375-1.712 1.521-4.942 1.098-8.345-1.188-10.312-6.315-.4-1.047-.507-2.318-1.022-3.033-.765-1.057-.418-2.474-1.012-3.072-2.151-2.163-2.69-4.288-1.021-6.926.194-.306.138-1.086-.108-1.299-1.422-1.236-.437-2.828-.736-4.216-.301-1.389 1.246-2.643.109-4.247-.373-.529 1.037-2.117.787-2.978-.49-1.692-2.533-.191-3.294-.929-1.772-1.723-3.782-.766-5.649-.877-2.168-.133-3.76 1.67-3.96 3.944-.083.954.021 2.037-.402 2.824-.857 1.597-.235 2.876-.007 4.468.52 3.612 2.684 6.762 2.574 10.551-.022.793.001 2.789 2.043 3.232 2.059.447 1.898 1.671.337 2.927-.889.716-.21.901.521 1.005 1.621.23 1.133 1.772.855 2.297-.788 1.5-1.171-.209-1.538-.517-.843-.701-1.405-1.13-2.481-.254-1.197.976-2.574 2.172-3.979 2.334-1.812.208-3.446.627-4.843 1.64-.9.654-1.221-.006-1.415-.402-.992-2.006-1.972-3.247-4.224-1.187-.543.497-1.931.073-3.328.073-1.433.104-3.286.206-4.342-1.768zM776.673 65.294c.884.692 1.882 1.28 2.623 2.099 1.157 1.277.991 2.839-.487 3.696-1.18.683-2.562 1.174-3.909 1.364-1.633.231-3.34.191-4.985.013-1.405-.152-2.119.641-2.9 1.492.89.186 1.783.538 2.67.518 2.284-.05 4.493-.007 6.352 1.598 1.278 1.102 1.37 2.701.077 3.746-.457.369-1.174.732-1.695.646-3.066-.506-5.643.531-8.131 2.169-.744.49-1.728.694-2.631.854-1.959.35-1.99.314-.903 2.289.526.957 1.196 1.834 1.75 2.775 1.382 2.354.512 3.924-2.177 3.953-1.166.014-2.332-.016-3.498.006-2.017.038-2.075.088-.838 1.996.697 1.074 1.719 1.938 2.438 2.999.879 1.295.92 2.753-.024 4.026-.895 1.203-2.019 1.402-3.406.544-2.239-1.386-4.644-2.511-6.846-3.947-1.418-.924-2.771-.879-4.063-.187-1.743.931-2.377 2.404-1.652 4.398.284.785.077.932-.225 1.467-1.592 2.828-3.107 5.7-4.611 8.578-.657 1.26-1.157 2.122-3.032 2.241-3.809.245-4.157 1.195-3.061 4.938.566 1.938 1.092 3.906 1.438 5.896.959 5.511 3.383 10.36 7.659 15.253.272.314.226 1.281-.058 1.643-1.149 1.479-2.462 1.817-3.649.438-1.496-1.735-3.069-1.276-4.021-.215-1.909 2.128-4.788 1.478-6.825 2.938-1.453 1.041-2.683 1.002-3.03-.901-.301-1.647-1.718-1.36-2.173-1.03-1.788 1.299-3.758.672-5.632.958-2.072.313-2.916-1.241-4-2.382-.233-.248-.035-1.291.303-1.613.53-.505 1.33-.938 2.048-.994 2.084-.166 4.354.465 5.777-1.851.119-.197 1.07-.207 1.273.021 1.383 1.549 2.06-.703 3.154-.521-.637-.567-1.188-1.447-1.921-1.644-3.452-.924-4.854-4.633-8.096-5.812-.354-.13-.771-.766-.75-1.141.106-1.74-1.101-2.895-1.728-4.303-.575-1.295-1.258-2.488-.377-4.072.655-1.182 1.343-2.932.92-3.989-.629-1.576-2.629-.368-3.961-.761-.877-.258-1.719-.687-2.527-1.125-2.994-1.625-5.885-3.475-8.973-4.889-3.582-1.639-6.605-4.121-9.955-6.102-3.588-2.122-6.576-5.131-9.901-7.59-3.713-2.748-6.354-6.241-8.399-10.036-2.143-3.97-3.973-8.321-3.187-13.183.167-1.035.126-2.112-.517-3.271-.834-1.506-.445-3.217.164-5.045 1.178-3.543 2.592-7.116 2.445-11.01-.029-.696.741-1.398.813-2.129.233-2.373 1.262-4.536 1.271-7.034.012-2.752-2.687-4.418-2.201-7.138-2.479-2.22-4.308-5.383-8.244-5.471-.711-.016-1.394-.794-2.117-.849-2.486-.189-1.207-1.217-.348-1.771 2.348-1.513 4.688-3.145 7.256-4.172 1.672-.668 3.248-1.654 3.391-3.05.277-2.709 2.078-2.75 3.881-3.108 1.086-.217 2.585.022 3.191-.616 1.095-1.15 1.816-.704 3.08-.541 1.701.219 3.033.291 3.562 2.149 1.838-.306 3.351.056 4.083 2 2.766-.696 2.48 2.407 4.027 3.307.675.393.593 1.418-.604 1.71-1.047.255-2.038.765-3.092.953-1.254.224-1.324 1.13-.75 1.694 1.966 1.929 3.399 4.19 4.771 6.542 3.287 5.641 6.479 11.349 10.031 16.823 3.579 5.516 9.012 8.265 15.481 8.954 2.537.269 5.151-.46 7.623.939.649.369 1.848-.153 2.774-.36 7.703-1.723 13.95-6.564 20.812-10.036 3.995-2.023 7.814-4.345 12.064-5.896 2.736-.998 4.511 1.28 6.836 1.572.171.022.289.839.351 1.298.146 1.114-.15 2.688.471 3.23.677.588 2.187.239 3.331.263 1.165.023 2.335.063 3.497-.007 2.456-.148 4.364.947 5.844 2.726.547.659 1.097 2.173.774 2.541-1.091 1.254-.382 1.778.429 2.62 2.316 2.407 1.98 3.397-1.395 4.097-.906.188-1.888.028-2.832.028l-.398.794zm-44.506 70.162c.407-.237.878-1.185.722-1.438-1.614-2.619-1.35-5.746-2.418-8.488-.843-2.157-1.136-4.586-3.121-6.221-.373-.306-.218-1.205-.414-1.795-.104-.311-.521-.812-.666-.771-1.931.539-3.883 1.046-5.735 1.795-1.448.584-1.413 1.417-.31 2.756 1.008 1.22 1.812 2.604 2.86 3.784.786.882 1.54 2.378 3.164.783.271-.264 1.622.354 2.291.824.277.197.312 1.282.038 1.6-.48.554-1.304.801-1.954 1.222-1.818 1.179-1.854 1.627-.471 3.708.337.51.584 1.087.796 1.662.581 1.585.775 1.752 2.822 1.562.414-.16 1.475-.448 2.396-.983zM879.713 142.88c-1.111-1.175-.72-3.19.78-3.319 2.549-.22 5.304.521 7.179-2.041.059-.078.402-.082.475.002 1.354 1.543 2.561.127 3.492-.437 1.146-.692 2.002-.81 3.119-.19.506.276 1.354.66 1.653.444.901-.64.25-1.272-.188-2.028-.627-1.08.518-.653.949-.795.643-.209 2.561.481.881-1.298-.06-3.858-2.244-7.079-3.304-10.639-.325-1.097-1.771-1.856-2.704-2.771-2.984 1.426-5.861-.354-8.753-.556-4.349-.308-4.283-.25-7.787-.09-3.176.144-6.303 2.953-9.635.399-.524-.402-1.685-.254-2.444-.021-2.416.746-4.096 3.925-7.271 2.153-1.157.871-1.802 2.08-1.144 3.382.445.873 1.045 1.271.385 2.481-1.414 2.596-1.262 2.685.504 4.496.58.596 1.209 1.151 1.746 1.784.179.207.291.707.166.888-.232.33-.627.643-1.015.746-.467.127-.989.038-1.489.028-2.869-.062-3.061.138-4.16 2.119-.371.67.039 2.455-1.569 1.81-.739-.296-1.492-1.303-1.67-2.113-.511-2.321-1.007-4.711-.99-7.069.019-2.698.291-5.478 1.029-8.056.53-1.851 1.698-3.746 3.969-4.25 2.521-.562 4.504-2.088 6.531-3.543.389-.281.769-.866 1.127-.847 1.25.068 2.629-.165 2.832-1.303.096-.537-1.511-1.438-2.416-2.074-.888-.625-1.83-1.196-2.81-1.659-6.312-2.98-12.004-6.589-16.367-12.351-2.977-3.933-6.438-7.39-8.896-11.826-1.795-3.237-2.488-6.66-3.691-9.988-.822-2.274-.4-7.269.602-11.432.443-1.836 1.152-3.776.931-5.569-.601-4.82 2.414-8.92 2.323-13.581 1.396-1.048.682-1.85-.203-2.798-.486-.523-.775-1.314-.947-2.035-.994-4.141-.99-4.115-3.3-5.442-1.927-1.106-3.757-2.271-6.183-2.07-.771.064-1.623-.812-2.438-1.257.661-.555 1.26-1.222 1.997-1.641 1.882-1.068 3.896-1.908 5.726-3.053 2.008-1.257 3.899-2.707 5.744-4.196.24-.195-.388-1.369-.129-1.661.479-.538 1.318-1.071 2-1.055 2.119.049 4.071-.492 6.105-.954 1.814-.412 4.193-.87 5.062 1.896 1.926-.486 3.222.314 4.084 2 2.633-.475 2.5 2.409 3.998 3.374.598.385.506 1.485-.756 1.654-.428.057-.919.359-1.188.701-.741.939-2.701-.72-2.729 1.158-.015.976.735 2.005 1.271 2.935.627 1.087 1.494 2.038 2.086 3.141 2.628 4.905 4.936 10.005 7.855 14.726 4.018 6.495 9.33 11.382 17.674 11.312.5-.005 1.11-.19 1.483.027 4.513 2.625 8.599.014 12.761-1.07 2.977-.776 5.465-3.048 8.768-2.99.4.007.81-.428 1.213-.658 1.35-.769 2.727-1.491 4.037-2.318 4.463-2.813 9.752-3.899 14.14-6.938 2.66-1.843 2.823-1.609 6.22-1.053 3.023.494 3.166.486 3.354 3.466.091 1.457.684 1.644 1.814 1.534.642-.062 1.539.129 1.879-.223 1.432-1.476 3.162-.769 4.703-.72 3.19.101 4.644 1.638 4.627 4.742-.008 1.728.078 3.235 1.625 4.377.281.208.308 1.378.037 1.604-.961.799-1.442 2.061-3.045 2.305-2.068.316-2.086.754-.707 2.277.557.616 1.231 1.136 1.736 1.791.264.341.514 1.13.352 1.289-1.273 1.245-2.593 3.265-4.004 3.353-2.14.133-3.968 1.284-6.072 1.229-.707-.017-1.844-.452-1.859.884-.021 1.69 1.35.972 2.18 1.071.82.098 1.693.164 2.49-.006 2.084-.449 2.966 1.164 4.037 2.316.812.877 0 1.741-1.132 2.77-1.939 1.771-4.347.123-6.062 1.082-1.759.982-3.013 2.719-5.328 2.904-2.451.197-2.443.363-1.207 2.623.373.682.639 1.532 1.209 1.973 1.188.92.762 2.115.729 3.197-.012.396-.678 1.086-1.077 1.107-1.991.115-3.998-.012-5.993.076-1.16.05-.461.531-.277 1.146.498 1.684 2.054 2.501 2.806 3.854.549.992.771 2.699.258 3.566-.36.613-1.81 1.164-3.44.566-2.525-.922-5.182-1.574-6.979-3.57-1.114-1.238-3.394-1.246-3.548-3.408-2.248-.334-2.744 1.942-4.188 2.807l-.482.021c-3.057 2.748-6.367 4.855-7.438 9.654-1.507 6.738.17 12.531 2.985 18.23.801 1.625 2.038 3.129 2.704 4.887 1.259 3.307 3.029 6.238 5.64 8.682.773.725 1.234 1.799 1.761 2.756.067.125-.312.709-.541.746-1.008.166-1.776-.178-2.636-.883-1.972-1.617-2.926-1.457-5.088-.008-1.552 1.037-3.118 2.098-4.806 2.877-1.248.576-2.967.365-3.989 1.143-1.091.828-1.729.812-2.159-.209-.74-1.758-1.441-2.758-3.492-1.432-.871.561-2.134.518-2.238.539-4.294.035-4.294.035-5.86-1.606z"/></svg>