<?xml version="1.0" encoding="utf-8"?>
<!-- Generator: Adobe Illustrator 16.0.0, SVG Export Plug-In . SVG Version: 6.00 Build 0)  -->
<!DOCTYPE svg PUBLIC "-//W3C//DTD SVG 1.1//EN" "http://www.w3.org/Graphics/SVG/1.1/DTD/svg11.dtd">
<svg version="1.1" id="Capa_1" xmlns="http://www.w3.org/2000/svg" xmlns:xlink="http://www.w3.org/1999/xlink" x="0px" y="0px"
	 width="50.605px" height="50.001px" viewBox="171.781 172.085 50.605 50.001"
	 enable-background="new 171.781 172.085 50.605 50.001" xml:space="preserve">
<g>
	<path d="M219.311,181.819c0.672-0.432,1.428-0.924,2.33-0.924c0.25,0,0.498,0.038,0.745,0.115
		c-0.162-0.785-0.834-1.374-1.487-1.946c-0.56-0.491-1.089-0.952-1.323-1.535l-0.024-0.063h0.001c0,0,2.174-2.289,1.01-4.257
		c-1.165-1.968-1.663-0.942-1.83,0c-0.165,0.943-1.984-1.625-2.272-0.083c-0.289,1.543-3.3,0.381-2.522,2.201
		c0,0,0.181,0.447,0.675,0.857c-2.84,0.438-4.425,1.686-5.983,4.204c-0.435,0.702-1.097,2.327-1.562,3.519
		c-2.219,5.664-3.943,6.322-6.927,6.322c-1.378,0-2.757-0.377-4.104-0.966c-0.628-0.364-5.46-3.244-6.723-6.37
		c-1.35-3.345-7.332-9.649-13.507-6.883c-6.175,2.767-4.992,4.853,1.801,6.754c6.432,1.801-6.239,1.994-1.672,6.111
		c4.567,4.116-0.387,3.988,5.789,8.813c5.711,4.461,3.47,6.684,6.349,8.639c-0.002,0.004-0.005,0.008-0.007,0.013
		c0.055,0.035,0.119,0.062,0.176,0.099c0.191,0.121,0.401,0.242,0.636,0.36c0,0,0.015,0.002,0.018,0.002
		c0.808,0.381,1.739,0.658,2.703,0.938c1.019,0.297,3.103,0.889,3.103,0.889c2.664,0.288,6.586-2.861,8.12-5.16
		c2.373-3.704,0.627-6.679-0.66-10.641l0.594-0.188c1.225,3.826,3.171,7.139,0.588,11.17c-1.507,2.263-5.032,5.159-7.867,5.437
		c0.093,0.058,1.246,0.798,2.257,1.349c0.959,0.521,1.658,1.422,1.925,2.48c0.219,0.871,0.51,1.721,0.897,2.52
		c0.207,0.429,0.214,0.927,0.016,1.359c-0.197,0.434-0.576,0.759-1.037,0.882c-0.814,0.221-1.668,0.53-2.327,1.104
		c-0.203,0.18-0.306,0.444-0.277,0.712c0.03,0.269,0.188,0.506,0.425,0.636c0.355,0.193,0.792,0.156,1.11-0.096
		c0.829-0.66,2.359-0.722,3.667-1.226c0.466-0.18,0.992-0.12,1.406,0.156c0.147,0.099,0.303,0.192,0.479,0.284
		c0.679,0.351,1.253,0.85,1.696,1.472c0.125,0.174,0.229,0.342,0.308,0.501c0.193,0.39,0.582,0.647,1.017,0.674l0.558,0.033
		c0.098,0.006,0.192-0.031,0.26-0.103s0.101-0.168,0.09-0.265c-0.033-0.317-0.13-0.636-0.269-0.947
		c-0.049-0.111-0.038-0.237,0.027-0.339c0.065-0.101,0.178-0.161,0.299-0.161c2.071,0.004,3.474,0.511,4.198,0.862
		c0.384,0.187,0.839,0.146,1.183-0.103l0.138-0.101c0.181-0.13,0.283-0.34,0.278-0.562c-0.005-0.223-0.12-0.428-0.306-0.549
		c-1.918-1.25-5.175-1.347-6.77-1.765c-2.585-0.688-3.875-3.846-3.715-5.901c0.001,0.002,0.002,0.002,0.004,0.002l-0.001-0.012
		l0.314-0.018c2.084-0.114,3.381-1.993,4.577-3.849c2.113-3.272,3.12-3.31,3.12-3.31c5.486-0.562,8.567-5.119,9.412-13.927
		c0.25-2.6-0.519-4.144-1.333-5.78c-0.376-0.758-0.768-1.542-1.076-2.459l-0.103-0.306l0.308-0.093
		C218.564,182.305,218.928,182.068,219.311,181.819z M216.124,179.285c-0.425,0-0.768-0.345-0.768-0.768
		c0-0.424,0.344-0.768,0.768-0.768c0.423,0,0.767,0.344,0.767,0.768S216.547,179.285,216.124,179.285z"/>
</g>
</svg>
