<svg xmlns="http://www.w3.org/2000/svg" width="1121.145" height="161" viewBox="0 0 1121.145 161"><path d="M1070.479 28.16c-1.646-.843-3.297-1.688-5.59-2.86 2.57-2.071 4.596-3.731 6.66-5.34.344-.269.854-.396 1.305-.445 1.177-.13 2.82.598 2.74-1.632 1.354-.353 2.693-.789 4.068-1.009.42-.067 1.094.344 1.377.734.996 1.38 2.418.936 3.646.841 1.434-.111 2.218.686 2.762 1.655 1.434 2.561 3.416 4.92 6.004 5.772 2.266.745 4.077 2.104 6.086 3.34-.416 1.608-1.384 2.146-3.106 2.358-3.425.42-6.716 2.039-8.306 4.985-2.141 3.963-3.453 8.181-2.127 13.146 1.631 6.112 3.754 12.172 3.571 18.746-.182 6.512-2.308 12.36-5.479 17.735-2.168 3.672-4.5 7.455-7.996 10.211-2.346 1.848-4.331 4.062-6.42 6.184-2.982 3.031-6.607 5.497-10.189 7.854-2.496 1.645-4.004 4.731-7.381 5.09-.229.022-.452.397-.617.649-1.342 2.036-1.633 4.646-.801 6.487.721 1.597.118 4.04 2.949 5.015 2.428.837 4.378 3.154 6.43 4.944 1.683 1.47 3.573 1.814 5.728 1.93 3.201.17 6.554-.941 9.586.947 1.058-.831 1.987-.641 3.209-.088.963.436 2.279.088 3.772.088l.179 2.723c-.742.094-1.473.24-2.207.264-1.007.033-2.108-.149-1.851 1.455-2.062 1.354-4.567 2.57-6.646 1.213-2.717-1.775-5.475-1.532-8.34-1.68-1.56-.078-3.226.579-4.684-.875-.314-.313-1.882.623-2.812.963-1.274-1.688-.045-2.836.504-4.09-2.715-2.529-5.389-5.074-8.143-7.531-.406-.361-1.341-.123-1.771-.477-1.099-.9-2.844-.643-3.469-2.628-.401-1.283-2.017-2.097-3.854-2.528-2.087-.492-4.502-1.742-5.059-4.824-5.436.134-9.668 2.354-12.739 6.91-2.214 3.282-4.521 6.5-6.683 9.594l1.205 3.729c2.014-1.245 4.115-2.083 5.728.521 2.823.423 5.659.785 8.469 1.289 1.176.211 2.299.718 4.014 1.271l-3.125 3.719c-2.699-.186-5.307.452-7.77-.953-.759-.433-1.965-.256-1.899 1.367.019.463-.827.961-1.271 1.438-3.231-2.147-7.595-1.834-10.47-5.245-.848.729-1.498 1.437-2.276 1.935-1.398.896-2.896.521-3.726-.916-.19-.332-.09-1.257.021-1.281 2.848-.657 2.27-4.434 5.112-5.396 1.375-.465 2.371-2.521 3.197-4.04 2.582-4.749 4.849-9.677 7.58-14.332.752-1.279 1.293-2.601.793-3.588-.703-1.384-.904-2.689-.895-4.141.011-1.485.002-2.973.002-4.412-3.681-2.646-7.263-5.251-10.879-7.809-.755-.531-1.64-.882-2.8-1.492-2.854 4.022-7.305 4.065-11.875 3.795l-2.674-2.674c1.853-1.812 3.677-3.604 6.02-5.901-1.641-.179-2.548-.188-3.414-.392-1.356-.311-2.785-.553-4.003-1.176-1.681-.859-1.844-2.58-.601-4.066.428-.51.949-.938 1.402-1.424.321-.346.604-.727.885-1.066-.741-2.707-3.968-2.184-5.021-3.885-1.313-2.118-3.229-3.342-5.011-4.803-1.712-1.401-3.536-2.662-5.296-3.975 2.078-2.857 2.07-2.84 4.231-2.127 1.869.615 3.752 1.184 5.793 1.365-2.35-1.271-3.979-3.395-6.887-4.006-2.442-.515-3.983-3.187-4.812-5.639-.793-2.352 1.369-2.881 2.881-3.629-.979-1.091-2.203-2.053-2.881-3.309-.855-1.588-2.021-3.295.145-5.11.789-.662.728-2.339 1.167-3.978 1.979-.031 4.366-.812 6.659.41 1.904 1.016 3.703 2.229 5.97 3.61 0-1.194-.091-2.147.021-3.075.155-1.271.976-1.838 2.248-2.137 3.028-.713 5.521.68 7.479 2.428 3.83 3.416 8.19 5.739 12.828 7.73 1.134.486 2.327 1.191 3.086 2.127 1.565 1.934 3.918 1.884 5.903 2.718 1.275.536 2.777.565 4.015 1.163 5.869 2.835 6.919 3.023 13.899 1.887 1.562 1.711 3.117-.18 4.66-.205 1.657-.027 3.354-1.432 4.916-2.416 1.479-.929 2.693-2.304 4.222-3.11 3.877-2.05 5.778-5.632 7.748-9.234.527-.969 1.442-1.72 2.057-2.653 3.078-4.697 5.771-9.64 8.908-14.303.083-.112.016-.323.016-.43zM58.2 144.504c-1.334 0-2.688.149-3.996-.035-2.155-.305-4.184-.678-5.404-3.071-.86-1.689-2.542-2.978-3.947-4.351-.173-.168-.913.369-1.371.332-.541-.041-1.062-.351-1.591-.543.319-.442.576-.961.974-1.315.955-.861 2.5-1.457 2.875-2.496 1.19-3.287 3.312-5.978 5.02-8.931 1.619-2.805 2.451-5.977 3.795-8.928 1.012-2.224 1.096-4.931 1.283-7.442.139-1.865-.225-3.48-2.496-4.468-1.449-.629-2.395-2.539-3.434-3.969-1.466-2.021-4.934-3.789-6.562-2.566-2.782 2.087-5.765 1.775-8.792 1.753-.889-.009-2.512-.326-2.535-.609-.102-1.213-.668-2.611.652-3.68 1.031-.832 1.943-1.828 2.822-2.826.277-.314.481-.969.336-1.297-.133-.306-.771-.5-1.205-.531-.994-.076-2.032.145-2.99-.057-2.984-.623-3.407-1.984-1.592-4.638l.859-1.637c.836-1.21 1.729-1.699-.533-3.023-2.949-1.727-4.928-5.034-8.465-6.196-.425-.142-.674-.743-1.078-1.021-1.172-.806-1.276-2.056-.734-3.026.388-.695 1.486-1.159 2.355-1.386 1.625-.424 3.115.203 4.6.903.438.206 1.185-.242 1.789-.391-.316-.354-.568-.832-.963-1.037-1.09-.566-2.205-1.14-3.375-1.494-3.076-.934-4.623-3.309-5.528-6.069-.388-1.183-.651-2.82 1.625-3.272 1.205-.24 1.317-1.333.144-2.423-1.369-1.271-2.938-2.317-2.996-4.789-.047-2.003 2.576-.912 2.139-2.585-.273-1.045-.998-2.104-.872-3.073.088-.678 1.2-1.565 1.983-1.724 1.012-.205 2.092-.222 3.223.597 1.722 1.248 3.824 1.971 5.773 2.899.206.098.637.17.674.101.141-.267.305-.656.203-.889-.248-.565-.777-1.028-.945-1.605-.422-1.438.129-2.045 1.564-2.207 3.325-.375 5.98.74 8.17 3.251 1.907 2.187 4.403 3.578 6.905 5.013 2.601 1.49 5.237 2.991 7.362 5.223.732.77 1.767 1.308 2.746 1.777 3.056 1.465 6.029 3.408 9.265 4.111 3.687.801 7.342 2.925 11.517.812 1.633-.826 4.086-.136 5.985-1.208 4.919-2.779 8.963-6.142 11.705-11.463 2.935-5.689 7.14-10.724 10.799-16.039.806-1.171 1.675-2.301 2.445-3.493.138-.212.053-.748-.132-.935-.172-.175-.662.014-.928-.123-4.08-2.098-4.078-2.422-1.481-6.187.812-1.179 2.292-.255 2.479-.782.734-2.069 1.576-2.611 3.314-.98.146.137 1.195-.284 1.199-.46.062-2.86 3.26-.706 3.934-2.5.414.207 1.005.304 1.213.639.973 1.566 2.482 1.406 3.957 1.354 1.727-.061 2.717.668 2.979 2.43.08.548.324 1.197.718 1.551 1.063.956 2.319 1.703 3.362 2.68.867.811 1.773 1.132 2.916 1.474 1.729.518 3.222 1.855 4.787 2.886.445.293.797.728 1.19 1.097-.467.297-.903.787-1.403.862-6.049.903-11.254 3.815-12.941 10.701-.604 2.47-.967 4.837-.307 7.069 1.588 5.375 3.062 10.705 2.672 16.391-.125 1.824-.194 3.686.017 5.493.521 4.464-.905 8.526-2.668 12.409-1.671 3.68-3.53 7.219-6.16 10.5-4.674 5.834-10.08 10.896-15.414 16.01-4.088 3.918-8.629 7.449-13.81 9.998-3.446 1.695-3.729 3.056-2.168 6.824.881 2.131 1.879 4.203 2.617 6.424 1.426 4.291 1.686 4.205 5.991 4.209 2.166.002 4.335-.055 6.497.031.751.028 1.487.405 2.23.621 1.227.354.272 2.735 2.453 2.434 1.127-.153 2.383.568 3.571.918 1.144.336 1.14 1.115.46 1.804-.527.53-1.353 1.188-1.98 1.125-2.041-.201-4.17.844-6.186-.791-.832-.674-2.367-.443-2.727 1.504-.2 1.088-1.346 1.508-2.467.389-.516-.516-1.397-1.041-2.049-.969-2.021.227-3.275-.73-4.783-1.91-1.055-.826-3.103-2.357-4.42.266-.08.16-.901.201-.985.062-.481-.799.306-2.848 1.252-3.48 1.649-1.102 2.017-1.771.646-3.195-2.414-2.51-2.789-5.887-4.336-8.74-.358-.661-.562-1.491-.567-2.245-.009-1.318-.132-2.486-.994-3.617-.688-.901-.722-1.888-.159-3.188.65-1.509-.594-2.822-2.199-3.006-3.918-.449-7.691.436-11.463 1.295-.591.135-1.16.709-1.703.657-2.604-.229-4.492.974-6.551 2.406-1.646 1.147-2.529 2.133-3.249 4.149-.97 2.72-3.298 4.97-5.127 7.355-.571.746-.856 1.273-.153 2.086 2.207 2.553 4.861 4.143 8.33 4.037 2.275-.068 4.396.045 6.381 1.549 1.336 1.012 3.484.148 4.865 1.469.389.371.661.865.987 1.306-.369.229-.72.608-1.11.661-3.511.466-7.029.871-10.543 1.295l-.037-.281zM216.449 144.503c-1.5 0-3.001.053-4.498-.014-2.007-.088-4.116-.871-4.815-2.555-.83-1.996-2.631-2.871-3.656-4.488-.866-1.369-1.454-.25-2.227.008-.328.111-.898-.223-1.225-.508-.161-.141-.104-.891-.002-.922 3.798-1.211 4.778-5.045 6.425-7.822 1.604-2.707 3.411-5.322 5.294-7.717 2.774-3.529 2.51-7.08 1.799-10.924-.111-.605-.527-1.187-.52-1.771.058-3.512.045-3.477-1.691-5.49-.708-.818-1.068-1.957-1.822-2.713-.757-.756-2.203-1.004-2.651-1.846-1.073-2.008-2.386-.635-3.082-.164-2.392 1.611-4.898 2.123-7.724 1.971-1.709-.092-2.963-.967-4.267-1.795-1.002-.637-1.153-1.48-.162-2.4 1.22-1.133 2.403-2.312 3.524-3.541.398-.438.569-1.086.847-1.639-.541-.225-1.067-.594-1.624-.643-1.425-.127-2.755-.447-4.137-.834-1.647-.463-.783-2.113-1.945-2.4.393-.59.736-1.219 1.191-1.756.534-.635 1.186-1.17 1.75-1.783 1.067-1.158 1.091-1.979-.267-2.721-1.848-1.014-3.615-1.926-4.21-4.207-.138-.529-.859-1.156-1.415-1.279-2.156-.482-2.96-2.5-4.47-3.697-1.216-.967-1.404-2.161-.325-3.396.988-1.131 2.031-1.369 3.434-.53 1.175.702 2.544 1.091 3.849 1.554.244.087.595-.129.896-.205-.173-.354-.254-.826-.535-1.039-.997-.762-1.981-1.628-3.118-2.104-2.877-1.205-4.238-3.486-5.271-6.262-.988-2.663-1.203-2.687 1.396-4.323.973-.612.96-1.034.481-1.881-.76-1.344-1.507-2.706-2.11-4.123-.509-1.193-1.904-2.743.918-3.168.298-.045.517-1.755.467-2.675-.069-1.282.258-2.344 1.334-2.943 1.337-.745 2.379-.113 3.43.902 1.131 1.094 2.534 1.898 3.788 2.869.74.573 1.873 1.866 2.056 1.737 1.703-1.198-.806-1.718-.597-2.84.171-.921-.271-2.05 1.396-1.944 1.786.111 3.362.005 4.881 1.622 2.776 2.958 5.834 5.729 9.104 8.131 3.101 2.276 6.575 4.037 9.019 7.138 4.643 1.227 8.625 4.212 13.377 5.097 2.176.405 4.237 1.607 6.578 1.039 4.062-.988 8.207-1.715 11.843-3.996 2.834-1.777 4.258-4.686 5.791-7.411 3.202-5.699 6.516-11.327 10.062-16.814 1.118-1.729 2.47-3.308 3.67-4.985.556-.774.599-1.43-.545-1.814-1.601-.538-3.327-1.645-2.977-3.271.279-1.294 1.619-2.805 3.623-2.764.396.008 1.078-.615 1.16-1.038.254-1.314 1.209-.859 1.924-.889.848-.034 2.25 1.995 2.34-.696.004-.117.542-.214.83-.324.785-.302 1.131 1.672 2.326.265.867-1.02 1.572.491 2.36.91.804.427 1.746.692 2.655.798 1.85.215 3.264 1.129 4.504 2.418-1.9 2.227.842 2.657 1.616 3.455 1.881 1.936 4.173 3.475 6.318 5.146.617.479 1.401.772 1.935 1.321.528.545.836 1.305 1.24 1.97-.69.239-1.39.694-2.074.679-2.787-.063-5.286.637-7.605 2.198-4.9 3.3-4.475 8.291-4.318 13.216 2.131 1.784.285 4.599 1.879 6.758 1.207 1.636 1.398 4.062 1.888 6.172.254 1.096.125 2.273.242 3.407.249 2.371-.058 4.688.772 7.157.66 1.961-.578 4.586-1.072 6.896-.225 1.047-.672 2.049-1.04 3.062-1.333 3.672-3.523 7.381-6.015 10-1.723 1.812-3.955 3.293-5.17 5.381-1.199 2.06-3.348 2.711-4.707 4.422-1.547 1.943-3.369 3.714-5.279 5.312-2.557 2.139-5.168 4.279-8.02 5.975-2.928 1.74-5.438 4.197-8.855 5.166-.692.197-1.312 1.365-1.586 2.209-1.439 4.426-1.014 9.021-.986 13.568.002.383.707 1.08 1.103 1.092 3.164.09 6.33.088 9.496.035 1.599-.027 2.633.383 3.431 2.002.774 1.572 2.868 1.324 4.325 2.01.522.248 1.062.467 1.597.697-.521.77-1.005 2.154-1.58 2.195-2.09.146-4.381.291-6.275-.416-1.953-.73-2.787-.652-3.519 1.319-.288.783-.889 1.302-2.157.402-.969-.687-2.378-1.283-3.961-1.359-1.525-.071-3.053-1.396-4.457-2.346-.818-.558-1.355-.66-2.099.024-.512.474-1.34 1.234-1.715 1.086-.7-.276-.114-2.762.771-3.604 1.143-1.084 1.248-1.662 1.024-3.482-.391-3.186-.426-6.438-1.107-9.557-.716-3.273-1.231-6.582-1.967-9.846-.098-.436-.719-1.025-1.149-1.074-7.121-.795-14.123.547-19.252 5.184-3.318 2.998-6.213 6.801-8.24 10.99-.893 1.84.291 3.998 2.752 4.705.935.271 1.99 1.057 2.541.961 3.887-.666 7.166 1.287 10.686 2.133 1.048.25 2.09.586 3.07 1.025.316.143.623.771.576 1.129-.041.312-.562.754-.914.803-3.51.467-7.028.863-10.545 1.279l-.032-.252zM414.69 145.503c-.138-.018-1.48.189-2.334-.361-2.119-1.373-3.05-.588-3.847 1.404-.319.799-.842.812-1.785.221-1.268-.797-2.758-1.312-4.448-1.385-1.249-.053-2.67-.992-3.62-1.938-1.313-1.303-2.161-1.105-3.188.168-.252.312-.689.477-1.045.707-.104-.457-.361-.938-.289-1.363.265-1.539.955-3.07.904-4.584-.098-2.867-.244-5.822-1.02-8.559-1.044-3.688-1.308-7.64-3.771-10.965-.67-.904-.963-1.394-1.979-1.343-1.011.05-1.907-.006-2.685-.883-.146-.164-1.293.812-1.985.826-1.568.03-2.896-.99-4.577-1.054-2.352-.084-3.989.969-4.84 2.689-1.901 3.857-3.598 7.85-4.951 11.926-.522 1.576-.203 3.621.273 5.299.83 2.922 3.812 3.918 6.119 3.992 3.047.102 5.219 2.309 8.107 2.357.13.002.411.58.34.797-.127.385-.456.98-.729.998-2.231.127-4.398.438-6.612.855-2.539.479-5.355-.449-8.037-.859-.249-.039-.328-.812-.597-1.158-1.561-2.025-3.155-4.023-4.73-6.039-.45-.576-.794-.844-1.45-.129-.377.412-1.138.443-1.664.752-.91.529-1.506 2.408-2.709 1.412-1.438-1.189-.174-2.793.621-3.807 1.717-2.188 3.786-4.095 5.623-6.193 1.148-1.312 2.437-2.641 3.114-4.199.732-1.688 1.173-3.658 1.136-5.492-.078-3.965 2.807-6.943 3.207-10.703.026-.26.551-.434.662-.717.596-1.535 3.473-1.205 3.042-3.049-.245-1.041-2.182-1.625-3.229-2.557-1.366-1.217-2.666-2.521-3.889-3.881-1.453-1.621-3.102-1.767-4.764-.609-3.103 2.158-6.574 1.244-9.915 1.359-.333.012-.934-.74-.997-1.195-.188-1.312-.132-2.574 1.167-3.512.935-.672 1.722-1.576 2.468-2.467.254-.304.268-.888.219-1.324-.021-.176-.5-.416-.775-.426-1.331-.043-2.678.1-3.994-.047-1.961-.216-2.83-2.431-1.581-3.988.725-.902 1.822-1.555 2.376-2.531.308-.543-.017-2.145-.304-2.209-2.323-.547-3.14-2.829-4.89-3.944-1.015-.646-2.289-.883-3.45-1.297-.861-.31-3.298-3.102-3.153-3.628.237-.88 2.861-2.531 4.009-2.343 1.217.199 2.381.699 3.596.932.375.072.836-.303 1.258-.473-.234-.236-.436-.532-.713-.697-1.603-.947-3.227-1.858-4.836-2.795-.808-.47-1.73-.835-2.373-1.478-2.273-2.284-2.377-3.856-.57-6.502.45-.66 1.482-1.338 1.394-1.858-.146-.841-.847-1.79-1.586-2.282-1.978-1.314-.871-2.679-.299-4.073.104-.254.971-3.808.996-4.256.158-2.739 2.284-4.244 4.727-3.306.715.275 1.428.624 2.049 1.067.652.464 1.191 1.083 1.781 1.634.146-.771.31-1.541.44-2.315.355-2.108 1.187-2.908 3.241-2.582 1.575.249 3.563.197 3.848 2.54 3.766 2.062 6.303 5.725 10.367 7.533 2.837 1.262 5.653 3.007 7.686 5.554 1.327 1.665 3.414 1.436 5.07 2.275 1.771.897 3.988 1.042 5.581 2.14 1.957 1.349 4.154.333 6.003 1.243 2.053 1.012 3.752.45 5.858-.139 2.236-.625 4.475-1.093 6.738-1.86 4.229-1.434 6.689-4.598 8.445-7.982 1.871-3.614 4.117-6.945 6.152-10.428 1.721-2.943 3.274-5.983 5.044-8.896.744-1.229 1.902-2.198 2.771-3.36.713-.951.021-2.229-1.345-2.666-3.005-.96-3.194-2.505-1.188-4.919 1.084-1.305 3.031-.511 3.367-1.394.789-2.084 1.481-2.196 2.952-.737.105.104 1.271-.435 1.347-.798.31-1.509.945-1.369 2.017-.731 1.149.687 2.811-1.293 3.86.824.812 1.63 2.933.031 3.972 1.121.756.792 3.05.285 2.214 2.473 1.685 2.589 3.625 4.866 6.521 6.237 1.266.6 2.422 1.515 3.463 2.466.807.736 2.057 1.937 1.879 2.607-.438 1.661-2.176.708-3.34.818-8.063.763-11.722 7.276-10.241 13.703.872 3.783 1.517 7.639 2.71 11.352.191.594.103 1.318.402 1.829 1.625 2.761 1.688 5.771 1.615 8.832-.048 1.998-.193 4.02.024 5.992.701 6.292-2.229 11.333-5.493 16.222-1.424 2.133-3.07 4.193-4.951 5.924-3.023 2.779-6.519 4.972-9.931 7.274-3.521 2.38-7.54 3.608-11.143 5.765-3.418 2.045-7.154 3.61-10.869 5.093-3.231 1.291-4.178 4.661-6.615 6.637-.245.197-.241 1.117 0 1.435 2.105 2.771-.061 6.377 1.892 9.242.549.805-.178 3.021.292 3.231 1.25.562 2.831.442 4.284.487 1.829.062 3.663.033 5.495.011 1.492-.021 2.808.03 4.002 1.34.593.646 2.077.554 3.172.642 1.013.082 1.974-.115 1.892 1.485-.035.672 1.035 1.715.82 2.002-.521.695-1.457 1.168-2.314 1.494-.585.227-1.318.047-2.984.047zM566.106 145.497c-1.397 0-2.785.424-3.328-.073-2.252-2.062-3.231-.819-4.224 1.187-.194.396-.514 1.057-1.415.401-1.396-1.012-3.029-1.431-4.843-1.639-1.404-.162-2.781-1.358-3.979-2.334-1.076-.876-1.64-.447-2.482.254-.367.308-.75 2.017-1.538.517-.276-.524-.765-2.066.856-2.297.73-.104 1.409-.289.521-1.005-1.562-1.256-1.721-2.479.337-2.927 2.042-.443 2.066-2.439 2.043-3.232-.108-3.789 2.056-6.938 2.574-10.551.229-1.592.852-2.871-.006-4.468-.424-.787-.32-1.87-.403-2.824-.2-2.274-1.792-4.078-3.96-3.944-1.867.111-3.877-.846-5.649.877-.761.736-2.804-.765-3.294.928-.25.859 1.16 2.447.787 2.977-1.137 1.605.41 2.859.109 4.248-.3 1.387.686 2.979-.736 4.215-.246.213-.304.994-.108 1.299 1.67 2.638 1.131 4.763-1.021 6.926-.594.6-.247 2.017-1.011 3.072-.517.715-.623 1.987-1.023 3.033-1.968 5.129-5.369 7.414-10.312 6.316-.65-.146-1.146-.997-1.712-1.521.471-.472.864-1.109 1.432-1.373.831-.39 1.796-.479 2.688-.756 1.043-.324 2.104-.55 1.877-2.166-.088-.636.528-1.424.944-2.066.959-1.48 1.325-2.809-.436-4.017-.811-.556-.764-1.261-.107-2.062.688-.84 1.019-2.047 1.818-2.711 4.566-3.795 2.499-8.653 2.264-13.215-.138-2.648-1.562-5.002-.696-7.979 1.088-3.747-.761-7.172-3.319-10.015-1.28-1.422-3.085-1.471-4.75-.359-.651.436-1.479.729-1.936 1.312-1.793 2.285-4.25 2.054-6.698 1.979-2.34-.067-2.851-.789-1.663-2.929.841-1.518 2.104-2.792 3.118-4.221.254-.354.476-.978.327-1.305-.136-.304-1.021-.643-1.172-.51-1.614 1.445-3.009.896-4.741.033-1.939-.963-1.675-.623-1.264-2.469.427-1.918 3.529-2.957 2.098-4.992-.802-1.143-3.24-.987-4.562-1.941-1.753-1.268-3.52-.516-5.246-.607-1.501-.08-2.606-.51-3.012-1.897-.421-1.445.344-2.599 1.673-3.14 2.358-.963 4.778-1.771 7.174-2.643-2.611-.128-5.241-.123-7.834-.419-3.116-.354-4.002-2.767-2.103-5.398.289-.4.979-.71.981-1.068.008-.496-.349-1.149-.759-1.451-.325-.238-.976-.113-1.462-.035-1.411.225-2.391-.669-2.624-1.701-.31-1.359-.485-3.021 1.103-3.974.386-.23 1.007-.12 1.323-.394 1.13-.975 2.361-1.878.548-3.519-.678-.613-.683-1.973-.994-2.991 1.791-.524 1.4-2.851 3.396-3.663 1.82-.742 2.954.271 4.167.531 3.526.76 3.884.798 4.372-2.49.264-1.777 2.422-3.182 3.891-2.396 6.125 3.281 12.97 5.021 18.906 8.635 4.816 2.933 10.146 4.634 15.363 6.331 3.358 1.093 7.186 3.009 11.063.933.526-.282 1.241-.32 1.864-.3 5.421.181 9.097-2.808 11.858-6.943 2.582-3.865 4.67-8.058 7.065-12.052 2.407-4.013 4.913-7.966 7.406-11.927.704-1.119.581-2.172-.613-2.742-.826-.395-1.86-.358-2.677-.77-1.317-.665-1.276-1.56-.512-2.756 1.195-1.871 3.741-2.296 4.613-4.493.095-.233 1.046-.434 1.271-.25.64.525.91.962 1.854.173 1.154-.968 2.688-1.494 4.074-2.167.271-.132.883-.174.928-.073 1.26 2.795 4.453 1.354 6.367 2.888.607.487 1.396.508 1.275 1.54-.107.913.617 1.106 1.133 1.65 2.832 2.989 6.479 4.389 10.1 5.93.566.242 1.037.764 1.48 1.227.188.199.352.657.249.855-.186.354-.604.88-.876.852-2.945-.303-5.127 1.421-7.332 2.848-3.564 2.309-4.229 6.094-4.803 9.99-.883 5.979 1.733 11.244 3.244 16.697.334 1.207.764 2.391.782 3.646.052 3.165-.248 6.357.071 9.49.666 6.514-1.997 11.73-5.795 16.624-.871 1.122-1.483 2.503-2.521 3.425-1.675 1.494-2.988 3.275-5.123 4.438-3.888 2.121-6.824 5.666-10.724 7.924-4.321 2.503-8.504 5.252-12.689 7.98-2.118 1.381-4.152 2.9-6.146 4.459-1.254.979-2.8 1.905-3.681 2.944-1.373 1.619-4.166 1.69-4.465 4.521-.205 1.938-1.26 3.783-1.906 5.682-.299.879-.522 1.781-.8 2.669-.644 2.056-.246 2.679 1.792 2.703 2 .022 4.001.021 6.002-.001 1.491-.02 2.896-.068 3.976 1.373.362.484 1.433.531 2.195.607.99.1 2.051-.17 2.979.088.699.193 1.418.869 1.775 1.521.182.331-.379 1.109-.672 1.648-1.052 1.974-2.905 1.872-4.349 1.765zM657.21 64.502c-.945 0-1.926.16-2.832-.028-3.375-.7-3.711-1.69-1.395-4.097.811-.842 1.52-1.366.429-2.62-.321-.368.228-1.882.774-2.541 1.479-1.779 3.388-2.874 5.844-2.726 1.162.07 2.332.03 3.497.007 1.146-.024 2.654.325 3.331-.263.621-.542.323-2.116.471-3.23.061-.459.18-1.276.35-1.298 2.326-.292 4.1-2.57 6.836-1.572 4.25 1.55 8.07 3.872 12.065 5.895 6.861 3.472 13.108 8.313 20.812 10.036.928.207 2.125.729 2.775.36 2.471-1.399 5.086-.67 7.623-.939 6.471-.689 11.902-3.438 15.481-8.954 3.552-5.474 6.744-11.182 10.031-16.823 1.371-2.352 2.805-4.613 4.771-6.542.574-.564.504-1.47-.75-1.694-1.053-.188-2.045-.698-3.092-.953-1.197-.292-1.279-1.317-.604-1.71 1.547-.9 1.262-4.003 4.027-3.307.733-1.944 2.245-2.306 4.083-2 .527-1.858 1.859-1.93 3.562-2.149 1.264-.163 1.985-.609 3.08.541.606.638 2.105.399 3.191.616 1.803.358 3.604.399 3.881 3.108.143 1.396 1.719 2.382 3.391 3.05 2.566 1.027 4.908 2.659 7.256 4.172.859.554 2.139 1.582-.348 1.771-.725.055-1.406.833-2.117.849-3.938.088-5.766 3.251-8.244 5.471.484 2.72-2.213 4.386-2.202 7.138.009 2.498 1.036 4.661 1.271 7.034.072.731.843 1.433.813 2.129-.146 3.894 1.269 7.467 2.446 11.01.609 1.828.998 3.539.164 5.045-.643 1.159-.684 2.236-.517 3.271.786 4.862-1.044 9.213-3.186 13.183-2.045 3.795-4.688 7.288-8.4 10.036-3.325 2.459-6.313 5.468-9.901 7.59-3.35 1.98-6.373 4.463-9.955 6.102-3.088 1.414-5.979 3.264-8.973 4.889-.81.438-1.65.867-2.527 1.125-1.332.392-3.332-.816-3.961.76-.423 1.059.264 2.809.92 3.99.881 1.584.198 2.776-.377 4.072-.627 1.408-1.834 2.562-1.728 4.303.021.375-.395 1.01-.75 1.14-3.24 1.18-4.643 4.888-8.096 5.812-.732.196-1.284 1.076-1.92 1.644 1.095-.183 1.771 2.069 3.154.521.203-.228 1.154-.218 1.273-.021 1.424 2.315 3.694 1.684 5.778 1.85.717.058 1.517.49 2.047.995.338.322.537 1.365.303 1.613-1.084 1.14-1.928 2.695-4 2.382-1.874-.286-3.844.341-5.632-.958-.455-.33-1.872-.618-2.173 1.03-.348 1.903-1.577 1.942-3.03.901-2.037-1.461-4.916-.81-6.825-2.938-.951-1.062-2.524-1.521-4.021.215-1.188 1.38-2.5 1.04-3.649-.438-.282-.361-.33-1.328-.058-1.643 4.277-4.893 6.701-9.742 7.66-15.253.346-1.989.871-3.956 1.438-5.896 1.098-3.742.748-4.692-3.06-4.938-1.875-.119-2.375-.982-3.033-2.241-1.504-2.878-3.02-5.751-4.611-8.579-.302-.535-.509-.681-.225-1.466.725-1.995.091-3.469-1.652-4.399-1.294-.692-2.646-.737-4.063.187-2.203 1.437-4.606 2.562-6.846 3.947-1.389.858-2.513.659-3.406-.544-.945-1.273-.904-2.731-.025-4.026.72-1.062 1.74-1.925 2.438-2.999 1.237-1.908 1.178-1.958-.838-1.996-1.166-.021-2.332.008-3.498-.006-2.688-.029-3.559-1.6-2.177-3.953.554-.941 1.224-1.818 1.75-2.775 1.087-1.975 1.056-1.94-.903-2.289-.904-.159-1.887-.363-2.631-.854-2.488-1.638-5.064-2.675-8.131-2.169-.521.087-1.238-.276-1.695-.646-1.293-1.045-1.201-2.645.077-3.746 1.857-1.604 4.066-1.647 6.351-1.598.887.021 1.781-.332 2.67-.518-.781-.851-1.495-1.644-2.9-1.492-1.646.178-3.354.218-4.985-.013-1.347-.19-2.73-.681-3.91-1.364-1.479-.857-1.645-2.419-.487-3.696.741-.819 1.739-1.407 2.623-2.099l-.398-.791zm47.297 71.938c2.047.188 2.242.021 2.823-1.563.212-.575.459-1.153.796-1.662 1.383-2.081 1.348-2.53-.471-3.708-.65-.421-1.474-.668-1.954-1.222-.274-.316-.239-1.401.038-1.599.669-.471 2.021-1.088 2.291-.824 1.624 1.594 2.378.098 3.164-.784 1.048-1.179 1.854-2.565 2.86-3.784 1.104-1.339 1.14-2.172-.309-2.756-1.854-.749-3.806-1.256-5.736-1.795-.146-.041-.562.461-.666.771-.196.59-.041 1.489-.414 1.795-1.985 1.635-2.278 4.062-3.121 6.221-1.068 2.742-.803 5.869-2.418 8.488-.156.254.314 1.2.722 1.438.921.535 1.983.824 2.395.984zM871.712 144.495c-.105-.021-1.368.021-2.238-.539-2.052-1.326-2.752-.326-3.493 1.432-.431 1.021-1.068 1.037-2.159.209-1.023-.777-2.741-.565-3.989-1.143-1.688-.779-3.254-1.84-4.806-2.877-2.162-1.449-3.116-1.609-5.088.008-.858.705-1.628 1.049-2.635.883-.229-.037-.609-.621-.541-.746.525-.957.986-2.031 1.76-2.756 2.61-2.443 4.381-5.375 5.64-8.682.666-1.758 1.903-3.262 2.704-4.887 2.815-5.699 4.492-11.492 2.986-18.23-1.07-4.799-4.381-6.906-7.438-9.654l-.483-.022c-1.442-.863-1.938-3.14-4.187-2.806-.154 2.162-2.433 2.17-3.548 3.408-1.799 1.996-4.454 2.648-6.979 3.57-1.633.598-3.08.047-3.441-.566-.514-.867-.291-2.574.258-3.566.752-1.354 2.307-2.172 2.806-3.854.183-.616.882-1.098-.278-1.147-1.995-.088-4.001.039-5.993-.076-.399-.021-1.065-.711-1.077-1.107-.033-1.082-.459-2.277.729-3.197.57-.44.835-1.291 1.208-1.973 1.237-2.26 1.245-2.426-1.207-2.623-2.315-.186-3.569-1.922-5.327-2.904-1.715-.959-4.122.688-6.062-1.082-1.132-1.028-1.945-1.893-1.132-2.77 1.071-1.152 1.953-2.766 4.037-2.316.797.17 1.67.104 2.491.006.829-.1 2.201.619 2.179-1.071-.017-1.336-1.153-.901-1.86-.884-2.104.055-3.933-1.096-6.072-1.229-1.411-.088-2.729-2.108-4.004-3.353-.162-.159.089-.948.352-1.289.505-.655 1.181-1.175 1.737-1.791 1.378-1.523 1.36-1.961-.708-2.277-1.602-.244-2.083-1.506-3.044-2.305-.271-.226-.245-1.396.037-1.604 1.547-1.142 1.633-2.649 1.625-4.377-.017-3.104 1.436-4.641 4.627-4.742 1.54-.049 3.271-.756 4.702.72.34.352 1.238.161 1.88.223 1.132.11 1.724-.077 1.814-1.534.188-2.98.33-2.972 3.354-3.466 3.396-.556 3.559-.79 6.219 1.053 4.388 3.039 9.677 4.125 14.14 6.938 1.312.827 2.688 1.549 4.037 2.318.403.23.812.665 1.213.658 3.302-.058 5.791 2.214 8.768 2.99 4.162 1.084 8.247 3.695 12.76 1.07.373-.217.983-.032 1.483-.027 8.345.07 13.657-4.817 17.675-11.312 2.92-4.721 5.228-9.821 7.855-14.726.592-1.103 1.459-2.054 2.086-3.141.535-.93 1.285-1.959 1.271-2.935-.027-1.878-1.987-.219-2.729-1.158-.27-.342-.761-.644-1.188-.701-1.263-.169-1.354-1.269-.757-1.654 1.498-.965 1.365-3.849 3.998-3.374.863-1.686 2.158-2.486 4.085-2 .869-2.766 3.248-2.308 5.062-1.896 2.034.462 3.987 1.003 6.106.954.681-.016 1.521.517 2 1.055.258.292-.37 1.466-.129 1.661 1.844 1.489 3.736 2.939 5.744 4.196 1.828 1.145 3.844 1.985 5.725 3.053.738.419 1.336 1.086 1.998 1.641-.815.445-1.666 1.321-2.438 1.257-2.426-.201-4.256.964-6.183 2.07-2.309 1.327-2.306 1.301-3.299 5.442-.173.721-.461 1.512-.948 2.035-.885.948-1.599 1.75-.203 2.798-.091 4.661 2.924 8.761 2.323 13.581-.223 1.793.486 3.733.931 5.569 1.002 4.163 1.424 9.157.602 11.432-1.204 3.328-1.897 6.75-3.692 9.988-2.459 4.438-5.921 7.895-8.896 11.826-4.363 5.762-10.056 9.369-16.368 12.35-.979.463-1.921 1.035-2.809 1.66-.905.635-2.512 1.537-2.416 2.074.203 1.137 1.582 1.371 2.832 1.303.358-.021.738.564 1.127.846 2.027 1.455 4.012 2.98 6.531 3.543 2.271.504 3.438 2.4 3.969 4.25.738 2.578 1.011 5.357 1.029 8.056.016 2.358-.479 4.748-.99 7.069-.178.812-.931 1.818-1.67 2.113-1.608.646-1.199-1.139-1.569-1.809-1.101-1.982-1.291-2.18-4.16-2.119-.5.01-1.023.098-1.49-.029-.387-.104-.781-.416-1.014-.746-.125-.18-.013-.68.165-.887.537-.633 1.167-1.189 1.746-1.785 1.766-1.812 1.919-1.899.505-4.496-.66-1.211-.062-1.608.384-2.481.659-1.302.015-2.511-1.143-3.382-3.176 1.771-4.855-1.407-7.271-2.153-.761-.233-1.92-.383-2.444.021-3.332 2.553-6.459-.258-9.635-.4-3.504-.16-3.439-.217-7.787.09-2.891.201-5.768 1.98-8.753.555-.933.914-2.379 1.676-2.704 2.771-1.059 3.559-3.244 6.779-3.304 10.639-1.679 1.779.239 1.088.881 1.297.433.142 1.576-.285.949.795-.438.756-1.091 1.39-.188 2.029.301.215 1.148-.168 1.653-.445 1.118-.617 1.974-.502 3.12.191.932.562 2.137 1.979 3.491.436.072-.084.416-.08.475-.002 1.875 2.562 4.63 1.822 7.179 2.041 1.5.129 1.893 2.146.78 3.32-1.57 1.636-1.57 1.636-5.857 1.61z"/></svg>