<?xml version="1.0" encoding="utf-8"?>
<!-- Generator: Adobe Illustrator 16.0.0, SVG Export Plug-In . SVG Version: 6.00 Build 0)  -->
<!DOCTYPE svg PUBLIC "-//W3C//DTD SVG 1.1//EN" "http://www.w3.org/Graphics/SVG/1.1/DTD/svg11.dtd">
<svg version="1.1" id="Capa_1" xmlns="http://www.w3.org/2000/svg" xmlns:xlink="http://www.w3.org/1999/xlink" x="0px" y="0px"
	 width="89.403px" height="90px" viewBox="199.66 199.359 89.403 90" enable-background="new 199.66 199.359 89.403 90"
	 xml:space="preserve">
<g>
	<path d="M216.54,248.341c0,0-11.226-3.081-9.465-15.628c0.495-6.713,6.878-7.099,6.989-8.86
		c0.111-1.761-12.933,1.046-12.492,12.244c0.44,11.198,9.796,15.161,10.786,15.712c0.992,0.549-1.321,3.484-2.201,4.843
		c-0.88,1.357-3.338,8.401-2.458,13.501c-0.005,1.074-9.612,2.092-7.815,5.832c2.018,4.549,4.623,13.868,10.272,13.354
		c5.649-0.515,3.559-5.98-0.807-5.798c-4.366,0.184-4.329-6.347-2.201-7.189c2.127-0.844,6.42-2.679,7.301-5.724
		c0.881-3.044,4.293-5.429,8.365-4.071c4.072,1.358,6.567,2.092,4.512,8.291c-2.055,6.2-2.567,5.943,2.127,8.401
		c4.696,2.459,15.372,5.429,14.051,0.734c-1.321-4.696-3.999-3.559-5.357-3.302s-6.787,0.734-5.062-5.137
		c1.724-5.869,1.615-14.822,1.247-17.023c-0.366-2.201,1.87-0.109,5.577-1.43c3.705-1.321,9.979-3.816,10.089-4.071
		c0.11-0.258-0.918,13.061,2.532,13.061c3.449,0,3.376-6.163,3.815-14.821c0.44-5.209,3.448,0.439,6.458-0.367
		c3.008-0.807,10.786-4.622,15.482,0.881s8.053,8.145,10.117,5.283c2.063-2.861-1.092-6.31-4.1-6.971
		c-3.008-0.66-3.229-4.622-9.319-6.237c-6.091-1.615-10.712,0.22-10.786-8.731c-0.073-8.951-4.769-9.553-5.649-11.748
		c-0.88-2.194-2.347-7.183,6.384-8.43c8.73-1.247,8.364-2.201,8.364-2.788s-6.97,0.661-7.777-2.201
		c-0.294-1.981,8.73-3.228,7.924-9.759c-0.958-2.34-6.97,0.954-7.851,1.32c-2.989,0.715-0.897-2.532-4.64-1.981
		c-3.742,0.551-7.979,4.952-11.281,3.522c-3.302-1.43-5.503-2.421-4.733,0.44c0,0-0.77,0.22-1.815,0.715
		c-1.046,0.495,2.751,3.853,3.191,4.457c0.439,0.604,2.109,9.208-1.559,13.979c-3.668,4.769-9.759,15.629-17.976,19.885
		C220.467,245.168,218.118,247.258,216.54,248.341z"/>
</g>
</svg>
