<?xml version="1.0" encoding="utf-8"?>
<!-- Generator: Adobe Illustrator 16.0.0, SVG Export Plug-In . SVG Version: 6.00 Build 0)  -->
<!DOCTYPE svg PUBLIC "-//W3C//DTD SVG 1.1//EN" "http://www.w3.org/Graphics/SVG/1.1/DTD/svg11.dtd">
<svg version="1.1" id="Capa_1" xmlns="http://www.w3.org/2000/svg" xmlns:xlink="http://www.w3.org/1999/xlink" x="0px" y="0px"
	 width="87.407px" height="90px" viewBox="0 0 87.407 90" enable-background="new 0 0 87.407 90" xml:space="preserve">
<g>
	<path d="M54.532,84.68c3.072-0.006,4.139,4.297,2.809,4.297c-1.32,0-5.866,0.013-6.637,0.013c-0.771,0-0.654-1.593-0.529-3.093
		c0.123-1.494-2.182-16.141-2.655-17.588c-0.47-1.448-3.15,0.07-14.394,0.156c-11.25,0.064-13.673-3.135-13.746-0.742
		c-0.072,2.396-1.393,5.322-0.833,6.92c0.559,1.594,1.526,8.951,2.356,10.258c2.204-0.232,3.634,3.768,2.207,3.768
		s-4.963,0.062-5.675,0.062c-0.712,0-0.359-1.848-0.301-2.904c0.061-1.051-2.125-6.876-3.214-8.48
		c-1.083-1.599-1.428-9.869-1.428-9.869s-7.065,7.279-7.259,8.438c-0.194,1.161-0.029,9.634-0.029,10.529
		c2.319,0.237,3.356,3.463,2.224,3.463c-1.129,0-5.004,0.095-5.866,0.095c-0.872,0-0.56-3.25-0.322-3.891
		C1.471,85.461,0,78.455,0,75.534c0-2.928,5.45-11.114,5.45-13.431c0-2.311-1.856-7.02-1.572-11.861
		c0.426-7.238,4.885-10.913,11.976-10.971c13.305-0.119,12.825,5.108,25.783,3.09c15.448-2.409,26.139-5.113,23.612-12.263
		c0,0-1.371-2.832-1.049-4.317c0.318-1.483,1.049-2.25,1.049-2.25S46.167,8.694,33.981,5.938c1.483-3.813,19.396,4.132,19.396,4.132
		S49.355,4.24,36.744,0.531c13.46-4.557,31.688,21.622,31.688,21.622s10.964,4.04,18.921,19.091c0.426,4.135-1.74,5.029-3.891,4.471
		c-2.148-0.562-3.828-2.41-6.451-1.912c-2.326,0.438-11.832,12.88-11.688,15.126c0.146,2.242,2.82,12.186,3.252,13.604
		c0.544,1.783-0.855,5.804-0.822,6.724c0.029,0.924,0.797,1.027,1.303,2.627c0.505,1.588,0.352,4.396-1.788,4.875
		c-1.63-1.633-3.261-3.254-3.938-3.935c-0.68-0.678,0.936-1.808,1.03-2.25c0.087-0.44,0.505-5.444-0.558-7.476
		c-1.078-2.022-6.07-8.709-6.07-8.709s-4.447,6.332-4.266,9.759C53.727,76.467,54.24,83.975,54.532,84.68z"/>
</g>
</svg>
