<?xml version="1.0" encoding="utf-8"?>
<!-- Generator: Adobe Illustrator 16.0.0, SVG Export Plug-In . SVG Version: 6.00 Build 0)  -->
<!DOCTYPE svg PUBLIC "-//W3C//DTD SVG 1.1//EN" "http://www.w3.org/Graphics/SVG/1.1/DTD/svg11.dtd">
<svg version="1.1" id="Capa_1" xmlns="http://www.w3.org/2000/svg" xmlns:xlink="http://www.w3.org/1999/xlink" x="0px" y="0px"
	 width="89.218px" height="70px" viewBox="0 0 89.218 70" enable-background="new 0 0 89.218 70" xml:space="preserve">
<g>
	<g>
		<path d="M88.451,14.187c-0.699-1.302-1.539-2.529-2.309-3.795c-0.084-0.14-0.096-0.323-0.135-0.487
			c-0.035-0.148-0.055-0.3-0.1-0.445c-0.209-0.699-0.695-1.279-0.805-2.033c-0.047-0.328-0.301-0.664-0.543-0.918
			c-0.324-0.344-0.723-0.621-1.098-0.914c-0.281-0.219-0.566-0.438-0.855-0.646c0.682-0.91,1.25-2.21-0.268-2.93
			c-2.496-1.182-1.537-1.564-4.465,0c-2.383,1.271-3.408-0.729-4.627,0.238c-0.842-0.566-1.699-1.11-2.516-1.715
			c-0.719-0.533-1.506-0.576-2.328-0.526c-0.152,0.009-0.377,0.104-0.43,0.223c-0.141,0.313-0.244,0.657-0.293,0.998
			c-0.131,0.91,0.332,1.692,0.605,2.511c0.104,0.312,0.322,0.586,0.463,0.889c0.178,0.375,0.348,0.757,0.486,1.148
			c0.01,0.025,0.018,0.051,0.023,0.076c-0.941,0.309-1.66,0.557-1.633,1.807c0.057,2.562-4.59,1.729-4.203,4.467
			c0.387,2.738-2.271-0.387-3.679,2.496c-1.407,2.881-2.89-1.971-7.354,1.312c0,0-2.627-2.364-4.99,0.657
			c0,0-3.678-3.415-6.305-0.788s-3.416-2.891-6.567-0.264c0,0-2.89-3.021-5.386-0.394s-8.537-3.81-10.639,1.444
			c0,0-2.783-0.672-3.152,1.183c0,0-4.092-0.946-4.072,3.415c0,0-6.042,5.779,0,8.801c0,0-1.445,1.312,0.656,1.706
			c1.568,0.294-1.981,4.245-0.666,6.122c-0.098,0.057-0.191,0.141-0.191,0.203c0,0.557-0.409,0.729-0.799,0.949
			c-0.547,0.309-1.168,0.555-1.594,0.988c-0.584,0.594-1.03,1.324-1.5,2.021c-0.262,0.393-0.426,0.85-0.676,1.254
			c-0.457,0.738-1.02,1.422-0.935,2.375c0.013,0.137-0.126,0.285-0.185,0.432c-0.115,0.303-0.246,0.602-0.328,0.912
			c-0.109,0.418-0.158,0.854-0.27,1.271c-0.104,0.395-0.242,0.781-0.395,1.16c-0.082,0.209-0.195,0.416-0.342,0.582
			c-0.138,0.154-0.201,0.232-0.035,0.426c0.111,0.131,0.176,0.381,0.135,0.545c-0.096,0.385-0.336,0.738-0.395,1.125
			c-0.091,0.596-0.088,1.207-0.105,1.812c-0.018,0.635,0.141,1.271-0.172,1.889c-0.307,0.607-0.598,1.229-0.834,1.865
			c-0.079,0.217,0.029,0.5,0.053,0.754c0.018,0.168,0.109,0.377,0.042,0.49c-0.317,0.529-0.674,0.988-0.642,1.701
			c0.021,0.48-0.299,0.996-0.532,1.463c-0.313,0.623-0.479,1.271-0.563,1.938c-0.949,0.994-1.294,2.527-0.754,3.811
			c0.288,0.684,0.752,1.283,1.381,1.689c0.369,0.234,0.737,0.389,1.176,0.424l1.151,0.094c0.478,0.039,0.875-0.428,0.875-0.875
			c0-0.107-0.019-0.209-0.053-0.299c0.004-0.018,0.007-0.033,0.011-0.049c0.155,0.268,0.436,0.471,0.749,0.436
			c0.229-0.027,0.46-0.055,0.688-0.082c0.646-0.078,1.109-0.688,0.757-1.316l-1.647-2.943c0.08-0.209,0.157-0.42,0.238-0.629
			c0.445-1.152,0.979-2.24,2.093-2.922c0.14-0.086,0.212-0.295,0.298-0.457c0.389-0.744,0.682-1.561,1.178-2.225
			c0.509-0.682,0.746-1.443,0.977-2.211c0.266-0.889,0.439-1.807,0.604-2.721c0.266-1.488,0.488-2.982,0.731-4.475
			c0.104-0.631,0.244-1.26,0.894-1.564c1.248-0.586,2.352-1.373,3.33-2.342c0.025-0.025,0.08-0.021,0.187-0.047
			c0.046,0.229,0.119,0.449,0.128,0.672c0.047,1.061,0.075,2.121,0.115,3.182c0.004,0.098,0.039,0.193,0.062,0.291
			c0.036,0.146,0.116,0.293,0.107,0.436c-0.045,0.73,0.089,1.373,0.738,1.828c0.361,0.254,0.379,0.82,0.123,1.174
			c-0.096,0.131-0.129,0.373-0.078,0.527c0.133,0.408,0.395,0.783,0.484,1.197c0.198,0.904,0.666,1.656,1.184,2.393
			c0.605,0.859,1.018,1.822,1.1,2.855c0.061,0.754,0.376,1.332,0.863,1.795c0.878,0.834,1.426,1.816,1.699,2.982
			c0.096,0.41,0.207,0.814,0.354,1.205c-0.282,0.33-0.3,0.891,0.042,1.191c0.525,0.469,1.051,0.936,1.577,1.402
			c0.356,0.316,0.886,0.352,1.237,0c0.078-0.076,0.137-0.17,0.18-0.27h0.229c0.109,0.256,0.344,0.471,0.594,0.539
			c0.504,0.139,0.894-0.172,1.076-0.611c0.041-0.1,0.078-0.197,0.11-0.297c0.099-0.158,0.146-0.348,0.142-0.535
			c0.123-0.629,0.11-1.285-0.035-1.91c-0.057-0.816-0.114-1.635-0.188-2.451c-0.049-0.547-0.072-1.107-0.214-1.633
			c-0.153-0.572-0.429-1.111-0.655-1.662c-0.072-0.174-0.123-0.377-0.246-0.506c-0.397-0.422-0.49-0.939-0.553-1.482
			c-0.052-0.461-0.119-0.922-0.22-1.373c-0.177-0.791-0.41-1.568-0.574-2.359c-0.094-0.453-0.112-0.926-0.14-1.391
			c-0.023-0.396,0-0.777,0.328-1.088c0.113-0.105,0.166-0.311,0.18-0.479c0.027-0.34,0.182-0.574,0.493-0.688
			c0.454-0.164,0.661-0.484,0.704-0.951c0.013-0.129,0.102-0.25,0.156-0.375c0.11,0.066,0.221,0.135,0.392,0.236
			c0.079-0.252,0.263-0.523,0.206-0.729c-0.086-0.309,0.035-0.404,0.244-0.533c0.291-0.178,0.668-0.309,0.5-0.797
			c-0.025-0.072,0.074-0.254,0.158-0.291c0.346-0.152,0.299-0.453,0.322-0.734c0.014-0.174,0.021-0.348,0.044-0.521
			c0.054-0.422,0.222-0.76,0.451-1.055c1.272,0.867,2.989,1.244,4.791-0.67c0.166,0.023,0.33,0.047,0.496,0.068
			c0.267,0.035,0.532,0.068,0.799,0.102c0.854,1.775,3.056,4.434,7.812,0.402c0.399-1.518,4.549,5.191,9.332,3.361
			c0.711-0.273,1.113-0.869,1.644-1.109c0.007,1.158-0.054,2.314-0.06,3.473c-0.002,0.246,0.041,0.553,0.187,0.729
			c0.229,0.275,0.171,0.449-0.071,0.607c-0.33,0.219-0.393,0.443-0.113,0.746c0.24,0.26,0.197,0.473-0.16,0.607
			c0.088,0.084,0.156,0.141,0.213,0.205c0.396,0.453,0.372,0.879,0.009,1.33c-0.144,0.178-0.194,0.447-0.237,0.686
			c-0.07,0.385-0.068,0.785-0.152,1.168c-0.145,0.674-0.188,1.332-0.069,2.025c0.073,0.422-0.058,0.891-0.153,1.326
			c-0.092,0.424-0.293,0.824-0.382,1.25c-0.171,0.826-0.272,1.631,0.146,2.357c0.172,2.197,1.695,4.24,3.865,4.889
			c0.461,0.139,0.811-0.092,0.975-0.422c0.283,0.023,0.566,0.045,0.852,0.066c0.028,0.002,0.055,0.004,0.082,0.006
			c0.004,0.008,0.01,0.018,0.014,0.025c0.563,0.979,2.078,0.098,1.513-0.883l-0.757-1.316c-0.047-0.133-0.112-0.264-0.206-0.389
			c-0.027-0.037-0.056-0.074-0.083-0.111c-0.342-0.594-0.684-1.188-1.023-1.779c-0.062-0.105-0.135-0.188-0.215-0.254
			c-0.045-0.123-0.086-0.25-0.119-0.379c0.45-0.385,0.407-0.879,0.295-1.4c-0.039-0.188-0.041-0.396-0.012-0.588
			c0.124-0.762,0.42-1.527,0.361-2.271c-0.061-0.811,0.773-1.352,0.476-2.16c-0.003-0.008,0.062-0.029,0.063-0.051
			c0.162-0.758,0.422-1.516,0.207-2.299c-0.066-0.244,0.029-0.357,0.154-0.531c0.168-0.238,0.377-0.533,0.366-0.795
			c-0.034-0.893,0.425-1.58,0.793-2.316c0.19-0.383,0.408-0.785,0.464-1.197c0.131-0.967,0.159-1.947,0.258-2.92
			c0.019-0.172,0.131-0.402,0.271-0.482c0.335-0.193,0.862-0.012,1.104,0.312c0.32,0.438,0.996,0.656,1.295,0.49
			c0.316,0.146,0.586,0.268,0.852,0.398c0.74,0.369,1.486,0.727,2.213,1.121c0.334,0.184,0.4,0.814,0.992,0.59
			c0.037-0.016,0.113,0.08,0.176,0.117c0.248,0.148,0.52,0.27,0.74,0.447c0.426,0.344,0.912,0.662,1.203,1.104
			c0.199,0.303,0.129,0.793,0.148,1.201c0.047,0.912,0.068,1.824,0.109,2.738c0.025,0.58,0.062,1.162,0.096,1.742
			c0.008,0.16,0.016,0.32,0.037,0.477c0.125,0.908,0.352,1.812,0.355,2.721c0.01,1.336-0.127,2.674-0.229,4.01
			c-0.008,0.102-0.014,0.203-0.01,0.301c-0.08,0.041-0.154,0.094-0.225,0.164c-0.312,0.312-0.371,0.938,0,1.238
			c1.543,1.258,3.449,1.762,5.414,1.434c0.408-0.066,0.654-0.506,0.639-0.896c0.035-0.193,0.008-0.396-0.117-0.559
			c-0.465-0.602-0.93-1.205-1.395-1.809c-0.223-0.678-0.199-1.293-0.104-1.975c0.139-0.994,0.143-2.008,0.277-3.002
			c0.146-1.053,0.406-2.086,0.311-3.166c-0.064-0.711-0.023-1.432-0.098-2.141c-0.053-0.5,0.115-1.059-0.307-1.494
			c-0.043-0.047-0.021-0.227,0.033-0.285c0.361-0.387,0.143-0.746-0.008-1.129c-0.152-0.389-0.381-0.799-0.365-1.191
			c0.07-1.881-0.346-3.668-0.902-5.438c-0.1-0.318-0.254-0.623-0.328-0.947c-0.178-0.793-0.32-1.592-0.48-2.389
			c-0.203-1.02,0.047-1.875,0.848-2.58c0.215-0.188,0.373-0.494,0.453-0.773c0.072-0.262,0.104-0.531,0.139-0.803
			c1.031-0.435,1.818-1.362,1.227-3.409c0.229-0.573,0.408-1.163,0.549-1.769c1.578,0.328,3.49-0.101,1.35-5.322
			c0.623-1.531,1.959-2.34,3.035-3.42c0.031-0.03,0.074-0.047,0.115-0.062c0.703-0.279,1.398-0.586,2.117-0.822
			c0.252-0.082,0.584-0.052,0.84,0.037c1.016,0.354,2.006,0.385,2.943-0.183c0.271-0.164,0.479-0.446,0.684-0.699
			c0.23-0.287,0.387-0.639,0.641-0.897c0.645-0.656,0.768-1.107,0.43-1.929c0.316-0.108,0.607-0.259,0.48-0.669
			C88.964,15.69,88.82,14.875,88.451,14.187z"/>
	</g>
</g>
</svg>
