<svg xmlns="http://www.w3.org/2000/svg" width="25.002" height="24.391" viewBox="0 0 25.002 24.391"><path fill="#AA2A53" d="M23.323 6.224c-1.117-1.915-2.635-3.433-4.55-4.55-1.915-1.116-4.006-1.676-6.272-1.676-2.27 0-4.359.56-6.274 1.676-1.915 1.118-3.431 2.635-4.549 4.55-1.117 1.915-1.677 4.006-1.677 6.273 0 2.725.795 5.172 2.385 7.348s3.643 3.682 6.16 4.518c.293.055.511.018.652-.113.141-.129.211-.293.211-.488l-.01-.879-.008-1.447-.373.064c-.237.043-.54.062-.901.059-.365-.008-.742-.045-1.133-.115-.39-.068-.754-.232-1.09-.486-.336-.256-.575-.59-.716-1.002l-.163-.373c-.107-.25-.279-.525-.514-.83-.233-.305-.469-.51-.709-.619l-.112-.083-.211-.193-.146-.229s-.007-.141.082-.188c.086-.049.242-.072.471-.072l.326.049c.217.043.484.174.807.391.32.217.583.5.789.846.25.445.55.785.902 1.02.354.232.709.35 1.065.35s.667-.025.928-.08.505-.137.732-.244c.098-.729.362-1.285.797-1.678-.618-.062-1.175-.162-1.668-.293-.494-.129-1.004-.342-1.53-.635-.525-.293-.963-.656-1.312-1.09-.346-.437-.631-1.005-.854-1.71-.222-.707-.333-1.521-.333-2.442 0-1.312.429-2.432 1.286-3.354-.402-.987-.363-2.095.114-3.32.314-.098.781-.023 1.4.221.617.244 1.07.453 1.357.626s.52.319.691.438c1.01-.281 2.052-.423 3.125-.423 1.074 0 2.115.142 3.125.423l.617-.391c.424-.261.922-.5 1.498-.716.574-.217 1.014-.276 1.317-.18.487 1.227.532 2.333.13 3.32.857.922 1.286 2.04 1.286 3.354 0 .921-.11 1.738-.333 2.449s-.51 1.279-.861 1.709c-.354.43-.793.789-1.32 1.082-.524.293-1.035.506-1.527.635-.494.131-1.051.229-1.669.295.563.486.847 1.258.847 2.311v3.436c0 .193.067.357.203.486.137.131.352.168.645.115 2.519-.838 4.569-2.342 6.16-4.518 1.59-2.178 2.385-4.625 2.385-7.35-.004-2.271-.562-4.362-1.678-6.277z"/></svg>