<svg xmlns="http://www.w3.org/2000/svg" width="30" height="25" viewBox="0 0 30 25"><path fill="#AA2A53" d="M28.76 17.763c-.896-1.07-1.947-1.984-2.939-2.957-.896-.875-.953-1.381-.232-2.395.787-1.103 1.637-2.159 2.43-3.26.74-1.021 1.5-2.048 1.891-3.271.246-.781.027-1.127-.773-1.269-.137-.021-.279-.022-.422-.022l-4.754-.006c-.582-.011-.91.245-1.117.765-.277.701-.566 1.402-.9 2.08-.756 1.533-1.6 3.018-2.777 4.271-.264.278-.555.627-.984.483-.547-.199-.709-1.098-.697-1.4l-.006-5.485c-.113-.785-.287-1.134-1.068-1.286h-4.935c-.659 0-.99.257-1.341.67-.206.239-.267.393.149.471.82.154 1.283.688 1.405 1.507.197 1.315.183 2.634.069 3.949-.034.386-.1.771-.252 1.129-.239.565-.626.683-1.13.333-.46-.314-.78-.76-1.098-1.207-1.182-1.674-2.128-3.476-2.899-5.373-.224-.549-.607-.881-1.186-.89-1.424-.022-2.852-.024-4.277.002-.858.017-1.115.431-.766 1.21 1.553 3.457 3.281 6.815 5.54 9.874 1.158 1.57 2.487 2.957 4.207 3.938 1.948 1.111 4.045 1.447 6.252 1.346 1.031-.047 1.346-.32 1.395-1.35.029-.701.111-1.404.459-2.037.342-.625.857-.742 1.455-.355.299.193.551.439.785.699.582.637 1.143 1.293 1.748 1.908.76.77 1.654 1.225 2.781 1.133h4.373c.703-.045 1.066-.91.664-1.693-.287-.547-.658-1.04-1.05-1.512z"/></svg>